<?xml version="1.0" encoding="utf-8"?>
<!-- Generator: Adobe Illustrator 23.1.0, SVG Export Plug-In . SVG Version: 6.00 Build 0)  -->
<svg version="1.1" id="Bag" xmlns="http://www.w3.org/2000/svg" xmlns:xlink="http://www.w3.org/1999/xlink" x="0px" y="0px"
	 viewBox="0 0 250 250" style="enable-background:new 0 0 250 250;" xml:space="preserve">
<style type="text/css">
	.st0{fill:#D6222D;stroke:#D6222D;stroke-width:6;stroke-miterlimit:10;}
</style>
<g>
	<path class="st0" d="M223,84.9h-19.5l-44.1-57.8c-0.7-0.9-1.7-1.5-2.8-1.6c-1.1-0.2-2.3,0.1-3.2,0.7c-0.9,0.6-1.5,1.6-1.7,2.7
		c-0.2,1.1,0.1,2.2,0.8,3l40.5,53H53.8l40.5-53c0.7-0.9,0.9-2,0.8-3c-0.2-1.1-0.8-2-1.7-2.7c-0.9-0.6-2.1-0.9-3.2-0.7
		c-1.1,0.2-2.1,0.8-2.8,1.6L43.2,84.9H27.9c-11.6,0-21,8.9-21,19.9c0,7.3,4.2,14,11,17.5L43,223.8c0.5,1.8,2.2,3.1,4.2,3.1h152.2
		c2,0,3.7-1.3,4.2-3.1l24.7-99.7c4.3-1.1,8.2-3.4,11-6.7c3-3.5,4.7-8,4.7-12.5C244,93.8,234.6,84.9,223,84.9z M235.4,104.8
		c0,6.5-5.6,11.8-12.4,11.8H27.9c-6.8,0-12.4-5.3-12.4-11.8c0-6.5,5.6-11.8,12.4-11.8H223C229.8,93,235.4,98.3,235.4,104.8z
		 M219.3,124.9L196,218.8H50.6l-23.3-93.9H219.3z"/>
	<path class="st0" d="M79.1,202.4c2.4,0,4.3-1.8,4.3-4.1v-54.8c0-2.2-1.9-4.1-4.3-4.1c-2.4,0-4.3,1.8-4.3,4.1v54.8
		C74.8,200.5,76.7,202.4,79.1,202.4z"/>
	<path class="st0" d="M167.5,202.4c2.4,0,4.3-1.8,4.3-4.1v-54.8c0-2.2-1.9-4.1-4.3-4.1c-2.4,0-4.3,1.8-4.3,4.1v54.8
		C163.2,200.5,165.1,202.4,167.5,202.4z"/>
	<path class="st0" d="M122.3,202.4c2.4,0,4.3-1.8,4.3-4.1v-54.8c0-2.2-1.9-4.1-4.3-4.1s-4.3,1.8-4.3,4.1v54.8
		C118,200.5,119.9,202.4,122.3,202.4z"/>
</g>
</svg>
