<?xml version="1.0" encoding="utf-8"?>
<!-- Generator: Adobe Illustrator 23.1.0, SVG Export Plug-In . SVG Version: 6.00 Build 0)  -->
<svg version="1.1" id="PhoneBook" xmlns="http://www.w3.org/2000/svg" xmlns:xlink="http://www.w3.org/1999/xlink" x="0px" y="0px"
	 viewBox="0 0 250 250" style="enable-background:new 0 0 250 250;" xml:space="preserve">
<style type="text/css">
	.st0{fill:none;stroke:#D6222D;stroke-width:15;stroke-miterlimit:10;}
</style>
<path class="st0" d="M174.4,162.6L174.4,162.6c-2.8-5.8-8.5-8.8-14.3-8.8c-2.7,0-5.7,0-8.5,1.6c-4.2,2.8-8.5,4.2-12.9,4.2
	c-1.4,0-2.8,0-4.3,0c-7.1-1.4-17.1-9.9-24.1-24.5c-8.6-13.2-11.5-27.5-8.6-33.3c2.7-7.4,7.2-10.2,11.4-13.2
	c8.7-4.2,11.5-15.9,5.7-23.1l-11.4-20.3c-3-5.8-8.5-8.5-14.2-8.5c-3,0-5.8,0-8.7,1.4l-7.1,4.4C67.2,49.7,64.5,59.9,63,70
	c-4.3,21.7,2.8,49.2,21.4,81.1c17.2,30.2,37.2,52,58.6,59.3c5.7,1.4,11.4,2.8,17.1,2.8c4.3,0,8.7-1.4,13-2.8l7.1-4.4
	c8.7-4.4,10-14.5,5.8-23.1L174.4,162.6z"/>
</svg>
