<?xml version="1.0" encoding="utf-8"?>
<!-- Generator: Adobe Illustrator 24.0.3, SVG Export Plug-In . SVG Version: 6.00 Build 0)  -->
<svg version="1.1" id="Instagramm" xmlns="http://www.w3.org/2000/svg" xmlns:xlink="http://www.w3.org/1999/xlink" x="0px" y="0px"
	 viewBox="0 0 40 40" style="enable-background:new 0 0 40 40;" xml:space="preserve">
<style type="text/css">
	.st0{fill:#D6222D;}
</style>
<g id="Instagramm_1_">
	<path class="st0" d="M25.6,5H14.4C9.2,5,5,9.2,5,14.4v11.2c0,5.2,4.2,9.4,9.4,9.4h11.2c5.2,0,9.4-4.2,9.4-9.4V14.4
		C35,9.2,30.8,5,25.6,5z M32.2,25.6c0,3.6-2.9,6.6-6.6,6.6H14.4c-3.6,0-6.6-2.9-6.6-6.6V14.4c0-3.6,2.9-6.6,6.6-6.6h11.2
		c3.6,0,6.6,2.9,6.6,6.6V25.6z"/>
	<path class="st0" d="M20,12.5c-4.1,0-7.5,3.4-7.5,7.5c0,4.1,3.4,7.5,7.5,7.5c4.1,0,7.5-3.4,7.5-7.5C27.5,15.9,24.1,12.5,20,12.5z
		 M20,24.7c-2.6,0-4.7-2.1-4.7-4.7c0-2.6,2.1-4.7,4.7-4.7c2.6,0,4.7,2.1,4.7,4.7C24.7,22.6,22.6,24.7,20,24.7z"/>
	<path class="st0" d="M28.1,12.9c0.6,0,1-0.4,1-1c0-0.6-0.4-1-1-1c-0.6,0-1,0.4-1,1C27.1,12.5,27.5,12.9,28.1,12.9z"/>
</g>
</svg>
