<?xml version="1.0" encoding="utf-8"?>
<!-- Generator: Adobe Illustrator 24.0.3, SVG Export Plug-In . SVG Version: 6.00 Build 0)  -->
<svg version="1.1" id="Слой_1" xmlns="http://www.w3.org/2000/svg" xmlns:xlink="http://www.w3.org/1999/xlink" x="0px" y="0px"
	 viewBox="0 0 50 50" style="enable-background:new 0 0 50 50;" xml:space="preserve">
<path style="fill:#FFFFFF;" d="M33.4937744,3.0752563c-7.2077026,0-13.0725098,5.8652954-13.0725098,13.072998
	c0,2.1398926,0.4082031,3.5777588,0.8710327,4.7702637l-4.4492798,1.5109863
	c-0.5421143,0.1834717-0.8990479,0.6974487-0.8867188,1.2681885l0.1082153,4.9627686l-4.992981,0.3466797
	c-0.6685181,0.0466309-1.1957397,0.593689-1.2164307,1.2634888l-0.1842651,5.9590454L5.760376,37.0978394
	c-0.5999146,0.1296997-1.0263672,0.6635742-1.0263672,1.2750244v5.2289429c0,0.7219238,0.5866699,1.3077393,1.307312,1.3077393
	h5.2293701c0.3164673,0,0.6230469-0.1152344,0.8627319-0.3243408l18.0448608-15.8201904
	c0.9338989,0.1954346,2.3775635,0.4570312,3.3154907,0.4570312c7.2092896,0,13.0741577-5.8657227,13.0741577-13.0737915
	C46.5679321,8.9405518,40.703125,3.0752563,33.4937744,3.0752563z M39.9362793,19.4430542
	c-1.3491821,1.6571655-4.9528198,0.9570312-8.0489502-1.5637207c-3.0961304-2.5206909-4.5122681-5.9075317-3.163147-7.5646973
	c1.3491821-1.6571045,4.9528198-0.9570312,8.0489502,1.5637207S41.2854004,17.7859497,39.9362793,19.4430542z"/>
</svg>
