<?xml version="1.0" encoding="utf-8"?>
<!-- Generator: Adobe Illustrator 24.0.3, SVG Export Plug-In . SVG Version: 6.00 Build 0)  -->
<svg version="1.1" id="Слой_1" xmlns="http://www.w3.org/2000/svg" xmlns:xlink="http://www.w3.org/1999/xlink" x="0px" y="0px"
	 viewBox="0 0 25 25" style="enable-background:new 0 0 25 25;" xml:space="preserve">
<path style="fill-rule:evenodd;clip-rule:evenodd;fill:#D6222D;" d="M17.5075684,3.2912598
	c-1.2366943-1.2435913-3.0107422-2.0495605-4.9609985-2.0495605c-1.958374,0-3.7318115,0.8059692-4.9759521,2.0495605
	C6.2489624,4.5210571,5.4503174,6.3019409,5.4503174,8.2528687c0,1.2298584,0.6149292,3.0951538,1.4135132,5.0460205
	c1.1516724,2.7420654,2.9263916,5.7528076,4.0855103,7.7886963c0.1762695,0.3673706,0.4381104,0.720459,0.6217041,1.0734863
	l0.9755249,1.597229l0.8829346-1.597229c0.2612915-0.3530273,0.4448853-0.7061157,0.6223755-1.0734863
	c1.0673218-1.7672119,2.3952637-4.156189,3.5474854-6.545166c1.0604858-2.3033447,1.9503174-4.706604,1.9503174-6.2895508
	C19.5496826,6.3019409,18.751709,4.5210571,17.5075684,3.2912598z M12.5,11.3989258
	c-1.9355469,0-3.5046387-1.5690918-3.5046387-3.5045776c0-1.9355469,1.5690918-3.5046387,3.5046387-3.5046387
	s3.5046387,1.5690918,3.5046387,3.5046387C16.0046387,9.829834,14.4355469,11.3989258,12.5,11.3989258z"/>
</svg>
