<?xml version="1.0" encoding="utf-8"?>
<!-- Generator: Adobe Illustrator 24.0.3, SVG Export Plug-In . SVG Version: 6.00 Build 0)  -->
<svg version="1.1" id="Слой_1" xmlns="http://www.w3.org/2000/svg" xmlns:xlink="http://www.w3.org/1999/xlink" x="0px" y="0px"
	 viewBox="0 0 250 250" style="enable-background:new 0 0 250 250;" xml:space="preserve">
<style type="text/css">
	.st0{fill:#D6222D;}
</style>
<g>
	<path class="st0" d="M141.5,118.2c17.1-6.6,29.2-23.2,29.2-42.6c0-25.2-20.5-45.7-45.7-45.7S79.3,50.4,79.3,75.6
		c0,19.4,12.2,36,29.2,42.6c-34.2,7.6-59.9,38.1-59.9,74.5c0,15.1,12.3,27.4,27.4,27.4h98c15.1,0,27.4-12.3,27.4-27.4
		C201.3,156.3,175.7,125.8,141.5,118.2z M99.1,75.6c0-14.3,11.6-25.9,25.9-25.9s25.9,11.6,25.9,25.9s-11.6,25.9-25.9,25.9
		S99.1,89.9,99.1,75.6z M174,200.2H76c-4.1,0-7.5-3.4-7.5-7.5c0-31.1,25.3-56.5,56.5-56.5c31.1,0,56.5,25.3,56.5,56.5
		C181.5,196.9,178.1,200.2,174,200.2z"/>
	<circle class="st0" cx="125" cy="75.6" r="29.2"/>
	<path class="st0" d="M73.6,151.5c0,0,56.5-47.6,103.7,0c15.9,44.1,8.6,52.6,4.1,53.8s-115.2,3.1-115.2,3.1S57.5,161.9,73.6,151.5z"
		/>
</g>
</svg>
