<?xml version="1.0" encoding="utf-8"?>
<!-- Generator: Adobe Illustrator 23.1.0, SVG Export Plug-In . SVG Version: 6.00 Build 0)  -->
<svg version="1.1" id="Слой_1" xmlns="http://www.w3.org/2000/svg" xmlns:xlink="http://www.w3.org/1999/xlink" x="0px" y="0px"
	 viewBox="0 0 400 200" style="enable-background:new 0 0 400 200;" xml:space="preserve">
<style type="text/css">
	.st0{display:none;}
	.st1{fill-rule:evenodd;clip-rule:evenodd;fill:#FFFFFF;}
	.st2{fill-rule:evenodd;clip-rule:evenodd;fill:#D6222D;}
	.st3{fill:#9F4641;}
	.st4{fill:#C9A763;}
	.st5{fill:#B28D4B;}
	.st6{fill:#40645C;}
</style>
<rect class="st0" width="400" height="200"/>
<g>
	<path class="st1" d="M111.1,53.3c0-4.4-1.4-7.6-4.2-9.8c-2.4-1.9-5.6-2.9-9.7-2.9c-2.9,0-5.4,0.4-7.5,1.3c0,0.3,0,1.7-0.1,4.3
		c-0.1,2.6-0.1,4.8-0.1,6.6c0,5.8,0.1,9.3,0.4,10.4l0.2,0.1l0.2,0.1c0.3,0.1,0.6,0.2,0.9,0.2c0.5,0.1,2.1,0.1,4.8,0.1
		c4.9,0,8.4-0.6,10.5-1.7C109.7,60.5,111.1,57.6,111.1,53.3z M124.4,86.6c-0.3,0.5-0.7,0.9-1.1,1.4c-2.1,2.3-5.6,4.6-10.5,6.8
		c-2.9,1.2-6.9,2-12,2.2c0.4-1.2,0.9-2.4,1.5-3.5c7.6,0,12.2-2.5,13.7-7.4c0.6,0,1.2-0.1,1.8-0.1C120,85.9,122.2,86.1,124.4,86.6z
		 M115.8,76.9c-2.1-6.5-8.9-9.8-20.3-9.8c-1.1,0-2.1,0-3.2,0.1c-1.1,0.1-1.9,0.2-2.3,0.3v4.1c0,2.6,0,4.9,0.1,7.1
		c0.1,4.2,0.2,7.3,0.4,9.3c-2.1,2.5-3.7,5.2-4.8,8.1c-1.8-0.2-3.2-0.2-4-0.2c-1.7,0-3.9,0.2-6.4,0.6c0-0.2,0-0.3-0.1-0.5l-0.1-0.2
		l-0.1-0.2L75,95.3c0-0.6,0.3-0.9,1-0.9h0.6c0.2-0.1,0.6-0.1,1.1-0.1h0.6l0.7-0.1c1-0.1,1.6-0.4,1.8-1c0.3-1.2,0.5-5.1,0.5-11.6V63
		c0-13.1-0.8-20.5-2.3-22.1c-0.9-0.7-2.2-1.1-4-1.1c-0.8,0-1.1-0.4-1.1-1.3l0.2-0.2c0.3,0,1.4,0,3.4,0.1l2.3,0.2H82
		c1.4,0,4.7-0.2,9.9-0.6c2.4-0.2,4.5-0.3,6.2-0.3c2.4-0.1,4.8-0.2,7-0.2c4.7,0,8.5,0.8,11.2,2.4c3.5,2.1,5.2,5.6,5.2,10.5
		c0,4-1.7,7.4-5.2,10.2c-1.3,1.1-2.8,2-4.5,2.8c-1.4,0.7-2.7,1.1-4.1,1.5c1.6,0,3.3,0.2,5.1,0.6c2.4,0.4,4.5,1.1,6.4,1.9
		c4.7,2.2,7.3,5.6,7.6,10c-1-0.1-2-0.1-3-0.2c-1.9-0.1-3.9-0.2-5.8-0.2C117.1,76.8,116.5,76.9,115.8,76.9z"/>
	<path class="st1" d="M318.1,65.3c0-3.9-2-5.9-6.1-5.9c-3,0-4.7,1.5-5,4.5c-0.1,0.5-0.1,0.8-0.1,1c0,0.2,0,0.6,0.1,1
		C310.8,65.8,314.5,65.6,318.1,65.3z M326.3,73c-0.5,0.4-1.5,1.1-2.8,2.3l-1.6,1.3l-1.7,1.2c-2.8,2-5.1,3.1-6.9,3.3h-0.5
		c-3.3-0.2-6-1.2-8.2-3c-2.3-2-3.5-4.7-3.5-8.1v-0.3c0.1-2.4,0.9-4.5,2.3-6.3c0.9-1.1,2.5-2.5,4.7-4.1c3.8-2.8,7-4.1,9.5-4.1
		c1.5,0,2.9,0.6,4.2,1.9c1.6,1.6,2.4,3.6,2.4,6.1V64c0,1.4-0.4,2.1-1.3,2.2c-1.2,0.2-3.7,0.4-7.5,0.5c-1.4,0-2.9,0.1-4.5,0.1h-3.7
		c0.5,2.4,2,4.4,4.5,5.8c2.3,1.3,5,2,8.1,2.1h0.3c1,0,2.1-0.2,3.2-0.7c0.9-0.4,1.7-0.8,2.4-1.4c0.1-0.1,0.2-0.1,0.2-0.1
		c0.1,0,0.2,0.1,0.3,0.2l0.1,0.2V73z M298.4,55.6c0.5,0,0.8-0.2,0.8-0.7c0-0.1,0-0.2-0.1-0.3c0-0.1-0.1-0.2-0.2-0.3
		c-0.6,0-2.1,0.1-4.6,0.1c-2.5,0.1-4.2,0.1-4.9,0.1c-0.3,0-1.5,0-3.6-0.1l-1.1-0.1h-1c-0.7,0-1.1-0.1-1.2-0.1
		c-0.3,0.2-0.4,0.4-0.4,0.7c0,0.4,0.4,0.6,1.1,0.6h0.7l0.9,0.1c0.7,0.1,1.2,0.2,1.4,0.5c0.5,0.4,0.8,2.2,1,5.4l-0.1,9.2
		c-0.2,4.2-0.4,6.6-0.7,7.1c-0.2,0.4-0.9,0.7-2.1,0.9c-0.4,0-0.9,0.1-1.4,0.2h-0.6c-0.2,0-0.3,0.1-0.5,0.1h-0.5
		c-0.3,0-0.4,0.2-0.4,0.6l0.1,0.3c0,0.1,0,0.2,0.1,0.2c0,0.1,0.9,0.1,2.8,0.1c0.8,0,1.8,0,3.2-0.1h2.4c1.2,0,2.7,0,4.7,0.1
		c1.9,0,3,0.1,3.3,0.1h0.4l0.2-0.1c0.1,0,0.2-0.1,0.2-0.2v-0.3l0.1-0.2c0-0.2-0.1-0.3-0.3-0.4l-0.2-0.1h-0.2l-1-0.1l-1.1-0.1
		c-0.3-0.1-0.6-0.2-0.9-0.3c-0.3-0.2-0.5-0.3-0.6-0.4c-0.4-0.8-0.7-3.2-0.7-7.2l0.1-8.1c0.2-3.9,0.5-6.1,1.1-6.7
		c0.2-0.2,0.8-0.4,1.8-0.5c0.3,0,0.7-0.1,1.1-0.1H298.4z M265,59.6c-0.1-1.6-0.3-2.7-0.6-3.3c-0.5-0.5-1.7-0.7-3.6-0.7
		c-0.5,0-0.9-0.3-1-1c0-0.3,0.1-0.5,0.4-0.7c0.1,0,0.5,0,1.2,0.1h1l1.1,0.1c2,0.1,3.2,0.1,3.6,0.1c0.8,0,2.3,0,4.7-0.1
		c2.5,0,4-0.1,4.6-0.1c0.1,0.1,0.1,0.2,0.2,0.3c0.1,0.2,0.1,0.3,0.1,0.3c0,0.5-0.3,0.7-0.8,0.7h-0.9c-0.4,0-0.8,0-1.1,0.1
		c-1,0.1-1.6,0.2-1.8,0.5c-0.3,0.4-0.6,1.5-0.8,3.2c0,0.6-0.1,1.3-0.1,2.2c0,2.1,0,3.6,0.2,4.3l0.2,0.1l0.1,0.1
		c0.2,0.1,0.8,0.2,1.9,0.2c0.2,0,0.3,0,0.5-0.1l4.5,0.7h-0.1c1.1,0.1,2,0.4,2.8,0.8c3.3,2.2,3.7,5.3,1.2,9.2c-1,1.4-2.7,2.6-5.1,3.5
		c-1.1,0.2-2,0.3-2.8,0.3c-0.7,0-2.2-0.1-4.4-0.4c-2.2-0.2-3.7-0.3-4.5-0.3c-1.2,0-2.7,0.1-4.4,0.4c0-0.1,0-0.2-0.1-0.3l-0.1-0.2
		l-0.1-0.2l-0.1-0.1c0-0.4,0.2-0.6,0.7-0.6h0.4c0.2,0,0.4-0.1,0.7-0.1h0.4l0.5-0.1c0.7-0.1,1.1-0.3,1.2-0.7c0.2-0.8,0.3-5.5,0.3-14
		C265.1,62.6,265.1,61.2,265,59.6z M273,68.2c-0.9,0.1-1.5,0.2-1.7,0.3v2.8c0.2,2.2,0.3,3.7,0.5,4.5c0.6,0.6,1.7,0.9,3.5,0.9
		c1.7,0,2.9-1,3.3-2.9C278.7,70.2,276.9,68.3,273,68.2z M257.7,80.3c-2-0.1-3.7-0.1-4.9-0.1c-1,0-2.8,0-5.2,0.1
		c-2.5,0-3.8,0.1-4,0.1c-0.3,0-0.6,0-0.7-0.1c-0.1,0-0.2-0.1-0.2-0.3l-0.1-0.2v-0.2c0-0.2,0.4-0.4,1.1-0.5c0.3,0,0.6,0,0.9-0.1
		l0.3-0.1h0.3c0.6-0.1,1-0.3,1.1-0.7c0.4-0.7,0.7-2.9,0.9-6.7l0.1-2.7c-0.3-0.1-2.1-0.2-5.2-0.2l-3.2,0.2c-2.5,0.1-3.9,0.2-4.4,0.3
		l-0.2,1.9c0,4.1,0.2,6.5,0.6,7.1c0.2,0.4,0.5,0.6,1,0.7l1.9,0.2c0.1,0,0.2,0,0.3,0.1c0.2,0.1,0.2,0.2,0.2,0.3v0.4
		c0,0.2-0.1,0.4-0.2,0.4h-0.5c-0.3,0-1.6,0-4-0.1c-2.3,0-4-0.1-5-0.1c-1.1,0-2.8,0-5,0.1v-0.7c0-0.4,0.3-0.6,1-0.6s1.3-0.1,1.8-0.2
		c0.7-0.2,1.1-0.5,1.2-0.9c0.2-0.6,0.5-3.2,0.7-7.8c0.2-4.6,0.3-7.6,0.3-9.2c0-1.6-0.4-2.9-1.1-3.9c-0.5-0.5-1.4-0.7-2.7-0.7
		c-0.5,0-0.7-0.2-0.7-0.6c0-0.2,0.1-0.3,0.2-0.5c0.2,0,1.1,0,2.9,0.1c0.8,0,1.5,0.1,1.9,0.1h1.2c0.8,0,2.3,0,4.5-0.1
		c2.1,0,3.4-0.1,3.9-0.1c0,0,0.1,0,0.2,0.1c0,0,0.1,0.2,0.1,0.6v0.2l-0.1,0.2c0,0-0.1,0.1-0.2,0.1h-1l-0.8,0.1
		c-0.6,0.1-1,0.2-1.2,0.5c-0.4,0.5-0.7,2.1-1,5c-0.2,2.5-0.2,3.9-0.2,4.1c0.3,0.2,1.6,0.3,3.9,0.3c2.2,0,3.8,0,4.7-0.1
		c2.5,0,3.8-0.1,4.1-0.3c0.1-0.5,0.1-2-0.1-4.8c-0.2-2.4-0.5-3.8-0.9-4.3c-0.2-0.2-0.6-0.3-1.1-0.4l-0.6-0.1h-0.9
		c-0.5,0-0.7-0.3-0.7-0.9c0-0.2,0-0.3,0.1-0.3c0-0.1,0.1-0.1,0.1-0.2l0.1-0.1c0.6,0,1.9,0.1,3.9,0.1c2.1,0.1,3.5,0.1,4.1,0.1
		c0.4,0,1.5,0,3.2-0.1h1c0.4,0,0.7,0,0.9-0.1h1c0.1,0.1,0.2,0.2,0.2,0.3v0.2l-0.1,0.1c0,0.5-0.2,0.7-0.7,0.7c-1.2,0-2.1,0.2-2.6,0.6
		c-0.5,0.5-0.8,2-0.9,4.6c0,10.4,0.1,15.8,0.3,16.3c0.1,0.4,0.5,0.7,1.2,0.9c0.3,0.1,0.6,0.1,1,0.2l0.5,0.1h0.5l0.3,0.1l0.2,0.1
		c0.2,0.1,0.3,0.2,0.3,0.4V80.3z M225.4,72.5c-0.7,0.5-1.5,1.1-2.5,1.9l-1.2,1l-1.3,1l-1,0.7l-1,0.8c-0.8,0.6-1.5,1.1-2,1.6
		c-0.8,0.8-2.1,1.2-3.9,1.2c-3.5,0-6.4-0.9-8.6-2.8c-2.3-2-3.5-4.6-3.5-8v-0.6c0.1-2.1,0.8-4,2.2-5.8c1-1.2,2.5-2.6,4.6-4.1l0.5-0.4
		c3.7-2.5,6.7-3.8,9-3.8h0.3c0.8,0,1.7,0.2,2.8,0.6l1.3,0.5c0.5,0.2,0.9,0.3,1.3,0.3l-0.6,1.1l-0.6,1.1l-1.1,2.2
		c-0.8,1.7-1.5,3.3-2.1,5l-0.2,0.1c-0.1,0-0.2,0-0.2-0.1c-0.1-0.1-0.2-0.1-0.2-0.2c0.1-0.3,0.2-0.8,0.2-1.3c0-1.2-0.4-2.1-1.2-2.7
		c-1.1-1.1-3-1.7-5.6-1.7c-0.3,0-0.9,0-1.8,0.1c-0.9,0.1-1.4,0.3-1.6,0.7c-0.8,1.1-1.1,2.8-1.1,5c0,2.9,1.3,5.2,3.9,6.7
		c2.2,1.3,5.2,1.9,8.8,1.9c1.1,0,2.2-0.2,3.4-0.7c0.9-0.4,1.7-0.9,2.5-1.4c0,0,0.1-0.1,0.2-0.1l0.2,0.1l0.1,0.1L225.4,72.5
		L225.4,72.5z M198.6,57.8l-1.9,4.1l-2,4.2c-1.5,3.1-3,5.9-4.4,8.4c-3.6,6.2-7.6,11.5-11.9,15.8c-4.3,4.2-8.7,7.6-13.4,10.1
		c-0.3-0.3-0.6-1-1.1-2c-0.5-1-0.8-1.7-0.8-2.2l1.2-0.5l1.2-0.5c1-0.4,1.7-0.7,2.2-0.9c1.6-0.7,2.9-1.4,4.1-2.2
		c2.8-1.8,6.2-4.9,10.1-9.3c-1.1-1.6-1.9-2.9-2.5-3.9c-1-1.6-1.9-3.2-2.7-4.8c-2-4.1-3.9-8.8-5.6-14.2c-0.1-0.3-0.3-0.4-0.7-0.5
		l-0.6-0.1h-1.3c-0.2,0-0.3-0.1-0.3-0.4c0-0.2,0.1-0.3,0.2-0.3c4.2-1.1,7.5-2.4,9.8-3.7c0.2,1.2,0.5,2.5,0.9,3.9
		c0.5,1.9,1,3.7,1.6,5.4c1.7,4.8,3.7,8.5,5.9,11.3c1.1-1.9,2-4.3,2.7-7.3c0.3-1.1,0.5-2.6,0.9-4.3l0.4-2.3l0.5-2.3l0.1-0.3v-0.3
		c0-1.1-0.5-1.6-1.4-1.6H189c-0.2,0-0.4,0.1-0.7,0.1c-0.2,0-0.3-0.2-0.3-0.5c0-0.1,0-0.2,0.1-0.3c0-0.1,0.1-0.1,0.2-0.1
		c6.1-0.8,9.4-1.2,9.7-1.2c0.5,0,0.9,0,1.1,0.1c0.3,0.1,0.5,0.3,0.5,0.6c0,0.2-0.1,0.4-0.2,0.6L198.6,57.8z M170.3,77.7
		c-0.9,0.3-1.8,0.8-2.8,1.5l-0.6,0.5l-0.7,0.5c-0.5,0.3-1.1,0.6-1.8,0.9c-0.4,0.1-0.7,0.1-0.9,0.1c-1.1,0-2-0.4-2.6-1.2
		c-0.8-1-1.7-2-2.7-3l-1.1-1.3l-1.1-1.2c-1.9-2.1-3.7-4.3-5.7-6.6v6.7c0,0.4,0,0.7,0.1,1.1c0,0.5,0.1,0.9,0.2,1.2
		c0.3,0.9,0.8,1.6,1.5,1.8c0.2,0,0.4,0.1,0.6,0.1h0.7c0.2,0,0.5,0,1-0.1h0.7c0,0.1,0,0.2-0.1,0.3l-11.9,1.8
		c0.5-8.9,0.7-16.4,0.6-22.3c0-1.1-0.5-1.6-1.2-1.6c-0.2,0-0.6,0.1-1.3,0.2l-1.6,0.6v-0.6c6.5-1.7,10.6-3.2,12.3-4.5
		c0.1,0.1,0.2,0.2,0.2,0.3c-0.6,0.4-1,1.2-1.2,2.3c-0.5,3.3-0.7,7-0.7,11.2c3-1.9,5.7-4,8.1-6.2c0.3-0.3,0.5-0.7,0.5-1
		c0-0.4-0.3-0.9-1-1.4l-0.9-0.6l-0.8-0.6c-0.3-0.2-0.4-0.4-0.4-0.5c0-0.1,0.1-0.1,0.2-0.1c0.2,0,0.4,0.1,0.6,0.2
		c0.8,0.3,1.8,0.5,3,0.7c1.5,0.3,2.7,0.4,3.7,0.4h0.2c1.1,0,2-0.2,2.9-0.4l0.5-0.2l0.4-0.1c0.3-0.1,0.5-0.1,0.6-0.2
		c0.1,0,0.3,0,0.5,0.1c0.2,0.1,0.3,0.2,0.3,0.2c-0.2,0.2-2.1,1.5-6,4.1l-1.1,0.8l-1.1,0.7c-0.8,0.5-1.4,1-1.9,1.3
		c-1.3,0.9-2.1,1.5-2.3,1.6c0.7,0.7,1.6,1.6,2.6,2.8l1.2,1.4l1.2,1.2c1.9,2,4.1,3.9,6.6,5.6c0.7,0.4,1.3,0.6,1.7,0.6
		c0.2,0,0.4,0,0.8-0.1V77.7z"/>
	<path class="st1" d="M253.9,126.9c-5.6,2-9.3,3.7-11,5c-0.1-0.2-0.2-0.3-0.4-0.4c0-0.3,0-0.6-0.1-1.1l0.2-4.7
		c-3.3,2.8-6.2,4.6-9,5.4c-1.4,0.4-2.8,0.6-4.1,0.6c-0.6,0-1.1-0.1-1.5-0.2c-1.6-0.5-2.7-1.2-3.4-2c-0.9-1.1-1.3-2.9-1.3-5.2v-0.7
		l0.1-0.8c0.3-4.7,0.4-8.4,0.4-11.3v-1c0-0.4-0.1-0.8-0.1-1c-0.2-0.8-0.5-1.1-1-1.1h-0.7c-0.5,0-0.9,0-1.2,0.1v-0.2l-0.1-0.1V108
		l0.1-0.2c1.9-0.1,3.8-0.3,5.7-0.6c1.5-0.3,2.8-0.5,4-0.9l0.6-0.1c0.2,0,0.3,0.1,0.3,0.2v0.2c0,0.1-0.1,0.2-0.1,0.3
		c0,0.6,0,1.4-0.1,2.4l-0.1,1.4l-0.1,1.4c-0.2,2.6-0.3,4.6-0.3,6c0,3.2,0.4,5.3,1.3,6.4c1.2,1.4,2.6,2.2,4.1,2.2
		c0.4,0,0.9-0.1,1.6-0.2c0.7-0.2,1.4-0.4,2.1-0.6c1.7-0.6,2.7-1.4,2.9-2.2c0.1-3.2,0.1-6,0.1-8.4v-2.4c0-1.3-0.1-2.3-0.3-3
		c-0.3-1-0.8-1.5-1.5-1.5h-0.4l-0.3-0.1h-0.4c-0.6,0-1,0-1-0.1v-0.4l11.3-1.5c-0.5,4.2-0.7,8.9-0.7,14.1c0,1.1,0,2.9,0.1,5.3
		c0,1.1,0.5,1.6,1.2,1.6c0.3,0,0.6-0.1,1.1-0.2l0.5-0.1l0.5-0.1c0.3-0.1,0.7-0.2,1-0.3V126.9z M201.8,106.7c-0.3,0-0.5,0.1-0.7,0.2
		c-0.7,0.2-1.1,0.5-1.2,0.9c-0.2,0.5-0.3,5.9-0.3,16.3c0.1,1.4,0.2,2.4,0.3,3.2c0.8,0.1,2.4,0.2,5,0.2c3.1,0.1,4.8,0.1,5.2,0
		l-0.1-13.4c-0.2-3.8-0.5-6.1-0.9-6.8c-0.1-0.4-0.5-0.6-1.1-0.7h-0.3l-0.3-0.1c-0.3,0-0.6-0.1-0.9-0.1c-0.7-0.1-1.1-0.3-1.1-0.5
		v-0.2l0.1-0.2c0-0.2,0.1-0.2,0.2-0.3c0.1,0,0.3-0.1,0.7-0.1c0.2,0,1.6,0,4,0.1c2.5,0,4.2,0.1,5.2,0.1c1.2,0,2.8,0,4.9-0.1v0.7
		c0,0.2-0.2,0.3-0.3,0.4l-0.2,0.1l-0.3,0.1H219l-0.5,0.1c-0.4,0-0.7,0.1-1,0.2c-0.7,0.2-1.1,0.5-1.2,0.9c-0.2,0.5-0.3,5.9-0.3,16.3
		c0.1,2.6,0.4,4.1,0.9,4.6c0.5,0.4,1.4,0.6,2.6,0.6c0.5,0,0.7,0.2,0.7,0.7l0.1,0.1v0.2c0,0.1-0.1,0.2-0.2,0.3h-1
		c-0.2,0-0.5-0.1-0.9-0.1h-1c-1.8-0.1-2.9-0.1-3.2-0.1h-36.5c-0.4,0-1,0.1-1.9,0.1c-1.8,0-2.7,0.1-2.9,0.1c-0.1-0.2-0.2-0.3-0.2-0.5
		c0-0.4,0.2-0.6,0.7-0.6c1.2,0,2.1-0.2,2.7-0.7c0.8-1.1,1.1-2.4,1.1-3.9c0-1.6-0.1-4.6-0.3-9.2c-0.2-4.6-0.5-7.2-0.7-7.8
		c-0.2-0.4-0.6-0.7-1.2-0.9c-0.5-0.2-1.1-0.2-1.8-0.2s-1-0.2-1-0.6v-0.7c2.2,0.1,3.9,0.1,5,0.1c1.1,0,2.7,0,5-0.1
		c2.3,0,3.7-0.1,4-0.1h0.5c0.1,0,0.1,0.2,0.2,0.4v0.4c0,0.2-0.1,0.3-0.2,0.3c-0.1,0.1-0.2,0.1-0.3,0.1l-1.9,0.2
		c-0.4,0.1-0.7,0.3-1,0.7c-0.4,0.6-0.6,3-0.6,7.1l0.2,12.6c0.5,0.1,2.2,0.2,5.4,0.3c2.5,0.1,4.2,0.1,4.9,0.1c0.1-0.3,0.2-0.6,0.3-1
		l-0.1-9.1c0-0.6,0-1.2-0.1-1.8c-0.2-4.6-0.5-7.2-0.7-7.8c-0.2-0.4-0.6-0.7-1.2-0.9c-0.5-0.2-1.1-0.2-1.8-0.2s-1-0.2-1-0.6v-0.7h1.1
		c0.2,0,1.6,0,4,0.1c0.9,0,1.8,0,2.5,0.1c0.7,0,1.5-0.1,2.4-0.1c2.3,0,3.7-0.1,4-0.1h1.2v0.7c0,0.2-0.2,0.3-0.3,0.4l-0.2,0.1
		l-0.3,0.1h-0.3L201.8,106.7z M170.6,108.1l-1.9,4.1l-2,4.2c-1.5,3.1-3,5.9-4.4,8.4c-3.6,6.2-7.6,11.5-11.9,15.8
		c-4.3,4.2-8.7,7.6-13.4,10.1c-0.3-0.3-0.6-1-1.1-2c-0.5-1-0.8-1.7-0.8-2.2l1.2-0.5l1.2-0.5c1-0.4,1.7-0.7,2.2-0.9
		c1.6-0.7,2.9-1.4,4.1-2.2c2.8-1.8,6.2-4.9,10.1-9.3c-1.1-1.6-1.9-2.9-2.5-3.9c-1-1.6-1.9-3.2-2.7-4.8c-2-4.1-3.9-8.8-5.6-14.2
		c-0.1-0.3-0.3-0.4-0.7-0.5l-0.6-0.1h-1.3c-0.2,0-0.3-0.1-0.3-0.4c0-0.2,0.1-0.3,0.2-0.3c4.2-1.1,7.5-2.4,9.8-3.7
		c0.2,1.2,0.5,2.5,0.9,3.9c0.5,1.9,1,3.7,1.6,5.4c1.7,4.8,3.7,8.5,5.9,11.3c1.1-1.9,2-4.3,2.7-7.3c0.3-1.1,0.5-2.6,0.9-4.3l0.4-2.3
		l0.5-2.3l0.1-0.3v-0.3c0-1.1-0.5-1.6-1.4-1.6H161c-0.2,0-0.4,0.1-0.7,0.1c-0.2,0-0.3-0.2-0.3-0.5c0-0.1,0-0.2,0.1-0.3
		c0-0.1,0.1-0.1,0.2-0.1c6.1-0.8,9.4-1.2,9.7-1.2c0.5,0,0.9,0,1.1,0.1c0.3,0.1,0.5,0.3,0.5,0.6c0,0.2-0.1,0.4-0.2,0.6L170.6,108.1z"
		/>
	<path class="st2" d="M321,170.2v-0.4c0-0.3,0-0.8,0-1.5c0-0.7,0-1.3,0-1.6l0-0.5v-0.5c-1.1-1.4-2.6-2.2-4.5-2.2
		c-1,0-1.8,0.3-2.4,0.9c-0.6,0.6-0.9,1.3-0.9,2.1v0.1c0,1.4,0.7,2.5,2.2,3.4c1.3,0.8,2.6,1.1,4.1,1.1h0.2c0.6,0,1.1-0.2,1.4-0.6
		L321,170.2z M320.8,174.5c0-0.9,0.1-2.1,0.1-3.5c-0.2,0.1-0.4,0.2-0.6,0.4c-0.3,0.2-0.6,0.4-0.9,0.6c-0.9,0.5-1.8,1.1-2.7,1.5
		c-0.5,0.2-0.9,0.4-1.2,0.4h-0.3c-1.1,0-2.2-0.5-3.3-1.4c-1.1-1-1.7-2-1.7-3.2v-0.2c0.1-1.2,0.6-2.4,1.4-3.5c0.8-1,1.7-1.7,2.8-2.2
		c0.2-0.1,0.5-0.2,0.8-0.4l0.7-0.4c0.6-0.3,1.1-0.5,1.3-0.7c0.9-0.4,1.8-0.7,2.6-0.7c0.4,0,0.8,0.1,1.4,0.2v-1.8
		c0-0.9,0-2.4-0.1-4.5c-0.1-0.5-0.3-0.8-0.7-0.8c-0.2,0-0.4,0-0.6,0.1c0,0-0.1,0-0.3,0.1c-0.2,0.1-0.4,0.1-0.5,0.1
		c-0.1,0-0.1,0-0.1,0v-0.1c2.4-0.6,4.5-1.5,6.2-2.6v0.3c-0.3,0.2-0.5,0.5-0.5,1.1c-0.1,0.6-0.2,1.3-0.2,2c-0.1,1-0.2,2-0.3,3.1
		c-0.2,2.8-0.3,5.5-0.3,8.2c0,1.6,0,3.2,0.1,4.5c0,0.7,0.3,1.1,0.9,1.2c0.1,0,0.2,0,0.4,0c0.1,0,0.3,0,0.6-0.1c0.2,0,0.4,0,0.4,0
		c0.1,0,0.1,0,0.1,0c0,0.1,0,0.1,0,0.2L320.8,174.5z M310.4,173.2c-0.8,0.1-1.7,0.2-2.6,0.3c-0.7,0.1-1.4,0.2-2,0.4l-0.3,0.1l-0.1,0
		l-0.1,0.1c-0.1,0-0.1,0-0.1,0c0,0-0.1,0-0.1-0.1v-0.2c0-0.3,0-0.7,0.1-1.1l0-0.6l0-0.7c0.1-1.1,0.1-2,0.1-2.6
		c0-1.7-0.2-2.9-0.7-3.4c-0.6-0.7-1.2-1.1-2-1.1c-0.6,0-1.3,0.3-2.2,0.9c0,0.4,0,0.7,0.1,0.9c0,0.2,0,0.3,0,0.6v0.6c0,0.5,0,1.1,0,2
		l-0.1,1v1.6c0,0.2,0,0.3,0,0.5c0,0.2,0,0.4,0.1,0.5c0.1,0.4,0.3,0.6,0.5,0.6h0.3l0.3,0c0.2,0,0.3,0,0.3,0c0,0.1,0,0.2,0,0.3
		c-0.4,0-0.9,0-1.5,0h-1.4c-1,0-1.7,0.1-2.1,0.1l-0.1,0l-0.1,0c-0.1,0-0.1,0-0.1,0c0,0-0.1,0-0.1-0.1c0,0-0.1-0.1-0.1-0.1l0.1-0.7
		c0-0.4,0.1-0.7,0.1-1l0.1-1.1c0.1-0.8,0.1-1.6,0.1-2.2c0-1.7-0.2-2.9-0.6-3.7c-0.3-0.6-1.1-0.9-2.4-0.9c-0.5,0-1,0.2-1.6,0.7
		c-0.1,0.8-0.1,1.9-0.1,3.1c0,0.5,0,1,0,1.5v1.4c0,0.6,0,1.1,0.1,1.5c0.1,0.5,0.4,0.8,0.7,0.8h0.2c0.1,0,0.2,0,0.3,0h0.5
		c0,0,0,0,0,0.1s0,0.1,0,0.2l-5.6,0.7c0.2-1.9,0.3-4.1,0.3-6.6v-1.3c0-0.5,0-1-0.1-1.4c0-0.5-0.2-0.8-0.6-0.8c-0.2,0-0.4,0-0.6,0.1
		c-0.1,0-0.3,0.1-0.4,0.1l-0.2,0.1c-0.1,0-0.2,0.1-0.3,0.1v-0.3c3.1-1.1,5.1-1.9,6-2.5c0.1,0.1,0.1,0.1,0.1,0.2
		c-0.1,0.2-0.2,0.6-0.3,1.2c0,0.1,0,0.1,0,0.3l-0.1,0.3c0,0.3-0.1,0.6-0.1,0.8l0.6-0.4l0.6-0.5c0.5-0.4,1-0.7,1.3-0.9
		c1-0.7,1.8-1,2.3-1h0.5l0.5,0.1c0.4,0.1,0.7,0.2,0.9,0.4c0.7,0.6,1.1,1.5,1.2,2.7c0.9-0.9,2.1-1.7,3.6-2.5c0.6-0.3,1.2-0.5,1.8-0.5
		c0.2,0,0.5,0,0.6,0.1c0.8,0.3,1.4,0.7,1.7,1.1c0.4,0.6,0.7,1.5,0.7,2.7v0.6c0,0.4,0,0.8-0.1,1.2v0.9c0,0.2,0,1.3,0.1,3.1v0.5
		c0,0.2,0,0.4,0.1,0.5c0.1,0.4,0.2,0.6,0.5,0.6h0.2l0.3,0c0.2,0,0.4-0.1,0.5-0.1C310.4,172.9,310.4,173,310.4,173.2
		C310.4,173.1,310.4,173.2,310.4,173.2z M285.5,172c-0.1,0.2-0.3,0.4-0.5,0.6l-0.6,0.6c-0.5,0.5-0.9,1-1.1,1.3
		c-0.6-0.4-1.2-0.7-1.6-1c-0.6-0.4-1-0.7-1.2-1c0.2-0.3,0.6-0.7,1-1.2c0.5-0.5,0.9-0.9,1.2-1.2c0.3,0.2,0.8,0.6,1.4,0.9
		C284.7,171.5,285.1,171.8,285.5,172z M218.7,169.9c-0.2,0.4-0.4,0.7-0.6,1.1l-0.2,0.2l-0.1,0.2c-0.1,0.2-0.3,0.4-0.4,0.6
		c-0.6,1-1.3,1.6-2.2,2c-0.6,0.2-1.7,0.3-3.2,0.4c-0.7,0-1.4-0.1-2.2-0.3c-0.7-0.2-1.2-0.3-1.6-0.5c0.2-0.2,0.5-0.5,0.7-1
		c0.2-0.4,0.3-0.8,0.5-1.4c0.3-1.3,0.5-1.9,0.6-1.9c0,0,0.1,0,0.1,0c0,0,0.1,0,0.1,0.1c-0.1,0.3-0.2,0.5-0.2,0.7
		c0,0.2,0.1,0.5,0.3,0.6c0.6,0.5,1.3,0.9,2.2,1.1c0.7,0.2,1.5,0.3,2.2,0.3c0.5,0,1-0.1,1.4-0.2c0.1,0,0.2-0.1,0.3-0.2
		c0.1-0.1,0.1-0.2,0.2-0.3v-0.1c0-0.5-0.4-1-1.2-1.4c-0.3-0.2-0.6-0.3-1-0.5c-0.2-0.1-0.3-0.1-0.5-0.2l-0.2-0.1l-0.2-0.1l-0.1-0.1
		l-0.1-0.1l-0.6-0.2l-0.7-0.2c-0.5-0.2-1-0.4-1.3-0.5c-1-0.5-1.5-1.1-1.5-1.8c0-0.6,0.3-1.1,0.8-1.6c0.2-0.2,0.4-0.4,0.8-0.6
		l0.4-0.3l0.4-0.3c1.1-0.9,2.7-1.6,4.7-2c0.1,0,0.2,0,0.3,0h0.3c0.2,0,0.6,0,1.3,0.1c0.2,0,0.3,0.1,0.3,0.3v0.1l0,0.1
		c-0.4,1.1-0.7,2.2-1,3.2c-0.3-0.4-0.6-0.6-0.7-0.7c-0.8-0.8-1.7-1.1-2.8-1.1c-0.5,0-0.9,0.1-1.2,0.3c-0.3,0.2-0.4,0.5-0.4,0.8
		c0,0.4,0.3,0.7,0.8,1c0.9,0.4,1.8,0.7,2.6,1.1c0.2,0.1,0.6,0.3,1,0.5l0.5,0.2l0.5,0.2c0.9,0.4,1.4,0.9,1.4,1.4c0,0.2,0,0.4-0.1,0.7
		l-0.1,0.3L218.7,169.9z M278,153.9c0,0.2-0.1,0.3-0.4,0.3h-0.4c-0.2,0-0.4,0-0.6,0c-0.5,0-0.8,0.1-0.9,0.2
		c-0.3,0.3-0.4,1.4-0.5,3.4c0,0.7,0,1.6-0.1,2.7v5.6c0,1.1,0,2.1,0,2.9c0,2,0.2,3.2,0.4,3.6c0.1,0.1,0.2,0.1,0.3,0.2
		c0.2,0.1,0.3,0.1,0.5,0.2l0.5,0.1l0.5,0.1h0.1l0.1,0.1c0.1,0,0.1,0.1,0.1,0.2c0,0,0,0.1,0,0.1v0.1c0,0.1,0,0.1-0.1,0.1l-0.1,0h-0.2
		c-0.1,0-0.7,0-1.6,0c-1,0-1.8,0-2.3,0H272c-0.7,0-1.2,0-1.6,0c-0.9,0-1.4,0-1.4-0.1c0,0,0,0,0-0.1c0-0.1,0-0.1,0-0.2
		c0-0.2,0.1-0.3,0.2-0.3h0.2c0.1,0,0.1,0,0.2,0h0.3c0.3,0,0.5-0.1,0.7-0.1c0.6-0.1,1-0.2,1-0.4c0.1-0.3,0.2-1.5,0.3-3.6
		c0.1-2,0.1-4,0.1-6c0-2.9,0-4.8-0.1-5.8c-0.1-1.6-0.3-2.5-0.5-2.7c-0.1-0.1-0.4-0.2-0.7-0.2c-0.2,0-0.3,0-0.5-0.1H270
		c-0.4,0-0.6-0.1-0.6-0.3c0-0.1,0.1-0.2,0.2-0.3c0.1,0,0.3,0,0.6,0h0.5l0.5,0c1,0,1.6,0.1,1.8,0.1c0.4,0,1.2,0,2.5-0.1
		c1.2,0,2,0,2.3-0.1c0,0,0.1,0.1,0.1,0.1C277.9,153.8,278,153.9,278,153.9z M269,173.7c0,0.1,0,0.1,0,0.2c-1.7-0.1-2.7-0.1-3.1-0.1
		c-1.2,0-2.2,0-2.9,0c0-0.1,0-0.2,0-0.3v-0.3c0-0.1,0-0.3,0-0.6l0-0.4v-0.4c0-0.7,0.1-1.4,0.1-2.1v-0.6l0-0.6
		c-0.1-2.4-0.2-4.4-0.2-6c-0.1-2.2-0.2-3.9-0.4-4.9l-2.4,6c-1,2.5-1.9,4.7-2.7,6.5c-0.9,2.2-1.5,3.4-1.6,3.6h-0.3l-0.2,0
		c-0.3,0-0.5-0.1-0.7-0.4c-0.2-0.2-0.5-1-1-2.5l-0.2-0.5c-0.6-1.5-1.3-3.4-2.2-5.6c-1.1-3-2.2-5.4-3.1-7.4l0,1.3l-0.1,1.4
		c0,1.2,0,2.2-0.1,2.9c-0.1,2.3-0.1,4.1-0.1,5.4v3.4l0.1,0.3l0,0.3c0,0.2,0.1,0.3,0.1,0.3c0.1,0.2,0.3,0.3,0.4,0.3
		c0.6,0.2,1.1,0.2,1.6,0.2c0.2,0.1,0.3,0.1,0.3,0.2v0.3l-0.1,0.1l-1,0l-0.9,0c-0.7,0-1.2,0-1.6,0c-1.3,0-2.4,0-3.2,0.1v-0.1l0,0
		c0,0,0,0,0-0.1v-0.1c0-0.2,0.2-0.3,0.7-0.3c0.5-0.1,0.8-0.3,1-0.6c0.1-0.2,0.2-1.1,0.5-2.7c0.2-1.5,0.4-3.1,0.5-4.6
		c0.1-0.7,0.3-2.2,0.5-4.5c0.2-2.4,0.4-4,0.4-4.6c-0.1-0.7-0.2-1.1-0.3-1.4c-0.2-0.3-0.5-0.5-1-0.5c-0.2,0-0.4-0.1-0.5-0.1h-0.2
		l-0.1,0c-0.1,0-0.2-0.1-0.2-0.2v-0.1c0-0.1,0-0.1,0.1-0.2l0.1-0.1c0.2,0,0.5,0,0.7,0l0.6,0c0.5,0,0.9,0.1,1.3,0.1c1,0,2,0,2.9-0.1
		l0.2,0h0.1v0.5c0,0.1,0.3,1.2,1,3.1c0.6,1.7,1.4,3.8,2.3,6.1c0.4,1.1,0.9,2.2,1.4,3.3c0.2,0.4,0.3,0.8,0.6,1.3l0.3,0.6l0.3,0.6
		c0.2-0.4,0.4-0.8,0.6-1.4l0.3-0.7l0.3-0.8c0.6-1.3,1.1-2.5,1.5-3.5c1.7-4.2,2.7-7.2,3-9.1l0.8,0l0.8,0c0.6,0,1.1,0.1,1.5,0.1
		c0.5,0,1,0,1.5-0.1l0.1,0h1.2c0,0.1,0.1,0.2,0.1,0.3c0,0.2,0,0.2-0.1,0.3c-0.1,0-0.2,0-0.5,0h-0.4c-0.2,0-0.3,0-0.4,0.1
		c-0.3,0.1-0.5,0.2-0.7,0.4c-0.2,0.3-0.2,1.8-0.2,4.5c0,3.3,0.1,6.4,0.3,9.2c0.2,2.7,0.4,4.2,0.5,4.3c0.3,0.4,1,0.6,2,0.7
		c0.1,0,0.1,0,0.1,0.1V173.7z M239.7,157.4c0.5,0.4,0.7,0.7,0.7,1c0,0.5-0.5,1-1.4,1.6l-0.6,0.3l-0.6,0.4c-0.5,0.3-0.8,0.5-1,0.7
		c0,0-0.1,0-0.1-0.1l-0.1-0.1l0-0.1c0.1-0.2,0.2-0.6,0.4-1.2l0.2-0.7l0.2-0.7c0.4-1.1,0.8-1.6,1.4-1.6
		C239.1,157,239.4,157.1,239.7,157.4z M243.2,171.8c-0.7,0.3-1.4,0.6-2.1,1.1l-0.4,0.3c-0.2,0.1-0.3,0.2-0.5,0.3
		c-0.4,0.2-0.8,0.4-1.3,0.7c-0.2,0.1-0.5,0.2-0.7,0.2c-0.5,0-1-0.3-1.3-0.9c-0.3-0.5-0.4-1.1-0.4-1.8v-0.3c0.1-0.6,0.2-1.6,0.2-3.1
		c0-1.1,0-2.2-0.1-3.5c0-0.5-0.2-0.8-0.6-0.8c-0.1,0-0.2,0-0.3,0l-0.3,0.1c-0.2,0-0.3,0.1-0.4,0.1l-0.2,0.1c-0.1,0-0.2,0.1-0.3,0.1
		v-0.3c2.9-1,4.9-1.9,5.8-2.5c0,0.1,0.1,0.1,0.1,0.1c-0.1,0.3-0.2,0.7-0.3,1.2c-0.2,1.2-0.3,2.8-0.3,4.8c0,1.2,0,2.2,0.1,2.8
		c0,0.5,0.3,0.8,0.7,1c0.3,0.2,0.7,0.2,1.3,0.2c0.2,0,0.4,0,0.7,0c0.3,0,0.5,0,0.6,0c0,0,0.1,0,0.1,0.1
		C243.2,171.7,243.2,171.7,243.2,171.8C243.2,171.8,243.2,171.8,243.2,171.8z M234.9,173.1c-0.8,0.1-1.7,0.2-2.7,0.4
		c-0.3,0.1-0.7,0.1-1.1,0.2l-0.5,0.1c-0.2,0-0.3,0.1-0.4,0.1h-0.1l-0.1,0l-0.1,0l-0.1,0.1c-0.1,0-0.1,0-0.1,0
		c-0.1,0-0.1-0.1-0.1-0.2v-0.2c0-0.3,0-0.7,0.1-1.2l0.1-0.7l0.1-0.7c0.1-1.3,0.2-2.3,0.2-2.9c0-1.4-0.2-2.3-0.6-2.8
		c-0.6-0.7-1.4-1-2.3-1c-0.9,0-1.7,0.3-2.5,0.9l-0.3,0.3c-0.1,0.1-0.2,0.2-0.3,0.3c0,1.2,0,2.9,0.1,5.3c0,0.4,0.1,0.7,0.3,1
		c0.2,0.4,0.4,0.6,0.7,0.7h0.8c0.5,0,0.7,0,0.7,0v0.1l-5.7,1.3c0.2-4.4,0.3-8.8,0.3-13.3c0-2,0-3.9-0.1-5.7c0-0.6-0.2-0.9-0.6-0.9
		c-0.2,0-0.4,0-0.6,0.1c-0.2,0-0.5,0.1-0.8,0.3v-0.3c3.1-1,5.1-1.9,5.9-2.5c0.1,0,0.1,0.1,0.1,0.1l-0.1,0.1
		c-0.1,0.1-0.1,0.1-0.2,0.2c-0.2,0.2-0.3,0.5-0.3,0.8c-0.3,2-0.4,5.6-0.4,10.8v0.9c0.6-0.5,1.3-1,2.1-1.5c0.3-0.2,0.7-0.4,1.2-0.7
		l0.6-0.3l0.6-0.3c0.6-0.3,1.3-0.4,2-0.4c0.2,0,0.5,0,0.8,0.1c1.2,0.4,1.9,1.1,2.2,2c0.1,0.5,0.2,1,0.2,1.8c0,1,0,2-0.1,3.1
		c-0.1,1.1-0.1,2-0.1,2.7v0.5c0,0.2,0,0.4,0.1,0.5c0.1,0.4,0.2,0.6,0.5,0.6h0.2l0.3,0c0.2,0,0.4-0.1,0.5-0.1
		C234.9,173,234.9,173,234.9,173.1z M209,172c-2.8,1-4.6,1.8-5.5,2.5c-0.1-0.1-0.1-0.1-0.2-0.2c0-0.1,0-0.3,0-0.6l0.1-2.4
		c-1.6,1.4-3.1,2.3-4.5,2.7c-0.7,0.2-1.4,0.3-2,0.3c-0.3,0-0.5,0-0.7-0.1c-0.8-0.2-1.4-0.6-1.7-1c-0.4-0.6-0.7-1.4-0.7-2.6v-0.4
		l0-0.4c0.1-2.3,0.2-4.2,0.2-5.7v-0.5c0-0.2,0-0.4-0.1-0.5c-0.1-0.4-0.3-0.6-0.5-0.6h-0.4c-0.3,0-0.5,0-0.6,0.1v-0.1l0-0.1v-0.1
		l0-0.1c0.9,0,1.9-0.1,2.9-0.3c0.8-0.1,1.4-0.3,2-0.4l0.3-0.1c0.1,0,0.1,0,0.1,0.1v0.1c0,0.1,0,0.1,0,0.1c0,0.3,0,0.7-0.1,1.2
		l-0.1,0.7l-0.1,0.7c-0.1,1.3-0.1,2.3-0.1,3c0,1.6,0.2,2.7,0.7,3.2c0.6,0.7,1.3,1.1,2.1,1.1c0.2,0,0.5,0,0.8-0.1
		c0.4-0.1,0.7-0.2,1-0.3c0.9-0.3,1.4-0.7,1.4-1.1c0-1.6,0.1-3,0.1-4.2v-1.2c0-0.7,0-1.2-0.1-1.5c-0.2-0.5-0.4-0.7-0.8-0.8h-0.2
		l-0.2,0H202c-0.3,0-0.5,0-0.5,0v-0.2l5.7-0.7c-0.2,2.1-0.3,4.4-0.3,7c0,0.6,0,1.5,0.1,2.7c0,0.5,0.2,0.8,0.6,0.8
		c0.1,0,0.3,0,0.5-0.1l0.2-0.1l0.2-0.1c0.2,0,0.3-0.1,0.5-0.1V172z M191.7,167.7c0,2.1-1,3.8-3.1,5c-1.7,0.9-3.6,1.4-5.8,1.4
		c-1.5,0-2.9-0.1-4.1-0.2c-0.2,0-0.4,0-0.6-0.1l-0.3,0l-0.2,0c-0.3,0-0.5-0.1-0.6-0.1h-0.6c-0.3,0-0.5,0-0.7,0c0-0.5,0-1.5,0.1-2.9
		c0-1.1,0-2,0-2.8c0.1,0,0.2,0,0.4,0c0.2,0,0.3,0,0.5,0c0.5,0,0.9,0,1.1,0.1v1.2c0,0.4,0,0.8,0,1.1c0,0.5,0.1,0.9,0.1,1.2
		c0.1,0.1,0.2,0.1,0.3,0.2c0.1,0.1,0.3,0.1,0.4,0.2c0.3,0.2,0.7,0.3,1.1,0.5c1,0.3,2.1,0.5,3.3,0.5c3.1,0,4.7-1.4,4.7-4.1
		c0-1.2-0.5-2.2-1.5-2.9c-0.7-0.5-1.8-0.9-3.3-1.2c-0.3-0.1-0.6-0.1-0.9-0.2c-0.4-0.1-0.8-0.2-1.1-0.3c-3.6-0.9-5.4-2.8-5.4-5.6
		c0-2.1,0.9-3.6,2.7-4.5c1.4-0.7,3.3-1,5.7-1c1.2,0,2.3,0,3.4,0.1c0.2,0,0.4,0,0.6,0c0.1,0,0.3,0,0.4,0.1c0.3,0,0.5,0.1,0.5,0.1
		c0.1,0,0.4,0,0.8,0l0.5,0l0.6,0c-0.3,1.6-0.5,3.4-0.5,5.3c-0.6,0.1-1,0.1-1.1,0.1c-0.1,0-0.2,0-0.3,0l-0.2,0c0-1.5-0.1-2.7-0.2-3.7
		c-0.2-0.1-0.4-0.2-0.7-0.3c-0.3-0.1-0.7-0.2-1-0.3c-1-0.2-1.9-0.4-2.9-0.4c-1.3,0-2.4,0.2-3.1,0.7c-1,0.6-1.5,1.6-1.5,2.9
		c0,0.9,0.3,1.6,1,2.2c0.5,0.4,1.2,0.8,2.2,1.1c0.2,0.1,0.4,0.2,0.7,0.2l0.3,0.1l0.3,0.1c0.2,0.1,0.5,0.1,0.9,0.2l0.6,0.1l0.6,0.1
		c1.1,0.2,2,0.5,2.6,0.9C190.6,164.1,191.7,165.7,191.7,167.7z M164.9,173.2c-0.8,0.1-1.7,0.2-2.6,0.3c-0.7,0.1-1.4,0.2-2,0.4
		l-0.3,0.1l-0.1,0l-0.1,0.1c-0.1,0-0.1,0-0.1,0c0,0-0.1,0-0.1-0.1v-0.2c0-0.3,0-0.7,0.1-1.1l0-0.6l0-0.7c0.1-1.1,0.1-2,0.1-2.6
		c0-1.7-0.2-2.9-0.7-3.4c-0.6-0.7-1.2-1.1-2-1.1c-0.6,0-1.3,0.3-2.2,0.9c0,0.4,0,0.7,0.1,0.9c0,0.2,0,0.3,0,0.6v0.6c0,0.5,0,1.1,0,2
		l-0.1,1v1.6c0,0.2,0,0.3,0,0.5c0,0.2,0,0.4,0.1,0.5c0.1,0.4,0.3,0.6,0.5,0.6h0.3l0.3,0c0.2,0,0.3,0,0.3,0c0,0.1,0,0.2,0,0.3
		c-0.4,0-0.9,0-1.5,0h-1.4c-1,0-1.7,0.1-2.1,0.1l-0.1,0l-0.1,0c-0.1,0-0.1,0-0.1,0c0,0-0.1,0-0.1-0.1c0,0-0.1-0.1-0.1-0.1l0.1-0.7
		c0-0.4,0.1-0.7,0.1-1l0.1-1.1c0.1-0.8,0.1-1.6,0.1-2.2c0-1.7-0.2-2.9-0.6-3.7c-0.3-0.6-1.1-0.9-2.4-0.9c-0.5,0-1,0.2-1.6,0.7
		c-0.1,0.8-0.1,1.9-0.1,3.1c0,0.5,0,1,0,1.5v1.4c0,0.6,0,1.1,0.1,1.5c0.1,0.5,0.4,0.8,0.7,0.8h0.2c0.1,0,0.2,0,0.3,0h0.5
		c0,0,0,0,0,0.1s0,0.1,0,0.2l-5.6,0.7c0.2-1.9,0.3-4.1,0.3-6.6v-1.3c0-0.5,0-1-0.1-1.4c0-0.5-0.2-0.8-0.6-0.8c-0.2,0-0.4,0-0.6,0.1
		c-0.1,0-0.3,0.1-0.4,0.1l-0.2,0.1c-0.1,0-0.2,0.1-0.3,0.1v-0.3c3.1-1.1,5.1-1.9,5.9-2.5c0.1,0.1,0.1,0.1,0.1,0.2
		c-0.1,0.2-0.2,0.6-0.3,1.2c0,0.1,0,0.1,0,0.3l-0.1,0.3c0,0.3-0.1,0.6-0.1,0.8l0.6-0.4l0.6-0.5c0.5-0.4,1-0.7,1.3-0.9
		c1-0.7,1.8-1,2.3-1h0.5l0.5,0.1c0.4,0.1,0.7,0.2,0.9,0.4c0.7,0.6,1.1,1.5,1.2,2.7c0.9-0.9,2.1-1.7,3.6-2.5c0.6-0.3,1.2-0.5,1.8-0.5
		c0.2,0,0.5,0,0.6,0.1c0.8,0.3,1.4,0.7,1.7,1.1c0.4,0.6,0.7,1.5,0.7,2.7v0.6c0,0.4,0,0.8-0.1,1.2v0.9c0,0.2,0,1.3,0.1,3.1v0.5
		c0,0.2,0,0.4,0.1,0.5c0.1,0.4,0.2,0.6,0.5,0.6h0.2l0.3,0c0.2,0,0.4-0.1,0.5-0.1C164.9,172.9,164.9,173,164.9,173.2
		C164.9,173.1,164.9,173.2,164.9,173.2z M137.7,170c0.3-0.6,0.4-1.3,0.4-1.9c0-1.2-0.4-2.3-1.3-3.1c-0.9-0.9-2.1-1.4-3.7-1.4
		c-0.2,0-0.4,0-0.8,0.1c-0.3,0-0.7,0.2-1,0.5c-0.3,0.3-0.6,0.6-0.7,0.9c-0.3,0.6-0.4,1.2-0.4,1.8c0,1.2,0.5,2.3,1.5,3.2
		c1,0.9,2.1,1.3,3.3,1.3h0.2C136.6,171.3,137.4,170.9,137.7,170z M141.6,165.6c0,0.6-0.1,1.2-0.3,1.8c-0.2,0.8-0.5,1.3-0.9,1.7
		c-1.1,0.9-1.7,1.5-1.9,1.7l-0.4,0.4c-1.1,1.1-2,1.8-2.6,2.2c-0.9,0.5-2,0.8-3.2,0.8h-0.3c-1.3,0-2.4-0.5-3.3-1.3
		c-1.1-1-1.7-2.2-1.7-3.8v-0.1c0-1.5,0.4-2.7,1.3-3.7c0.6-0.7,1.7-1.4,3.2-2.2c2.3-1.2,3.9-1.8,4.8-1.8h0.1l0.1,0
		C139.9,161.7,141.6,163.2,141.6,165.6z"/>
	<path class="st1" d="M139.8,80.3c-0.3,0.9-0.6,3-1,6.4c-0.4,3.4-0.6,5.9-0.6,7.5V99h-1.1l-0.9,0.1c-0.5,0-1.4-0.1-2.7-0.2
		c0-0.4,0-1.2,0.1-2.4V94c0-3.8-0.4-6.2-1.2-7.1c-0.1-0.1-0.3-0.2-0.5-0.3c-0.3-0.2-0.5-0.3-0.8-0.5c-0.9-0.4-1.8-0.8-2.9-1.2
		c-3.1-1.1-6.6-1.6-10.4-1.6c-6.1,0-10.8,1.4-14.2,4.3c-4.6,3.9-6.9,10.5-6.9,19.8c0,7.9,2.3,14.1,7,18.6c4,3.8,8.6,5.6,13.9,5.6
		c3.3,0,6.3-0.2,8.8-0.7c3.3-0.5,6-1.4,8.2-2.7c0.4-0.2,0.8-0.4,1.1-0.7c0.3-0.2,0.5-0.4,0.8-0.6c0.7-0.4,1.2-0.7,1.5-0.9l0.1-0.1
		h0.1c0.3,0,0.6,0.2,0.9,0.6c0.3,0.4,0.5,0.7,0.5,0.9c0,0.5-0.2,0.9-0.6,1.3c-0.8,0.8-1.5,1.5-2.4,2.1c-7.4,5.5-14.8,8.2-22.1,8.2
		c-8.9,0-15.8-2.7-21-8.2c-5.1-5.4-7.6-12.7-7.6-21.9c0-10.4,3.6-18.2,10.8-23.4c5.7-4.2,12.6-6.3,21-6.3c2.1,0,4,0.1,5.7,0.2
		c1.3,0.1,2.6,0.1,3.8,0.2c2.6,0.3,3.9,0.5,4,0.5h2.7c0.5,0,1.2,0,2-0.1H139.8z"/>
	<path class="st1" d="M139.8,80.3c-0.3,0.9-0.6,3-1,6.4c-0.4,3.4-0.6,5.9-0.6,7.5V99h-1.1l-0.9,0.1c-0.5,0-1.4-0.1-2.7-0.2
		c0-0.4,0-1.2,0.1-2.4V94c0-3.8-0.4-6.2-1.2-7.1c-0.1-0.1-0.3-0.2-0.5-0.3c-0.3-0.2-0.5-0.3-0.8-0.5c-0.9-0.4-1.8-0.8-2.9-1.2
		c-3.1-1.1-6.6-1.6-10.4-1.6c-6.1,0-10.8,1.4-14.2,4.3c-4.6,3.9-6.9,10.5-6.9,19.8c0,7.9,2.3,14.1,7,18.6c4,3.8,8.6,5.6,13.9,5.6
		c3.3,0,6.3-0.2,8.8-0.7c3.3-0.5,6-1.4,8.2-2.7c0.4-0.2,0.8-0.4,1.1-0.7c0.3-0.2,0.5-0.4,0.8-0.6c0.7-0.4,1.2-0.7,1.5-0.9l0.1-0.1
		h0.1c0.3,0,0.6,0.2,0.9,0.6c0.3,0.4,0.5,0.7,0.5,0.9c0,0.5-0.2,0.9-0.6,1.3c-0.8,0.8-1.5,1.5-2.4,2.1c-7.4,5.5-14.8,8.2-22.1,8.2
		c-8.9,0-15.8-2.7-21-8.2c-5.1-5.4-7.6-12.7-7.6-21.9c0-10.4,3.6-18.2,10.8-23.4c5.7-4.2,12.6-6.3,21-6.3c2.1,0,4,0.1,5.7,0.2
		c1.3,0.1,2.6,0.1,3.8,0.2c2.6,0.3,3.9,0.5,4,0.5h2.7c0.5,0,1.2,0,2-0.1H139.8z"/>
</g>
<g>
	<path class="st3" d="M82,7.3c-2.8,0.3-5.7,1.8-7.9,3.6c-4.6,3.8-6.5,10.1-7.7,15.7c-0.9,4.2-1.3,8.4-1.2,12.7
		c0,1.1,1.7,11.9,1.8,11.9l0.6-0.4c10.1-6.4,20.2-12.9,30.3-19.3c-1.2-3.7-5-5.8-8.4-7.8c-3.7-2.1-10.7-6-3.6-9.5
		c1.9-0.9,4.2-1,6.1-0.1c-0.9-2.3-2.5-4.4-4.6-5.7C85.7,7.4,83.8,7.1,82,7.3z"/>
	<path class="st4" d="M66.6,48.6c-0.9,1.3-0.9,3.1-0.3,4.6c0.6,1.5,1.6,2.8,2.7,4c0.3,0.4,0.6,0.7,1.1,0.8c0.4,0.1,0.8,0,1.1-0.2
		c1.5-0.6,2.9-1.5,4.3-2.4c7.5-4.9,15-9.7,22.4-14.6c1.7-1.1,3.5-2.3,4.2-4.2c0.7-1.8,0.1-3.9-1.3-5.2c-1.4-1.3-3.6-1.6-5.3-0.7
		L66.6,48.6z"/>
	<path class="st4" d="M97.2,11c-1.3-0.4-2.7-0.3-3.8,0.5c-0.7,0.5-1.2,1.2-1.6,2c-0.4,0.2-0.6,0.7-0.6,1.1c-0.4,2,0.6,4.2,2.3,5.3
		c1.2,0.7,2.7,0.9,4,0.5c1.6-0.5,2.4-1.6,3-3.1c0.3-0.8,0.5-1.7,0.3-2.6c-0.1-0.6-0.4-1.1-0.7-1.6C99.4,12.1,98.3,11.3,97.2,11z"/>
</g>
<g>
	<g>
		<path class="st4" d="M357.4,185.3c-1.1-1.4-1.9-3-2.3-4.6c-0.3-1.1-0.3-2.1-0.3-3.2l0-2.1c0.1-3.9-2.9-7.3-6.8-7.5
			c-4.1-0.3-7.6,3-7.7,7.1l0,2.3c0,1.1-0.1,2.2-0.4,3.2c-0.5,1.6-1.3,3.2-2.4,4.6c-0.2,0.2-0.4,0.4-0.5,0.6l0,2
			c0,0.8,4.7,1.5,10.5,1.6c5.8,0.1,10.5-0.5,10.5-1.3l0-2C357.8,185.7,357.6,185.5,357.4,185.3z"/>
	</g>
	<path class="st4" d="M370.2,167.9c-1.4-0.4-2.7-1.1-3.7-2c-0.7-0.6-1.2-1.3-1.7-2l-1-1.4c-1.8-2.6-5.3-3.5-8.1-1.9
		c-2.9,1.8-3.7,5.6-1.8,8.4l1,1.5c0.5,0.7,0.9,1.5,1.2,2.3c0.5,1.3,0.7,2.7,0.5,4.2c0,0.2,0,0.5-0.1,0.7l0.9,1.3
		c0.4,0.5,3.8-1.2,7.8-3.8c3.9-2.7,6.8-5.2,6.4-5.8l-0.9-1.3C370.7,168,370.5,167.9,370.2,167.9z"/>
	<path class="st3" d="M350.1,160.2L350.1,160.2c0.4,1.3,2.1,1.6,2.9,0.5l0,0c1.5-1.9,2.5-4.1,2.9-6.4l0.1-0.4
		c0.2-1.3-0.6-2.5-1.9-2.7l-1.7-0.3c-1.3-0.2-2.5,0.6-2.7,1.9l-0.1,0.4C349.2,155.5,349.4,157.9,350.1,160.2z"/>
	<path class="st3" d="M345.8,166.1L345.8,166.1c1.2-0.6,1.2-2.3,0-3l0,0c-2.1-1.1-4.4-1.8-6.8-1.8l-0.4,0c-1.3,0-2.4,1-2.4,2.3
		l0,1.7c0,1.3,1,2.4,2.3,2.4l0.4,0C341.3,167.8,343.6,167.2,345.8,166.1z"/>
	<path class="st3" d="M347.7,161.4L347.7,161.4c-0.7,0.5-0.9,1.6-0.4,2.3l1.4,1.9c0.5,0.7,1.6,0.9,2.3,0.4h0
		c0.7-0.5,0.9-1.6,0.4-2.3l-1.4-1.9C349.5,161,348.5,160.8,347.7,161.4z"/>
	<path class="st3" d="M341.5,168.9c0,0-4.8-0.5-8.3,5.5c-0.2,0.3,0,0.7,0.4,0.6l3-0.2l1.2,2c0.2,0.3,0.7,0.2,0.8-0.1
		C338.8,175,339.6,171.6,341.5,168.9z"/>
	<path class="st3" d="M355.8,158.8c0,0,0.9-4.7,7.7-6.3c0.3-0.1,0.6,0.2,0.5,0.6l-1,2.8l1.6,1.8c0.3,0.3,0,0.8-0.4,0.7
		C362.4,158,358.9,157.8,355.8,158.8z"/>
</g>
<g>
	<g>
		<path class="st5" d="M72.3,152.8c1.3-2.9,0.6-6.5,0.2-9.5c-0.5-4.1-1.1-8.1-1.9-12.1c-1.7-8.1-4.4-16-8.7-23.1
			c-0.6-1-2.2-0.1-1.6,1c3.9,6.6,6.5,13.9,8.2,21.4c0.8,3.7,1.5,7.5,1.9,11.3c0.4,2.9,1.4,7,0.3,10c-12.6-9.9-24.2-21.2-34.3-33.7
			c-0.8-0.9-2.1,0.4-1.3,1.3c8.3,10.2,17.6,19.7,27.6,28.2c-11.1-1.8-21.6-6-30.8-12.5c-1-0.7-1.9,0.9-0.9,1.6
			c5.3,3.7,11.2,6.8,17.3,9c2.9,1,5.8,1.9,8.7,2.6c1.5,0.4,3,0.7,4.5,0.9c0.7,0.1,1.5,0.3,2.2,0.4c0.7,0.1,1.3,0,1.9,0.4
			c0.4,0.3,0.7,0.6,1.1,0.9c0.9,0.7,1.9,1.5,2.8,2.2c1.4,1.1,2.7,2.1,4.1,3.2c2,1.5,4,2.9,6,4.3c1,0.7,2.1,1.4,3.1,2.1
			c0.5,0.3,1,0.7,1.5,1c0.2,0.1,1.4,1.1,1.5,1c-12.1,5-25.5,6.1-38.3,3.2c-1.2-0.3-1.7,1.5-0.5,1.8c6.1,1.4,12.5,1.9,18.7,1.6
			c6.3-0.4,12.5-1.7,18.5-3.9c0.5-0.2,1.1-0.4,1.6-0.6c0.4-0.2,1-0.5,1.5-0.5c1.1,0.1,2.4,1.1,3.2,1.8c0.7,0.5,1.3,1.1,1.9,1.6
			c1,0.8,2,1.5,3.1,2.2c0.3,0.2,0.7,0.4,1.1,0.4c0.6,0.1,1.1-0.2,1.4-0.7c1.1-1.6-1.6-2.4-2.7-3c-1.6-0.9-3.2-1.9-4.8-2.9
			c-3.2-2-6.3-4-9.4-6.1C78.3,157.2,75.3,155,72.3,152.8z"/>
	</g>
	<g>
		<g>
			<path class="st6" d="M44.2,173.8c4.4,1.1,8.7-0.7,12.7-2.6c0.7-0.3,0.3-1.4-0.4-1.1c-3.8,1.8-7.8,3.6-12.1,2.6
				C43.7,172.5,43.5,173.6,44.2,173.8L44.2,173.8z"/>
		</g>
	</g>
	<g>
		<g>
			<path class="st6" d="M41.2,166.6c2,0.6,3.9,1.5,5.6,2.6c0.6,0.4,1.3-0.5,0.7-0.9c-1.9-1.2-4-2.2-6.2-2.8
				C40.7,165.3,40.5,166.4,41.2,166.6L41.2,166.6z"/>
		</g>
	</g>
	<g>
		<g>
			<path class="st6" d="M44.3,164.4c2.4,1.1,4.5,2.7,6.2,4.6c0.5,0.5,1.4-0.1,0.9-0.6c-1.9-2.1-4.1-3.8-6.7-5
				C44.2,163.1,43.7,164.1,44.3,164.4L44.3,164.4z"/>
		</g>
	</g>
	<g>
		<g>
			<path class="st6" d="M48.1,162.5c3.1,1.9,5.6,4.6,7.3,7.9c0.3,0.6,1.3,0,0.9-0.6c-1.8-3.5-4.4-6.2-7.7-8.3
				C48,161.1,47.5,162.1,48.1,162.5L48.1,162.5z"/>
		</g>
	</g>
	<g>
		<g>
			<path class="st6" d="M52.1,178.1c3.9-1.1,7.2-3.4,9.6-6.7c0.4-0.6-0.4-1.3-0.9-0.7c-2.3,3.2-5.4,5.3-9.1,6.3
				C51,177.3,51.4,178.3,52.1,178.1L52.1,178.1z"/>
		</g>
	</g>
	<g>
		<g>
			<path class="st6" d="M57.5,179c3.1-1.7,5.4-4.2,7-7.4c0.3-0.7-0.8-1.2-1.1-0.6c-1.5,3-3.7,5.3-6.6,6.9
				C56.2,178.3,56.9,179.3,57.5,179L57.5,179z"/>
		</g>
	</g>
	<g>
		<g>
			<path class="st6" d="M63,178.9c2.6-2.1,5.3-4.5,4.9-8.2c-0.1-0.7-1.2-0.6-1.1,0.1c0.3,3.2-2.2,5.3-4.4,7.1
				C61.8,178.5,62.4,179.4,63,178.9L63,178.9z"/>
		</g>
	</g>
	<g>
		<g>
			<path class="st6" d="M61.2,169.2c-1.2-3.3-3.3-6.2-6.1-8.4c-0.6-0.4-1.3,0.4-0.7,0.9c2.7,2.1,4.6,4.7,5.8,7.9
				C60.4,170.3,61.4,169.9,61.2,169.2L61.2,169.2z"/>
		</g>
	</g>
	<g>
		<g>
			<path class="st6" d="M65.9,170c-1.9-3.6-4.5-6.8-7.6-9.3c-0.6-0.5-1.3,0.4-0.7,0.9c3.1,2.5,5.6,5.6,7.4,9.1
				C65.3,171.2,66.3,170.6,65.9,170L65.9,170z"/>
		</g>
	</g>
	<g>
		<g>
			<path class="st6" d="M69.2,169.5c-1.1-3.5-3.2-6.5-6.3-8.5c-0.6-0.4-1.3,0.5-0.7,0.9c2.9,2,4.9,4.7,5.9,8
				C68.4,170.6,69.5,170.2,69.2,169.5L69.2,169.5z"/>
		</g>
	</g>
	<g>
		<g>
			<path class="st6" d="M66.1,161.8c3,2,5.3,4.7,6.6,8c0.3,0.7,1.3,0.3,1.1-0.4c-1.5-3.5-3.8-6.4-7-8.5
				C66.2,160.6,65.5,161.4,66.1,161.8L66.1,161.8z"/>
		</g>
	</g>
	<g>
		<g>
			<path class="st6" d="M69.4,162.5c2.6,1.5,4.6,3.7,5.8,6.4c0.3,0.7,1.4,0.3,1.1-0.4c-1.4-3-3.6-5.4-6.4-7.1
				C69.3,161.1,68.8,162.1,69.4,162.5L69.4,162.5z"/>
		</g>
	</g>
	<g>
		<g>
			<path class="st6" d="M67.5,178.6c3.2-2,4.9-5.5,4.6-9.2c-0.1-0.7-1.2-0.6-1.1,0.1c0.3,3.3-1.3,6.5-4.1,8.2
				C66.3,178.1,66.9,179,67.5,178.6L67.5,178.6z"/>
		</g>
	</g>
	<g>
		<g>
			<path class="st6" d="M72.9,176.6c2.2-1.6,3.4-4.1,3.3-7c0-0.8-1.2-0.7-1.2,0.1c0.1,2.4-1,4.6-2.9,5.9
				C71.6,176,72.3,177.1,72.9,176.6L72.9,176.6z"/>
		</g>
	</g>
	<g>
		<g>
			<path class="st6" d="M77.3,176.7c2-2.6,2.6-6,1.5-9.1c-0.2-0.7-1.3-0.3-1.1,0.4c0.9,2.7,0.4,5.8-1.4,8
				C76,176.6,76.8,177.3,77.3,176.7L77.3,176.7z"/>
		</g>
	</g>
	<g>
		<g>
			<path class="st6" d="M74.8,161.7c1.9,1.4,4.4,3.4,3.3,6c-0.3,0.7,0.7,1.1,1,0.5c1.3-3.2-1.3-5.6-3.6-7.4
				C75,160.4,74.2,161.3,74.8,161.7L74.8,161.7z"/>
		</g>
	</g>
	<g>
		<g>
			<path class="st6" d="M42,170.9c3.1,0.9,6.5,0.6,9.4-0.8c0.6-0.3,0.3-1.4-0.4-1.1c-2.8,1.4-5.8,1.7-8.8,0.8
				C41.5,169.6,41.3,170.7,42,170.9L42,170.9z"/>
		</g>
	</g>
	<g>
		<g>
			<path class="st6" d="M26.5,134.6c0.8,1,1.8,1.7,3,2c0.8,0.2,2.2,0.5,2.7-0.4c0.5-0.8-0.1-1.7-0.5-2.4c-0.9-1.4-2-2.7-3.3-3.8
				c-0.5-0.5-1.3,0.4-0.7,0.9c1.2,1.1,2.4,2.3,3.2,3.8c0.3,0.5,0.4,0.5,0,0.8c-0.4,0.3-0.9,0.1-1.4-0.1c-0.8-0.3-1.5-0.8-2-1.5
				C26.9,133.4,26,134.1,26.5,134.6L26.5,134.6z"/>
		</g>
	</g>
	<g>
		<g>
			<path class="st6" d="M27.1,138.2c2.5,1.4,5.4,1.6,8.1,0.7c0.7-0.2,0.3-1.3-0.4-1.1c-2.4,0.8-5,0.6-7.3-0.7
				C27,136.8,26.5,137.9,27.1,138.2L27.1,138.2z"/>
		</g>
	</g>
	<g>
		<g>
			<path class="st6" d="M30.1,141.9c2,0.1,4,0,5.9-0.4c1.2-0.2,2.6-0.4,3.1-1.6c1.3-2.7-2.1-6.4-3.8-8c-0.5-0.5-1.2,0.4-0.7,0.9
				c0.8,0.8,1.6,1.7,2.2,2.6c0.4,0.6,0.8,1.2,1,1.9c0.4,1,0.4,1.2-0.3,2.1c-1.4,1.8-5.2,1.5-7.3,1.4
				C29.6,140.7,29.4,141.8,30.1,141.9L30.1,141.9z"/>
		</g>
	</g>
	<g>
		<g>
			<path class="st6" d="M35,137.4c-0.4-2.8-1.6-5.4-3.5-7.5c-0.5-0.5-1.4,0.1-0.9,0.6c1.8,2,2.9,4.3,3.3,6.9
				C34,138.3,35.1,138.2,35,137.4L35,137.4z"/>
		</g>
	</g>
	<g>
		<g>
			<path class="st6" d="M32.9,144.8c3.2,0.5,6.4-0.4,8.9-2.5c0.6-0.5-0.1-1.4-0.6-0.9c-2.3,1.9-5.1,2.7-8.1,2.3
				C32.4,143.6,32.2,144.7,32.9,144.8L32.9,144.8z"/>
		</g>
	</g>
	<g>
		<g>
			<path class="st6" d="M39.8,134.4c1.2,2.3,1.9,4.8,2,7.4c0,0.7,1.2,0.6,1.1-0.1c-0.1-2.8-0.9-5.4-2.2-7.9
				C40.4,133.1,39.5,133.8,39.8,134.4L39.8,134.4z"/>
		</g>
	</g>
	<g>
		<g>
			<path class="st6" d="M43.3,136c1.2,2.4,1.9,4.9,2.2,7.6c0.1,0.7,1.2,0.6,1.1-0.1c-0.3-2.8-1-5.4-2.3-7.9
				C44.1,134.9,43,135.3,43.3,136L43.3,136z"/>
		</g>
	</g>
	<g>
		<g>
			<path class="st6" d="M46.2,138.3c1.4,2,2.1,4.2,2.1,6.6c0,0.7,1.1,0.6,1.1-0.1c0-2.6-0.8-5.1-2.3-7.2
				C46.7,137,45.7,137.7,46.2,138.3L46.2,138.3z"/>
		</g>
	</g>
	<g>
		<g>
			<path class="st6" d="M48.8,139.6c1.4,2.1,2.3,4.4,2.6,6.9c0.1,0.7,1.2,0.6,1.1-0.1c-0.4-2.7-1.3-5.2-2.8-7.4
				C49.3,138.3,48.4,139,48.8,139.6L48.8,139.6z"/>
		</g>
	</g>
	<g>
		<g>
			<path class="st6" d="M38.2,148c3.2-0.1,6.1-1.5,8.1-3.9c0.5-0.6-0.4-1.3-0.9-0.7c-1.9,2.2-4.4,3.4-7.3,3.5
				C37.3,146.9,37.4,148.1,38.2,148L38.2,148z"/>
		</g>
	</g>
	<g>
		<g>
			<path class="st6" d="M42.6,149.7c2.8-0.4,5.2-1.8,6.8-4.2c0.4-0.6-0.5-1.3-0.9-0.7c-1.4,2.1-3.5,3.5-6,3.8
				C41.8,148.6,41.9,149.8,42.6,149.7L42.6,149.7z"/>
		</g>
	</g>
	<g>
		<g>
			<path class="st6" d="M47,151.7c2.6-1,4.6-3,5.6-5.7c0.2-0.7-0.8-1.2-1-0.5c-0.9,2.4-2.6,4.2-5,5.1C46,150.9,46.3,152,47,151.7
				L47,151.7z"/>
		</g>
	</g>
	<g>
		<g>
			<path class="st6" d="M50.4,152.9c2.4-1.7,4.8-3.6,5.1-6.8c0.1-0.7-1-0.9-1.1-0.2c-0.2,2.8-2.5,4.5-4.6,6
				C49.2,152.3,49.8,153.3,50.4,152.9L50.4,152.9z"/>
		</g>
	</g>
	<g>
		<g>
			<path class="st6" d="M53.1,141.6c1.2,1.5,1.8,3.3,1.7,5.2c0,0.7,1.1,0.6,1.1-0.1c0-2.1-0.6-4.1-1.9-5.8
				C53.6,140.4,52.6,141,53.1,141.6L53.1,141.6z"/>
		</g>
	</g>
	<g>
		<g>
			<path class="st6" d="M53.5,154.8c3.2-1.1,5.3-4.1,5.2-7.5c0-0.7-1.1-0.6-1.1,0.1c0.1,2.9-1.8,5.4-4.5,6.4
				C52.4,153.9,52.8,155,53.5,154.8L53.5,154.8z"/>
		</g>
	</g>
	<g>
		<g>
			<path class="st6" d="M56.1,103c1.3,2.2,3,4.2,4.9,6c0.5,0.5,1.2-0.4,0.7-0.9c-1.8-1.7-3.4-3.6-4.7-5.8
				C56.7,101.8,55.8,102.4,56.1,103L56.1,103z"/>
		</g>
	</g>
	<g>
		<g>
			<path class="st6" d="M62.2,109.1c0.6-2.4,0.5-5-0.2-7.4c-0.2-0.7-1.3-0.3-1.1,0.4c0.7,2.2,0.7,4.5,0.1,6.8
				C60.9,109.6,62,109.8,62.2,109.1L62.2,109.1z"/>
		</g>
	</g>
	<g>
		<g>
			<path class="st6" d="M64.3,112.6c1.7-2.9,1.4-6.4,1-9.6c-0.1-0.7-1.2-0.6-1.1,0.1c0.4,3.1,0.7,6.3-0.9,9
				C62.9,112.8,64,113.2,64.3,112.6L64.3,112.6z"/>
		</g>
	</g>
	<g>
		<g>
			<path class="st6" d="M65.7,115.7c2.2-2.1,3.3-5.1,3-8.2c-0.1-0.7-1.2-0.6-1.1,0.1c0.2,2.8-0.8,5.4-2.8,7.4
				C64.3,115.5,65.1,116.2,65.7,115.7L65.7,115.7z"/>
		</g>
	</g>
	<g>
		<g>
			<path class="st6" d="M54.4,106.9c2,2.8,5,4.6,8.5,4.9c0.7,0.1,0.9-1,0.2-1.1c-3.2-0.3-5.9-1.8-7.7-4.4
				C54.9,105.7,54,106.3,54.4,106.9L54.4,106.9z"/>
		</g>
	</g>
	<g>
		<g>
			<path class="st6" d="M54.2,110.2c1.5,1.8,3.3,3.3,5.4,4.2c1.2,0.5,4,1.8,5.2,0.8c0.2-0.2,0.3-0.4,0.2-0.7c0-0.1,0-0.1,0-0.2
				c-0.2-0.7-1.3-0.3-1.1,0.4c0,0.1,0,0.1,0,0.2c0.1-0.2,0.1-0.4,0.2-0.7c-0.9,0.7-4-0.8-4.8-1.3c-1.6-0.8-3-2-4.2-3.5
				C54.6,109,53.7,109.7,54.2,110.2L54.2,110.2z"/>
		</g>
	</g>
	<g>
		<g>
			<path class="st6" d="M55.1,115c2.9,3,6.4,6,10.8,4.7c0.7-0.2,0.3-1.3-0.4-1.1c-4,1.2-7.1-1.9-9.7-4.5
				C55.3,113.6,54.6,114.5,55.1,115L55.1,115z"/>
		</g>
	</g>
	<g>
		<g>
			<path class="st6" d="M54.8,119.1c3.2,3,8.2,5.6,12.7,4.2c0.7-0.2,0.3-1.3-0.4-1.1c-4.1,1.3-8.7-1.3-11.6-4
				C55,117.7,54.2,118.6,54.8,119.1L54.8,119.1z"/>
		</g>
	</g>
	<g>
		<g>
			<path class="st6" d="M66.8,119.6c3.8-2.2,4.8-6.4,5.4-10.4c0.1-0.7-1-0.9-1.1-0.2c-0.6,3.7-1.4,7.6-5,9.6
				C65.5,119,66.2,119.9,66.8,119.6L66.8,119.6z"/>
		</g>
	</g>
	<g>
		<g>
			<path class="st6" d="M67.6,123.6c2.2-0.8,4.3-1.8,5.6-3.8c1.2-1.9,1.8-4.1,2.3-6.2c0.2-0.7-0.9-0.9-1.1-0.2
				c-0.4,1.8-0.8,3.6-1.7,5.2c-1.2,2.2-3.2,3.2-5.5,4C66.5,122.8,66.9,123.9,67.6,123.6L67.6,123.6z"/>
		</g>
	</g>
	<g>
		<g>
			<path class="st6" d="M69.5,128.5c3.6-2,7.3-5.3,7.8-9.6c0.1-0.7-1-0.9-1.1-0.2c-0.4,4.1-4,7-7.3,8.9
				C68.2,127.9,68.9,128.8,69.5,128.5L69.5,128.5z"/>
		</g>
	</g>
	<g>
		<g>
			<path class="st6" d="M56.8,124.4c3.2,3.7,7.8,5.8,12.7,5.6c0.7,0,0.6-1.2-0.1-1.1c-4.5,0.2-8.8-1.7-11.7-5.1
				C57.3,123.2,56.4,123.8,56.8,124.4L56.8,124.4z"/>
		</g>
	</g>
	<g>
		<g>
			<path class="st6" d="M58.1,129.5c3.4,3,7.6,4.5,12.1,4.4c0.7,0,0.6-1.1-0.1-1.1c-4.2,0.1-8.2-1.3-11.3-4.1
				C58.2,128.2,57.5,129,58.1,129.5L58.1,129.5z"/>
		</g>
	</g>
	<g>
		<g>
			<path class="st6" d="M59.5,133.9c1.8,1.5,3.8,2.7,6.1,3.5c1.6,0.6,4,1.5,5.7,1c0.2-0.1,0.3-0.2,0.4-0.4c0-0.1,0-0.1,0-0.2
				c0.1-0.7-1-0.9-1.1-0.2c0-0.1-4.9-1.4-5.3-1.5c-1.8-0.7-3.5-1.8-5-3C59.6,132.5,58.9,133.4,59.5,133.9L59.5,133.9z"/>
		</g>
	</g>
	<g>
		<g>
			<path class="st6" d="M61.2,138.2c2.4,2.9,6,4.3,9.7,3.7c0.7-0.1,0.6-1.2-0.1-1.1c-3.3,0.5-6.6-0.6-8.7-3.2
				C61.6,137,60.7,137.7,61.2,138.2L61.2,138.2z"/>
		</g>
	</g>
	<g>
		<g>
			<path class="st6" d="M63.9,143.5c1.8,3.2,5.7,2.6,8.7,1.8c0.7-0.2,0.3-1.2-0.4-1.1c-2.5,0.6-5.9,1.3-7.4-1.4
				C64.5,142.3,63.6,142.9,63.9,143.5L63.9,143.5z"/>
		</g>
	</g>
	<g>
		<g>
			<path class="st6" d="M72.7,145.8c2-1,3.8-2.3,5.2-4c0.9-1,2.5-2.7,2.1-4.2c-0.2-0.7-1.3-0.3-1.1,0.4c0.3,1-1.9,3.2-2.5,3.8
				c-1.2,1.2-2.6,2.2-4.1,2.9C71.7,145,72.1,146.1,72.7,145.8L72.7,145.8z"/>
		</g>
	</g>
	<g>
		<g>
			<path class="st6" d="M72.1,141.5c2.8-1.9,6.6-4.6,7.5-8.1c0.2-0.7-0.9-0.9-1.1-0.2c-0.8,3.1-4.6,5.6-7.1,7.3
				C70.8,140.9,71.5,141.9,72.1,141.5L72.1,141.5z"/>
		</g>
	</g>
	<g>
		<g>
			<path class="st6" d="M71.8,137.8c2-1.2,3.8-2.7,5.2-4.5c0.9-1.2,2.4-2.8,1.8-4.4c-0.2-0.7-1.3-0.3-1.1,0.4
				c0.5,1.3-1.8,3.6-2.7,4.5c-1.2,1.2-2.5,2.2-4,3.1C70.5,137.3,71.2,138.2,71.8,137.8L71.8,137.8z"/>
		</g>
	</g>
	<g>
		<g>
			<path class="st6" d="M70.7,133.6c3-1.8,5.4-4.4,6.9-7.6c0.3-0.7-0.7-1.1-1-0.5c-1.4,3-3.6,5.4-6.5,7.1
				C69.4,133,70.1,134,70.7,133.6L70.7,133.6z"/>
		</g>
	</g>
	<g>
		<g>
			<path class="st6" d="M36,118.8c0.3-3.1-0.7-6-2.9-8.3c-0.5-0.5-1.2,0.4-0.7,0.9c1.9,1.9,2.8,4.5,2.5,7.2
				C34.8,119.3,35.9,119.5,36,118.8L36,118.8z"/>
		</g>
	</g>
	<g>
		<g>
			<path class="st6" d="M35.2,116.6c-2.1-1.5-3.9-3.2-5.5-5.2c-0.4-0.6-1.4,0.1-0.9,0.6c1.6,2.1,3.5,3.9,5.7,5.5
				C35.1,117.9,35.8,117,35.2,116.6L35.2,116.6z"/>
		</g>
	</g>
	<g>
		<g>
			<path class="st6" d="M38,120c-2.9-1.1-5.5-2.8-7.8-4.9c-0.5-0.5-1.2,0.4-0.7,0.9c2.3,2.2,5,3.9,8,5.1
				C38.2,121.2,38.7,120.2,38,120L38,120z"/>
		</g>
	</g>
	<g>
		<g>
			<path class="st6" d="M39.2,122.1c-3.1-0.6-5.9-2.1-8.2-4.3c-0.5-0.5-1.2,0.4-0.7,0.9c2.4,2.3,5.4,3.9,8.7,4.5
				C39.7,123.4,39.9,122.3,39.2,122.1L39.2,122.1z"/>
		</g>
	</g>
	<g>
		<g>
			<path class="st6" d="M40.8,125c-1.3,0.5-2.7-0.1-3.9-0.6c-1.2-0.5-2.4-1.2-3.5-1.9c-0.6-0.4-1.3,0.4-0.7,0.9
				c1.4,1,2.9,1.8,4.6,2.4c1.3,0.4,2.6,0.8,3.8,0.3C41.9,125.8,41.5,124.7,40.8,125L40.8,125z"/>
		</g>
	</g>
	<g>
		<g>
			<path class="st6" d="M43.2,127.9c-1.3,0.5-3-0.2-4.2-0.5c-1.5-0.4-2.9-1-4.3-1.5c-0.7-0.3-1.1,0.7-0.5,1c1.7,0.7,3.4,1.3,5.1,1.8
				c1.4,0.4,2.9,0.9,4.3,0.4C44.2,128.6,43.9,127.6,43.2,127.9L43.2,127.9z"/>
		</g>
	</g>
	<g>
		<g>
			<path class="st6" d="M46.8,131c-2.8,0.2-5.5-0.4-7.9-1.8c-0.6-0.4-1.1,0.7-0.5,1c2.6,1.5,5.5,2.2,8.5,1.9
				C47.6,132,47.6,130.9,46.8,131L46.8,131z"/>
		</g>
	</g>
	<g>
		<g>
			<path class="st6" d="M48.5,132.1c0.8-3.3,0.6-6.7-0.5-9.9c-0.2-0.7-1.3-0.3-1.1,0.4c1.1,3.1,1.2,6.2,0.5,9.4
				C47.2,132.6,48.3,132.8,48.5,132.1L48.5,132.1z"/>
		</g>
	</g>
	<g>
		<g>
			<path class="st6" d="M44.6,128c1.1-2.8,0.9-5.9-0.6-8.5c-0.3-0.6-1.3,0-0.9,0.6c1.3,2.3,1.4,5,0.5,7.4
				C43.3,128.2,44.3,128.7,44.6,128L44.6,128z"/>
		</g>
	</g>
	<g>
		<g>
			<path class="st6" d="M41.4,124.5c0.5-2.6,0.4-5.3-0.2-7.9c-0.2-0.7-1.2-0.3-1.1,0.4c0.5,2.4,0.6,4.9,0.1,7.3
				C40.2,125,41.3,125.2,41.4,124.5L41.4,124.5z"/>
		</g>
	</g>
	<g>
		<g>
			<path class="st6" d="M38.6,120.6c0.5-2.3,0.7-4.7,0.4-7.1c-0.1-0.7-1.2-0.6-1.1,0.1c0.2,2.3,0.1,4.6-0.4,6.8
				C37.3,121.1,38.4,121.3,38.6,120.6L38.6,120.6z"/>
		</g>
	</g>
	<g>
		<g>
			<path class="st6" d="M50.5,133.8c1.2-3.1,1.3-6.5,0.1-9.6c-0.2-0.7-1.3-0.3-1.1,0.4c1,2.9,1,5.9-0.1,8.8
				C49.2,134,50.2,134.5,50.5,133.8L50.5,133.8z"/>
		</g>
	</g>
	<g>
		<g>
			<path class="st6" d="M52.1,136.9c2.4-2.2,2.9-5.8,1-8.5c-0.4-0.6-1.3,0.1-0.9,0.6c1.5,2.1,1.2,5.2-0.8,6.9
				C50.9,136.4,51.6,137.4,52.1,136.9L52.1,136.9z"/>
		</g>
	</g>
	<g>
		<g>
			<path class="st6" d="M48.4,133.3c-1.2,0.6-2.5,0.7-3.7,0.1c-0.7-0.3-1.1,0.7-0.5,1c1.6,0.7,3.3,0.6,4.8-0.2
				C49.7,133.9,49.1,132.9,48.4,133.3L48.4,133.3z"/>
		</g>
	</g>
	<g>
		<g>
			<path class="st6" d="M47.9,136.4c1.4,0.4,2.8,0.1,4-0.6c0.6-0.4,0-1.3-0.6-0.9c-1,0.6-2.1,0.7-3.2,0.4
				C47.4,135.1,47.2,136.2,47.9,136.4L47.9,136.4z"/>
		</g>
	</g>
</g>
</svg>
