<?xml version="1.0" encoding="utf-8"?>
<!-- Generator: Adobe Illustrator 24.0.3, SVG Export Plug-In . SVG Version: 6.00 Build 0)  -->
<svg version="1.1" id="Menu" xmlns="http://www.w3.org/2000/svg" xmlns:xlink="http://www.w3.org/1999/xlink" x="0px" y="0px"
	 viewBox="0 0 250 250" style="enable-background:new 0 0 250 250;" xml:space="preserve">
<style type="text/css">
	.st0{fill:#D6222D;}
</style>
<path class="st0" d="M233.7,55.3c-0.1-0.1-0.2-0.1-0.2-0.2c-0.6-0.4-1.2-0.6-2-0.6H18.4c-0.7,0-1.4,0.2-1.9,0.6l0,0l0,0l0,0
	c-0.1,0.1-0.1,0.1-0.2,0.2c-0.7,0.6-1.2,1.6-1.2,2.6v12.8c0,1.9,1.5,3.4,3.4,3.4h213.1c1.9,0,3.4-1.5,3.4-3.4V57.9
	C234.9,56.8,234.4,55.9,233.7,55.3z"/>
<path class="st0" d="M233.7,116c-0.1-0.1-0.2-0.1-0.2-0.2c-0.6-0.4-1.2-0.6-2-0.6H18.4c-0.7,0-1.4,0.2-1.9,0.6l0,0l0,0l0,0
	c-0.1,0.1-0.1,0.1-0.2,0.2c-0.7,0.6-1.2,1.6-1.2,2.6v12.8c0,1.9,1.5,3.4,3.4,3.4h213.1c1.9,0,3.4-1.5,3.4-3.4v-12.8
	C234.9,117.5,234.4,116.6,233.7,116z"/>
<path class="st0" d="M233.7,176.7c-0.1-0.1-0.2-0.1-0.2-0.2c-0.6-0.4-1.2-0.6-2-0.6H18.4c-0.7,0-1.4,0.2-1.9,0.6l0,0l0,0l0,0
	c-0.1,0.1-0.1,0.1-0.2,0.2c-0.7,0.6-1.2,1.6-1.2,2.6v12.8c0,1.9,1.5,3.4,3.4,3.4h213.1c1.9,0,3.4-1.5,3.4-3.4v-12.8
	C234.9,178.2,234.4,177.3,233.7,176.7z"/>
</svg>
