<?xml version="1.0" encoding="utf-8"?>
<!-- Generator: Adobe Illustrator 24.0.3, SVG Export Plug-In . SVG Version: 6.00 Build 0)  -->
<svg version="1.1" id="Слой_1" xmlns="http://www.w3.org/2000/svg" xmlns:xlink="http://www.w3.org/1999/xlink" x="0px" y="0px"
	 viewBox="0 0 50 50" style="enable-background:new 0 0 50 50;" xml:space="preserve">
<path style="fill-rule:evenodd;clip-rule:evenodd;fill:#E52421;" d="M11.8992558,30.0489712
	c1.660737-0.3482475,3.7113247-0.919405,4.4952087-2.5986366c0.6013374-1.2880878-0.1791706-3.3713665-0.2664165-4.722229
	c-0.0451279-0.6934147,0.28125-1.1097164,0.9581337-1.3670712c4.9633408-1.9063759,9.9808788-2.0524349,15.0655594-0.5642376
	c0.8183632,0.2055817,1.1353111,0.6702995,1.1707573,1.5287075c0.0527229,1.2707806,0.0407143,2.7808685,0.7634964,3.8919563
	c0.7226181,1.1105251,2.2092476,1.8167439,3.3950157,2.3050041c1.5157814,0.6234837,3.5210381,1.6571789,5.1850052,1.2647114
	c1.5309868-0.3613377,2.5612488-1.90238,2.7829933-3.4594021c0.3831482-2.6871967-0.6931534-5.349287-2.522068-7.2841778
	c-0.5192337-0.5497894-1.0997276-1.0412178-1.7246361-1.4571342c-1.5037041-1.0018349-3.2123184-1.6551361-4.9411545-2.1806335
	c-1.3032646-0.3964319-2.6270256-0.7262993-3.9645653-0.9844303c-4.3759384-0.8433075-8.9059601-0.904089-13.2832966-0.0341864
	c-2.1867275,0.4349365-4.3843346,1.0743608-6.4176912,1.9985723c-2.2804251,1.0365562-4.3921976,1.8739548-5.9480338,3.9751396
	c-1.6291413,2.1994686-2.4470267,5.2210636-1.4728518,7.8491707c0.2886138,0.7777519,0.7525005,1.5126801,1.4323149,1.9877205
	C8.0122871,31.1807442,10.3540277,30.3733425,11.8992558,30.0489712z"/>
</svg>
