<?xml version="1.0" encoding="utf-8"?>
<!-- Generator: Adobe Illustrator 24.0.3, SVG Export Plug-In . SVG Version: 6.00 Build 0)  -->
<svg version="1.1" id="PhoneBook" xmlns="http://www.w3.org/2000/svg" xmlns:xlink="http://www.w3.org/1999/xlink" x="0px" y="0px"
	 viewBox="0 0 250 250" style="enable-background:new 0 0 250 250;" xml:space="preserve">
<style type="text/css">
	.st0{fill:#D6222D;}
</style>
<path class="st0" d="M177.5,165L177.5,165c-3-6.2-9-9.4-15.2-9.4c-2.9,0-6.1,0-9,1.7c-4.5,3-9,4.5-13.7,4.5c-1.5,0-3,0-4.6,0
	c-7.6-1.5-18.2-10.5-25.6-26.1c-9.1-14-12.2-29.2-9.1-35.4c2.9-7.9,7.7-10.8,12.1-14c9.3-4.5,12.2-16.9,6.1-24.6l-12.1-21.6
	c-3.2-6.2-9-9-15.1-9c-3.2,0-6.2,0-9.3,1.5l-7.6,4.7C63.5,45,60.6,55.8,59,66.6c-4.6,23.1,3,52.3,22.8,86.3
	c18.3,32.1,39.6,55.3,62.3,63.1c6.1,1.5,12.1,3,18.2,3c4.6,0,9.3-1.5,13.8-3l7.6-4.7c9.3-4.7,10.6-15.4,6.2-24.6L177.5,165z"/>
</svg>
