<?xml version="1.0" encoding="utf-8"?>
<!-- Generator: Adobe Illustrator 24.0.3, SVG Export Plug-In . SVG Version: 6.00 Build 0)  -->
<svg version="1.1" id="Слой_1" xmlns="http://www.w3.org/2000/svg" xmlns:xlink="http://www.w3.org/1999/xlink" x="0px" y="0px"
	 viewBox="0 0 250 250" style="enable-background:new 0 0 250 250;" xml:space="preserve">
<path style="fill:#848484;" d="M171.2697601,230.3134308H82.0585938c-28.0175362,0-50.7302361-22.7126923-50.7302361-50.7302399
	V79.5511322c0-28.0175362,22.7126999-50.7302361,50.7302361-50.7302361h89.2111664
	C199.2872925,28.8208961,222,51.533596,222,79.5511322v100.0320587
	C222,207.6007385,199.2872925,230.3134308,171.2697601,230.3134308z"/>
<path style="fill:#C4C4C4;" d="M159.2955475,226.3134308H93.8724747c-32.0737457,0-58.0746536-26.0009003-58.0746536-58.0746613
	v-62.4602127c0-39.7686691,32.2388763-72.0075455,72.0075455-72.0075455h47.7238083
	C190.0308533,33.7710114,218,61.7401543,218,96.2418442v71.3671341
	C218,200.0305481,191.7171173,226.3134308,159.2955475,226.3134308z"/>
<path style="fill:#E52421;" d="M136.5739288,125.5039062c10.2611084-3.988205,17.565979-13.9454803,17.565979-25.5995178
	c0-15.1509323-12.3265533-27.4780655-27.4770279-27.4780655c-15.1498871,0-27.4770279,12.3271332-27.4770279,27.4780655
	c0,11.6540375,7.3054581,21.6118317,17.5664978,25.5995178c-20.5377884,4.546524-35.9567032,22.874939-35.9567032,44.7615051
	c0,9.0660553,7.3755035,16.4425964,16.4415512,16.4425964h58.8539734c9.0665588,0,16.4415436-7.3765411,16.4415436-16.4425964
	C172.5327148,148.3788452,157.1138611,130.0504303,136.5739288,125.5039062z M111.1312561,99.9043884
	c0-8.5633011,6.9683304-15.5300674,15.5316238-15.5300674s15.5316238,6.9667664,15.5316238,15.5300674
	s-6.9683228,15.5305862-15.5316238,15.5305862S111.1312561,108.4676819,111.1312561,99.9043884z M156.0911713,174.7605286
	H97.2371979c-2.479454,0-4.496666-2.0156555-4.496666-4.4951172c0-18.7054596,15.2184448-33.922348,33.922348-33.922348
	c18.7065048,0,33.9249496,15.2168884,33.9249496,33.922348C160.5878296,172.744873,158.5706177,174.7605286,156.0911713,174.7605286
	z"/>
</svg>
