<?xml version="1.0" encoding="utf-8"?>
<!-- Generator: Adobe Illustrator 24.0.3, SVG Export Plug-In . SVG Version: 6.00 Build 0)  -->
<svg version="1.1" id="Слой_1" xmlns="http://www.w3.org/2000/svg" xmlns:xlink="http://www.w3.org/1999/xlink" x="0px" y="0px"
	 viewBox="0 0 400 200" style="enable-background:new 0 0 400 200;" xml:space="preserve">
<path style="fill-rule:evenodd;clip-rule:evenodd;fill:#FFFFFF;" d="M94.7396393,30.9891987
	c0-5.3307495-1.6988678-9.3277149-5.0960083-11.9909706c-2.9307175-2.3333035-6.8949585-3.4990387-11.8890076-3.4990387
	c-3.5325699,0-6.5959396,0.5331516-9.1950073,1.5988045c0,0.3341904-0.0334244,2.0991745-0.0995331,5.2955627
	c-0.0665283,3.1981831-0.0992203,5.8972187-0.0992203,8.0958652c0,7.1290512,0.165329,11.3577576,0.499649,12.6890602
	l0.2985306,0.1018944l0.3006516,0.1000633c0.3319473,0.1322327,0.699379,0.2317047,1.0998154,0.2984314
	c0.6652298,0.0660973,2.6298141,0.1018944,5.8946075,0.1018944c5.9960861,0,10.2915497-0.7017555,12.8904953-2.1016006
	C92.9412994,39.8147125,94.7396393,36.2513885,94.7396393,30.9891987z M110.942894,71.6783829
	c-0.3978806,0.5828857-0.8339691,1.1439133-1.3125153,1.6794662c-2.5328369,2.864624-6.8306656,5.6273117-12.891037,8.2923965
	c-3.4996414,1.5072021-8.408226,2.4048462-14.7343216,2.6959839c0.4835129-1.5017395,1.0923996-2.9470978,1.8529892-4.2953949
	c9.3580475-0.0448837,14.9592819-3.0841827,16.8000793-9.1166534c0.760582-0.0424576,1.5163116-0.061264,2.2647552-0.061264
	C105.6145859,70.8729172,108.3130112,71.1094666,110.942894,71.6783829z M100.4330673,59.8342094
	c-2.6135101-7.9721451-10.9058914-11.9569893-24.8770905-11.9569893c-1.3339233,0-2.6324921,0.0327454-3.8976364,0.099453
	c-1.3997345,0.1322327-2.330864,0.2650566-2.7978287,0.3978844v4.9965591c0,3.1320648,0.0334244,6.0300407,0.0995255,8.6950912
	c0.1255569,5.167572,0.2935028,8.9722977,0.5022659,11.4196167c-2.5967026,3.0065384-4.5515289,6.3521118-5.9399223,9.9676132
	c-2.2410393-0.2013702-3.8616066-0.3032608-4.8545494-0.3032608c-2.1318054,0-4.7308769,0.2322769-7.7943039,0.6987152
	c0-0.1989365-0.0333595-0.400322-0.0994682-0.5992661l-0.0995331-0.3008194l-0.1018944-0.2984085l-0.0994682-0.1995544
	c0-0.7338867,0.4003639-1.0990219,1.1986084-1.0990219h0.6991386c0.2674789-0.0685272,0.7012634-0.1018982,1.3004494-0.1018982
	h0.6987114l0.8012772-0.0970459c1.196003-0.1352463,1.9304466-0.5355377,2.1962814-1.2015152
	c0.4001236-1.4641495,0.5991821-6.195015,0.5991821-14.189003V42.7781754c0-16.053442-0.9311333-25.0803394-2.7954636-27.0776024
	c-1.0663872-0.867342-2.6990242-1.2985601-4.8976707-1.2985601c-0.9335022,0-1.3999786-0.5331516-1.3999786-1.5994158
	l0.2013664-0.3008366c0.3319511,0,1.7316818,0.0333538,4.1959267,0.0994701l2.7980728,0.2013664h2.8977852
	c1.7316818,0,5.7619629-0.2341099,12.0899429-0.7011442c2.9330826-0.1989231,5.4634399-0.331748,7.5959702-0.3978825
	c2.9968338-0.1352501,5.8615036-0.1989231,8.593277-0.1989231c5.7947311,0,10.3582001,0.9643507,13.6892242,2.8973656
	c4.2644653,2.5965109,6.3969955,6.8943319,6.3969955,12.8886137c0,4.9304047-2.1325302,9.0954018-6.3969955,12.4907303
	c-1.5994034,1.3313065-3.4304886,2.4661102-5.4944916,3.3971252c-1.6655045,0.8012276-3.3310242,1.4004555-4.9965363,1.7983398
	c1.9972839,0,4.0631027,0.2347374,6.1956406,0.6993294c2.9307098,0.5349464,5.5272369,1.3003731,7.7944183,2.3005219
	c5.8189774,2.7245216,8.9346924,6.8015594,9.344696,12.2323761c-1.2391205-0.099472-2.4831009-0.171051-3.7270737-0.2232094
	c-2.3193512-0.1516304-4.7266464-0.2037926-7.1290741-0.2037926
	C102.0888748,59.7820473,101.2597656,59.7990417,100.4330673,59.8342094z"/>
<path style="fill-rule:evenodd;clip-rule:evenodd;fill:#FFFFFF;" d="M348.3347778,45.5906372
	c0-4.8188286-2.478241-7.2285614-7.4347839-7.2285614c-3.6603394,0-5.7000732,1.8529243-6.1167603,5.5606232
	c-0.092804,0.5543442-0.1376953,0.9716415-0.1376953,1.2512474c0,0.2771835,0.0448914,0.6938515,0.1376953,1.2506599
	C339.4170532,46.285099,343.9350586,46.0079155,348.3347778,45.5906372z M358.3424072,55.1100006
	c-0.6465759,0.464592-1.8050537,1.3907585-3.4729919,2.7815132l-1.9475098,1.5969734l-2.0852051,1.5308723
	c-3.4281006,2.5019073-6.2544861,3.8447456-8.4768066,4.0297279h-0.625946
	c-4.0770264-0.1849823-7.4129028-1.4119682-10.0075989-3.684021c-2.8263855-2.4097137-4.2407837-5.6982765-4.2407837-9.8681221
	v-0.4166718c0.0927734-2.9192047,1.0426025-5.4896355,2.8500366-7.7143822
	c1.1117554-1.3907547,3.0350342-3.0586929,5.7692261-5.0038147c4.6793213-3.3831673,8.5483093-5.0723343,11.6046143-5.0723343
	c1.8074341,0,3.5232849,0.7866592,5.1433105,2.3617897c1.9457397,1.945118,2.9191895,4.4470253,2.9191895,7.505722v0.9031181
	c0,1.6679382-0.5331116,2.549221-1.5993652,2.6413956c-1.5278625,0.2771835-4.5865479,0.4858246-9.1736755,0.6253319
	c-1.7128296,0.0473099-3.5657654,0.092804-5.558197,0.1401176h-4.5179749
	c0.6489868,2.9640541,2.5018921,5.3495178,5.5605774,7.1575737c2.8713074,1.620018,6.1835327,2.4782333,9.9367065,2.5704308
	h0.348114c1.2506714,0,2.5704651-0.3008385,3.9612122-0.9024925c1.1584473-0.464592,2.1325378-1.0189743,2.9191895-1.6679382
	c0.0922241-0.0928078,0.1843872-0.1401176,0.2771912-0.1401176c0.1394958,0,0.2559509,0.0921974,0.3481445,0.2796249
	l0.0685425,0.2086411V55.1100006z M324.1496887,33.7064095c0.6495667,0,0.9740601-0.2796059,0.9740601-0.8339691
	c0-0.0946007-0.0473022-0.232296-0.1401062-0.4166679c-0.0448914-0.1401176-0.1158447-0.2559509-0.2080383-0.3481483
	c-0.694458,0.0448875-2.5710449,0.0921974-5.6297302,0.1395073c-3.1035767,0.0921783-5.1196594,0.1376724-6.0458374,0.1376724
	c-0.4172974,0-1.8765869-0.0454941-4.378479-0.1376724l-1.3197937-0.0709839h-1.1821289
	c-0.8339539-0.0448875-1.3197937-0.0685234-1.4592896-0.0685234c-0.3250732,0.2316856-0.4858093,0.5088654-0.4858093,0.8339691
	c0,0.5088654,0.4615479,0.7648163,1.3907166,0.7648163h0.9025269l1.111145,0.1376762
	c0.8339844,0.0921936,1.4143982,0.2796249,1.7388916,0.5568047c0.5543823,0.4621658,0.947998,2.6626282,1.1802979,6.6032104
	l-0.1376648,11.3268127c-0.2322998,5.1439323-0.5119019,8.0625076-0.8339844,8.7569885
	c-0.2322998,0.5094757-1.0899048,0.857605-2.5728455,1.0426102c-0.4621887,0.0473099-1.0426331,0.1158333-1.7370911,0.2080307
	h-0.6938782c-0.2322998,0.0473099-0.4172668,0.069149-0.5567627,0.069149h-0.5567932
	c-0.3244934,0.0473137-0.4858093,0.3008385-0.4858093,0.7648201l0.0691223,0.4172974
	c0,0.1394882,0.0236511,0.2086411,0.0709534,0.2086411c0,0.0921974,1.1347961,0.1395073,3.4044189,0.1395073
	c0.926178,0,2.2459717-0.023674,3.9612122-0.0709839h2.9877319c1.4356384,0,3.3358765,0.023674,5.7001038,0.0709839
	c2.3623962,0.0448647,3.7058411,0.0685196,4.0303345,0.0685196h0.4858398l0.2086182-0.0685196
	c0.1395264,0,0.2080688-0.0709839,0.2080688-0.2086601v-0.3481483l0.0709534-0.2771606
	c-0.0473022-0.2323151-0.163147-0.3954582-0.3481445-0.488266l-0.2771912-0.1370621h-0.2086487l-1.2506409-0.1401176
	l-1.3222046-0.1395073c-0.3693542-0.0921974-0.7411804-0.2298546-1.111145-0.4172821
	c-0.3244934-0.1843758-0.5567932-0.3457031-0.6939087-0.4852104c-0.5094604-0.9740868-0.8127136-3.914505-0.9049072-8.8255119
	l0.0709534-9.8705673c0.2298889-4.7242088,0.6702271-7.4820671,1.3191833-8.2681122
	c0.2778015-0.2796097,1.0189819-0.464592,2.2247314-0.5567894c0.4172974-0.0479202,0.8794556-0.0691528,1.3889465-0.0691528
	H324.1496887z M283.2166443,38.7102242c-0.0921631-1.9924278-0.3481445-3.3358765-0.7654114-4.0321693
	c-0.6016846-0.6016541-2.0609741-0.9024925-4.3778992-0.9024925c-0.6495972,0-1.0426025-0.3936424-1.1802979-1.1827278
	c0-0.3244934,0.1613464-0.6016541,0.4858398-0.8339691c0.1394958,0,0.6253357,0.0236549,1.4592896,0.0715771h1.1820984
	l1.3198242,0.0685406c2.5018921,0.0921974,3.9611816,0.1394882,4.378479,0.1394882
	c0.9261475,0,2.8263855-0.0472908,5.6982727-0.1394882c3.058075-0.0473099,4.9346924-0.0928059,5.6291504-0.1401176
	c0.0921936,0.0928078,0.163147,0.2086411,0.2086182,0.3487587c0.0922241,0.1843758,0.1395264,0.3244934,0.1395264,0.4166679
	c0,0.5568085-0.3244934,0.8339691-0.9734802,0.8339691h-1.0426025c-0.509491,0-0.9716797,0.0236588-1.3883667,0.0685425
	c-1.2063293,0.0928078-1.9475098,0.2796059-2.2247009,0.5567894c-0.4172668,0.5094948-0.7417603,1.8292847-0.9740601,3.9618149
	c-0.0449219,0.6938515-0.0685425,1.5987854-0.0685425,2.709938c-0.0473022,2.5947113,0.0236206,4.3548279,0.2086487,5.2809944
	l0.2080078,0.0715752l0.1401062,0.0685425c0.1850281,0.0921974,0.9473877,0.184967,2.2932739,0.2771645
	c0.1850281,0,0.3699951-0.0236397,0.5543823-0.0685234l5.4920349,0.9024925h-0.1401062
	c1.2961426,0.1395073,2.4333801,0.4639969,3.4050293,0.9734764c4.0321655,2.7342033,4.541626,6.4873581,1.5302429,11.2588959
	c-1.2506409,1.7601357-3.3358765,3.1957588-6.2544556,4.3093338c-1.3458862,0.2771797-2.4691467,0.4173012-3.3716431,0.4173012
	c-0.9025269,0-2.6983948-0.1637764-5.3877563-0.488266c-2.6862793-0.2771835-4.515564-0.4166718-5.4890442-0.4166718
	c-1.483551,0-3.2885437,0.1631432-5.4210815,0.4876366c0-0.1394882-0.0236816-0.2796059-0.0685425-0.4166679l-0.0709534-0.2086411
	l-0.0691528-0.2086601l-0.0685425-0.1394882c0-0.5094948,0.2771912-0.7654457,0.8339844-0.7654457h0.4858093
	c0.1843872-0.0448875,0.4876404-0.0685234,0.9049377-0.0685234h0.4858398l0.5567627-0.0685425
	c0.831543-0.092804,1.3434753-0.3724136,1.5278625-0.8339691c0.2771606-1.0213776,0.4172668-6.7433281,0.4172668-17.1676445
	C283.425293,42.3232841,283.3561401,40.6080322,283.2166443,38.7102242z M293.0156555,49.2036743
	c-1.1111755,0.1401176-1.8074646,0.25597-2.0846252,0.3481483v3.4735527
	c0.1843872,2.6887245,0.3930054,4.5179901,0.6253052,5.4920769c0.694458,0.6938515,2.1089172,1.0419998,4.2384033,1.0419998
	c2.1325378,0,3.4996033-1.1821175,4.1012878-3.5439072C300.0810242,51.6134071,297.7871704,49.343792,293.0156555,49.2036743z
	 M274.2516479,64.0064774c-2.5019226-0.0921936-4.4943542-0.1395035-5.9779053-0.1395035
	c-1.2506409,0-3.3807678,0.023674-6.3945923,0.0709839c-3.0113831,0.0448647-4.6550598,0.0685196-4.9328308,0.0685196
	c-0.416687,0-0.6962891-0.0236549-0.8339844-0.0685196c-0.1394806-0.0473099-0.2080231-0.1631813-0.2080231-0.3481483
	l-0.0709686-0.2086601v-0.2086372c0-0.2771835,0.4403381-0.4852142,1.3215942-0.6253319
	c0.3245239,0,0.6944885-0.0236549,1.1111755-0.0685196l0.4172974-0.0709686h0.348114
	c0.7866516-0.0928078,1.2506714-0.3699875,1.3883667-0.8339691c0.4645691-0.8339691,0.8127136-3.5894203,1.0426025-8.2687225
	l0.1394958-3.2673569c-0.416687-0.1394882-2.5255737-0.2322922-6.3236084-0.2771606l-3.8920593,0.2771606
	c-3.0113831,0.1401176-4.7957611,0.25597-5.3525696,0.3481483l-0.2080383,2.2938766
	c0,5.0486832,0.2316895,7.9672775,0.6962738,8.756382c0.2772064,0.4621468,0.6702271,0.7417717,1.1797028,0.8339691
	l2.293869,0.2086411c0.1395111,0,0.279007,0.0448647,0.416687,0.1370621
	c0.1874084,0.0928078,0.2795868,0.2323151,0.2795868,0.4172821v0.4882622
	c-0.0473022,0.2771835-0.1158295,0.4379005-0.2086334,0.4852104h-0.6253357c-0.3717804,0-1.9924011-0.0236549-4.8661194-0.0685196
	c-2.824585-0.0473099-4.8879547-0.0709839-6.1841125-0.0709839c-1.3907318,0-3.4280548,0.0473099-6.1173859,0.1395035v-0.9024887
	c0-0.4646111,0.4172974-0.6962967,1.2512665-0.6962967s1.5751343-0.0928078,2.2247162-0.2771797
	c0.8339691-0.2323151,1.3434601-0.6022835,1.527832-1.1111526c0.2796021-0.7417908,0.5568085-3.9405823,0.8339691-9.5909386
	c0.2796021-5.607914,0.4172974-9.3610878,0.4172974-11.2582893c0-1.9002304-0.4621887-3.499649-1.3883362-4.795784
	c-0.6495972-0.6040993-1.7389069-0.9049339-3.267334-0.9049339c-0.6016693,0-0.9025116-0.2535248-0.9025116-0.7630043
	c0-0.1867981,0.0685425-0.3718033,0.2080383-0.5567856c0.1849976,0,1.3671112,0.0236549,3.5445099,0.069149
	c1.0189667,0.0473137,1.7843933,0.0921974,2.2932739,0.1394882h1.5284424c1.0189514,0,2.8500366-0.0472908,5.4896393-0.1394882
	c2.5492096-0.0454941,4.1486053-0.092804,4.795166-0.1376724c0.0473175,0,0.1158447,0.0212097,0.2086487,0.0685234
	c0.0473022,0.0454941,0.0709381,0.2771797,0.0709381,0.6944618v0.2086563l-0.0709381,0.2796097
	c-0.0448914,0.0448647-0.1376953,0.0921745-0.2771912,0.1370621h-1.251236l-0.9734802,0.0709648
	c-0.694458,0.0927887-1.2039642,0.3008385-1.5284271,0.6259422c-0.4615784,0.5543594-0.8576508,2.5940819-1.1821289,6.1149635
	c-0.2298584,3.1035614-0.300827,4.7951736-0.2086487,5.0723381c0.4172974,0.2796249,2.0045471,0.416687,4.7624054,0.416687
	c2.7554474,0,4.6908569-0.0212288,5.8020172-0.0685425c3.0113831-0.0472908,4.6793213-0.1613274,5.0038147-0.3481445
	c0.1401062-0.5543442,0.092804-2.5019073-0.1394958-5.8377838c-0.2298889-2.9191895-0.6016846-4.6556702-1.111145-5.2124557
	c-0.2771912-0.2298698-0.7417908-0.393013-1.3907776-0.4858208l-0.7630005-0.0685234h-1.1135559
	c-0.5543823,0-0.8339844-0.3481483-0.8339844-1.0426292c0-0.232296,0.0473022-0.3481483,0.1401062-0.3481483
	c0.0473022-0.0921745,0.0921631-0.1631432,0.1394958-0.2086372l0.1376953-0.0685234
	c0.6962585,0.0448685,2.2932434,0.0921783,4.795166,0.1376724c2.5492249,0.0921974,4.2407837,0.1394882,5.0747681,0.1394882
	c0.4621887,0,1.7838135-0.0472908,3.9611816-0.1394882h1.1803284c0.4639893,0,0.8121338-0.0236549,1.0419922-0.069149h1.2512512
	c0.1395264,0.1401176,0.2104797,0.2535248,0.2104797,0.3487587v0.2080269l-0.0709534,0.1376762
	c0,0.6041145-0.2772217,0.904953-0.8339844,0.904953c-1.4829407,0-2.5467834,0.2535057-3.1957703,0.7629852
	c-0.6016846,0.5568047-0.9740601,2.4333839-1.1135864,5.6291428c0,12.6969643,0.1158447,19.3450432,0.3481445,19.9467354
	c0.1394958,0.5094757,0.6489868,0.881279,1.5302734,1.1111336c0.3226624,0.0921936,0.7181091,0.1631622,1.1802979,0.2086563
	l0.5567932,0.0709686h0.6253052l0.3481445,0.0685196l0.2771606,0.1401176
	c0.2323303,0.0921783,0.3699951,0.2535095,0.4173279,0.4852142V64.0064774z M234.7069397,54.4846725
	c-0.8339691,0.6040993-1.8529205,1.3907547-3.0587006,2.3648415l-1.5284271,1.1796761l-1.599411,1.2506561l-1.2506409,0.9055443
	l-1.2512665,0.971035c-1.0183411,0.7417717-1.8286591,1.3907547-2.4309387,1.9475632
	c-1.0207825,0.9716415-2.5940857,1.4592819-4.7260284,1.4592819c-4.3099518,0-7.8308258-1.1348076-10.5644226-3.4068451
	c-2.8718719-2.4097099-4.3075409-5.6740303-4.3075409-9.7989883v-0.7629852
	c0.0922089-2.5492172,0.9953308-4.9352913,2.7105713-7.1600189c1.2033234-1.4805107,3.0799103-3.172123,5.6291199-5.0723572
	l0.6253357-0.4858208c4.4943542-3.1060066,8.1765442-4.6574821,11.0502319-4.6574821h0.3457336
	c0.9267731,0.0473137,2.0639954,0.3008385,3.4068451,0.7648201l1.5969696,0.5567856
	c0.6041107,0.1849861,1.1348267,0.3226776,1.599411,0.4173012l-0.6944733,1.3197899l-0.6962891,1.3191795l-1.3197784,2.642025
	c-1.0183716,2.0372963-1.8759918,4.0770378-2.5704803,6.1149483l-0.2086334,0.1395073
	c-0.0921783,0-0.1867981-0.0473137-0.2796021-0.1395073c-0.1370697-0.0921974-0.2080383-0.1613312-0.2080383-0.2086411
	c0.1395111-0.4166718,0.2080383-0.9498024,0.2080383-1.5969734c0-1.4380684-0.4852142-2.5255623-1.4592896-3.2667236
	c-1.3883514-1.3907585-3.6603699-2.0852394-6.809433-2.0852394c-0.3718109,0-1.1129761,0.0448875-2.2241211,0.1401176
	c-1.0662689,0.0921783-1.7370911,0.369381-2.0166931,0.8339691c-0.9261475,1.3428383-1.3883362,3.3807449-1.3883362,6.1149673
	c0,3.6130562,1.5969849,6.3466492,4.7951813,8.1995735c2.7317963,1.5757408,6.3236237,2.3648415,10.7706299,2.3648415
	c1.3434601,0,2.7341919-0.301445,4.1698456-0.9055443c1.0662537-0.4615746,2.0852356-1.0419998,3.0587158-1.7364807
	c0.0473022-0.0472908,0.1164398-0.0685196,0.2086334-0.0685196l0.2086334,0.0685196l0.1394958,0.0685425l0.0691528,0.1401176
	V54.4846725z M201.9043579,36.4855003l-2.3642273,5.0729637l-2.430954,5.1433029
	c-1.8547363,3.8453751-3.6603699,7.2734261-5.4204865,10.2848129c-4.4021454,7.6458359-9.2688904,14.0852814-14.5947571,19.3214035
	c-5.2361145,5.1881943-10.7039185,9.3131714-16.4021912,12.3694229c-0.3245087-0.4166718-0.7648468-1.2269821-1.319809-2.4309387
	c-0.6040802-1.2506409-0.9285889-2.1319199-0.973465-2.6414032l1.5284271-0.6253281l1.4593048-0.6259384
	c1.2057648-0.5094757,2.1082764-0.881279,2.7105408-1.111145c1.8996429-0.8812637,3.5675812-1.7601166,5.0038147-2.6414032
	c3.4280853-2.1774292,7.5530396-5.9778976,12.3718414-11.3983994c-1.2985382-1.9450989-2.3168945-3.5208435-3.05867-4.7241898
	c-1.2057648-1.9475632-2.3169098-3.8926659-3.3358765-5.8377838c-2.5019073-5.0038147-4.7715149-10.8203697-6.811264-17.4448318
	c-0.0927887-0.3244705-0.393631-0.5331116-0.9030914-0.625309l-0.7648468-0.1401176h-1.5969543
	c-0.2323151,0-0.3481598-0.160717-0.3481598-0.4852104c0-0.2771835,0.0685425-0.4173012,0.2080536-0.4173012
	c5.188797-1.3907547,9.1972961-2.9185753,12.0236969-4.5865135c0.2777863,1.482933,0.647171,3.0586967,1.1117554,4.7266312
	c0.6016846,2.3144989,1.2743073,4.5392265,2.016098,6.6717529c2.0845947,5.8377838,4.4918823,10.4691849,7.2261047,13.8978691
	c1.3434448-2.2702217,2.457016-5.2573586,3.3358765-8.9656296c0.3244934-1.3883324,0.6726379-3.1272354,1.0426025-5.2118454
	l0.4876404-2.7790871l0.5543671-2.850666l0.0709686-0.416687v-0.3457069c0-1.2985573-0.5561829-1.9475441-1.6679382-1.9475441
	h-0.9049377c-0.1843719,0.0473137-0.4852142,0.0709686-0.9024963,0.0709686c-0.2323151,0-0.3481445-0.2086411-0.3481445-0.6253281
	c0-0.1401215,0.0236359-0.2559509,0.0709381-0.3487587c0.0448914-0.0921974,0.1134338-0.1395073,0.2086639-0.1395073
	c7.505722-0.9716454,11.4669037-1.4592819,11.883606-1.4592819c0.6022797,0,1.0426025,0.0236588,1.319809,0.0709686
	c0.3699646,0.1370621,0.5567627,0.393013,0.5567627,0.7630005c0,0.2796097-0.0921783,0.5088692-0.2796021,0.6962967
	L201.9043579,36.4855003z M167.2239838,60.8792419c-1.0662689,0.369381-2.22229,0.9953194-3.4759827,1.8765984l-0.7624054,0.5567894
	l-0.8339691,0.5543442c-0.6495819,0.416687-1.3670959,0.7890854-2.1561737,1.1135941
	c-0.4621887,0.0921783-0.8339691,0.1370621-1.1111603,0.1370621c-1.3434448,0-2.4097137-0.4852142-3.1963654-1.4592972
	c-1.0183563-1.2033272-2.1082764-2.4309425-3.2667542-3.6815796l-1.3907471-1.5994186l-1.3883362-1.5278206
	c-2.2702179-2.5498276-4.5871277-5.2361069-6.951355-8.0625076v8.1995735c0,0.4646111,0.0236511,0.9049339,0.0709686,1.3222351
	c0.0448761,0.5543442,0.1370697,1.063839,0.2771759,1.5278206c0.3717957,1.1584587,0.9971161,1.9002304,1.8765717,2.2247238
	c0.1843872,0.0454788,0.4403381,0.0927887,0.7648468,0.1376762h0.8339691c0.2322845,0,0.6495667-0.0212135,1.2512512-0.0685234
	h0.8339691c0,0.0921974-0.0236664,0.2080307-0.0709686,0.3481483l-14.5947571,2.1537552
	c0.6489716-10.9344025,0.8812714-20.0631752,0.6968842-27.3814697c-0.0479126-1.2985802-0.5567932-1.9475632-1.5308533-1.9475632
	c-0.2298889,0-0.7630005,0.0921974-1.5969696,0.2796249l-1.9475555,0.6944618v-0.6944618
	c8.0176239-2.1325493,13.0426636-3.9612064,15.0830078-5.4920807c0.0921936,0.0928078,0.1843872,0.2086411,0.2771759,0.3487587
	c-0.7866516,0.5088654-1.2749023,1.4356232-1.4598999,2.7790871c-0.6016693,4.0321732-0.9024963,8.619297-0.9024963,13.7601776
	c3.705246-2.3617897,6.9962311-4.9116173,9.8681183-7.6427879c0.416687-0.4172783,0.6253357-0.8127365,0.6253357-1.182724
	c0-0.5094795-0.393631-1.0656738-1.1821136-1.6679382l-1.0426025-0.6938515l-0.9716492-0.696907
	c-0.3245087-0.2771797-0.4876556-0.4615746-0.4876556-0.5543633c0-0.0921783,0.0709686-0.1394882,0.2080383-0.1394882
	c0.2796173,0,0.5119019,0.0685234,0.6968994,0.2086411c0.973465,0.3244934,2.2010651,0.6253281,3.6815796,0.9024925
	c1.8080444,0.3244896,3.3146515,0.488266,4.5179901,0.488266h0.2771912c1.2985687-0.047924,2.4806824-0.2086411,3.546936-0.488266
	l0.5543671-0.2086411l0.4858398-0.1370621c0.3717804-0.0928078,0.6253052-0.1637764,0.7654114-0.2086411
	c0.1395111,0,0.3481598,0.0448647,0.6253357,0.1370621c0.2796173,0.1401176,0.3930206,0.2323151,0.3481445,0.2796059
	c-0.1849976,0.1849861-2.6177521,1.8765984-7.2970734,5.0729675l-1.319809,0.9734764l-1.3222198,0.9024925
	c-0.9734497,0.6495743-1.7601166,1.182724-2.3617859,1.5994148c-1.6230621,1.1111298-2.572876,1.7819557-2.8500671,2.0136414
	c0.8812866,0.881279,1.9451294,2.0166969,3.1957703,3.4074516l1.4593048,1.6679382l1.5308685,1.5278206
	c2.3169098,2.4546165,5.0038147,4.7266541,8.0625153,6.8118706c0.8788452,0.5088692,1.5727081,0.762394,2.08461,0.762394
	c0.1849823,0,0.5094757-0.0448875,0.9716492-0.1370621V60.8792419z"/>
<path style="fill-rule:evenodd;clip-rule:evenodd;fill:#FFFFFF;" d="M269.6317444,121.0718002
	c-6.8567505,2.4545975-11.3510742,4.4943314-13.4836121,6.1149521c-0.1394958-0.1843719-0.3008423-0.3457108-0.4858246-0.4852142
	c0-0.3250885-0.0236664-0.7890778-0.0709686-1.3907471l0.2796173-5.7668228
	c-3.9848633,3.4280548-7.6452332,5.6291351-10.9811096,6.6007919c-1.7134247,0.508873-3.3813629,0.7648239-5.0038147,0.7648239
	c-0.694458,0-1.2961426-0.0685425-1.8080444-0.208046c-1.9451294-0.6022797-3.3358765-1.4150085-4.1698456-2.4333572
	c-1.0638428-1.3883362-1.5969696-3.520874-1.5969696-6.3921509v-0.9049301l0.0691376-0.9716568
	c0.3244934-5.7000961,0.4852142-10.3320999,0.4852142-13.9002914v-1.1820984
	c-0.0448608-0.5094757-0.0921783-0.9267731-0.1370544-1.2512665c-0.2323151-0.9261475-0.6253357-1.3883362-1.1821289-1.3883362
	h-0.9031067c-0.6489868,0-1.1584473,0.0448914-1.5302734,0.1376953v-0.2086411l-0.0685272-0.1376953V97.929306l0.0685272-0.2086411
	c2.2720642-0.0921783,4.610199-0.3481293,7.0198975-0.7648163c1.852951-0.3251038,3.4759979-0.6708298,4.8643341-1.0426102
	l0.6962891-0.1376953c0.2322845,0,0.3457031,0.0928116,0.3457031,0.2771835v0.2086411
	c-0.0448608,0.1376953-0.0685425,0.2535248-0.0685425,0.3481445c0,0.7393494-0.0448761,1.7128296-0.1394806,2.9192123
	l-0.1376801,1.6679382l-0.1395111,1.7364578c-0.2322845,3.1508942-0.3487549,5.5818329-0.3487549,7.297081
	c0,3.9375381,0.5331573,6.5322571,1.5993958,7.7828979c1.4356689,1.7607346,3.127243,2.6420135,5.0723572,2.6420135
	c0.4645996,0,1.1135864-0.0927963,1.9475555-0.2771759c0.8794556-0.1874161,1.7370758-0.4409332,2.5710449-0.7654343
	c2.1319275-0.7890854,3.3122253-1.6915817,3.5439148-2.7105484c0.092804-3.8926697,0.1401062-7.3207245,0.1401062-10.2848129
	v-2.9895401c0-1.6206284-0.1164398-2.8482437-0.3481445-3.6822128c-0.3699799-1.2057495-0.995285-1.8310776-1.8765717-1.8765793
	h-0.4858246l-0.416687-0.070961h-0.488266c-0.7866516,0-1.1796722-0.0236588-1.1796722-0.0685425v-0.4858246l13.8978577-1.8074417
	c-0.5543518,5.1433182-0.8339539,10.8864822-0.8339539,17.2361755c0,1.3883362,0.0473022,3.5657425,0.1394958,6.5316467
	c0.0473022,1.2961349,0.5567932,1.9451141,1.5284424,1.9451141c0.3244934,0,0.764801-0.0921783,1.3215942-0.2771759
	l0.5543823-0.1394958l0.5567627-0.1376877c0.4172974-0.0946198,0.8103333-0.2086411,1.1827393-0.3481445V121.0718002z
	 M205.8328094,96.3299103c-0.3244934,0.0473099-0.6253204,0.1164627-0.904953,0.2086563
	c-0.87883,0.2322769-1.3883057,0.6016541-1.5284271,1.1135559c-0.2316895,0.6016922-0.3481445,7.2497711-0.3481445,19.9443054
	c0.0921936,1.6679382,0.2323151,2.9895477,0.4172974,3.9612045c0.9261627,0.092186,2.9658813,0.1874008,6.1173859,0.2795944
	c3.7974548,0.1376877,5.9063263,0.1376877,6.322998,0l-0.1395111-16.4021988
	c-0.2298431-4.679306-0.5780029-7.4371796-1.0426025-8.2711487c-0.1370697-0.4615555-0.6016541-0.7411804-1.3883209-0.8339691
	h-0.3481445l-0.4172974-0.0685425c-0.4166718-0.0473099-0.7866669-0.0685196-1.111145-0.0685196
	c-0.8812714-0.1401215-1.3216095-0.3481674-1.3216095-0.625946v-0.2080231l0.0709686-0.2110901
	c0-0.1849823,0.068512-0.3008347,0.2086334-0.3457184c0.1370697-0.0473099,0.416687-0.0691376,0.8339691-0.0691376
	c0.2771759,0,1.921463,0.0218277,4.9322357,0.0691376c3.0113831,0.0448837,5.1439362,0.0685577,6.394577,0.0685577
	c1.4835663,0,3.4759979-0.0448837,5.9779053-0.1376953v0.8339691c-0.0473175,0.2298737-0.187439,0.3936462-0.4172974,0.4858246
	l-0.2796173,0.1401215l-0.3457031,0.0685196h-0.6253204l-0.5567932,0.0685425
	c-0.4646149,0.0473099-0.8576202,0.1164627-1.1821136,0.2086563c-0.8794556,0.2322769-1.3883362,0.6016541-1.5284576,1.1135559
	c-0.2322693,0.6016922-0.3481445,7.2497711-0.3481445,19.9443054c0.1395111,3.1981888,0.509491,5.0747681,1.1136017,5.6291428
	c0.6465302,0.5094681,1.7128143,0.765419,3.195755,0.765419c0.5567932,0,0.8339691,0.3008347,0.8339691,0.9025192
	l0.0691528,0.1400909v0.208046c0,0.0927963-0.0691528,0.2086411-0.2086639,0.3481445h-1.2512512
	c-0.2298737-0.0473099-0.5780182-0.0709763-1.0419922-0.0709763h-1.1802979
	c-2.1774292-0.0921707-3.4990234-0.1370621-3.9611969-0.1370621h-44.6886139
	c-0.5088806,0.0448914-1.2743073,0.0921783-2.2932739,0.1370621c-2.1773987,0.0473175-3.3595123,0.0709763-3.5445099,0.0709763
	c-0.1370697-0.1868134-0.2080231-0.3718109-0.2080231-0.5561905c0-0.5094681,0.300827-0.765419,0.9024963-0.765419
	c1.5302582,0,2.6177521-0.3008423,3.2673492-0.9025192c0.9261627-1.2985611,1.3907471-2.895546,1.3907471-4.7957687
	c0-1.9002457-0.1401215-5.6527863-0.4172974-11.2582855c-0.2771759-5.653389-0.5567932-8.8491516-0.8339691-9.5909424
	c-0.1849823-0.5094757-0.6938629-0.881279-1.5302582-1.1111526c-0.6471558-0.1868134-1.3883209-0.2796021-2.22229-0.2796021
	s-1.2512665-0.2322998-1.2512665-0.6938705V94.732933c2.6869049,0.0928116,4.7266388,0.1376953,6.1149597,0.1376953
	c1.298584,0,3.3595428-0.023674,6.1859283-0.0685577c2.8719025-0.0473099,4.494339-0.0691376,4.8643036-0.0691376h0.6253357
	c0.0921936,0.0455017,0.1637726,0.2086411,0.2086334,0.4858246v0.4858398c0,0.1849823-0.0921783,0.3244705-0.2771606,0.4172821
	c-0.1401215,0.0921783-0.2771759,0.1394882-0.4172974,0.1394882l-2.2932739,0.2086411
	c-0.5094757,0.0921936-0.9024811,0.3693771-1.1821136,0.8339691c-0.4621429,0.7866592-0.694458,3.7052536-0.694458,8.7563782
	l0.2086334,15.4287262c0.5568085,0.0921936,2.7554626,0.2086411,6.603241,0.3481445
	c3.1035614,0.092186,5.0960083,0.1134262,5.9748383,0.0685425c0.1401215-0.3718033,0.2559509-0.7866592,0.3487701-1.2506561
	l-0.1401215-11.1897354c0-0.6944733-0.0212097-1.4125977-0.0685272-2.1537704
	c-0.2771759-5.653389-0.5568085-8.8491516-0.8339691-9.5909424c-0.1849823-0.5094757-0.6944733-0.881279-1.5284424-1.1111526
	c-0.6489868-0.1868134-1.3907623-0.2796021-2.2247314-0.2796021s-1.2506409-0.2322998-1.2506409-0.6938705V94.732933h1.3907623
	c0.2771759,0,1.921463,0.0218277,4.9328461,0.0691376c1.1584625,0,2.1768036,0.023674,3.0587006,0.0685577
	c0.8788452-0.0448837,1.8523254-0.0685577,2.9185638-0.0685577c2.8712921-0.0473099,4.494339-0.0691376,4.8643341-0.0691376
	h1.5302582v0.8339691c-0.0473022,0.2298737-0.1874237,0.3936462-0.416687,0.4858246l-0.2796021,0.1401215l-0.3463287,0.0685196
	h-0.3481598L205.8328094,96.3299103z M167.6079254,98.0688095l-2.3624268,5.0729523l-2.4333649,5.1433182
	c-1.8523254,3.8453445-3.6603699,7.2734222-5.4205017,10.2848129c-4.4021301,7.6458282-9.2658539,14.085289-14.5947571,19.3214035
	c-5.2355042,5.1881866-10.7014923,9.31073-16.4021988,12.3694153c-0.3220596-0.416687-0.7624054-1.2269897-1.319191-2.4327545
	c-0.6022797-1.2512665-0.9267578-2.1301117-0.9740677-2.6395874l1.5308533-0.6253204l1.4592972-0.6259308
	c1.2033539-0.5088806,2.1082764-0.8812866,2.710556-1.1129761c1.8996277-0.8794556,3.5675659-1.7607422,5.0038147-2.6395874
	c3.4280701-2.1774292,7.5505981-5.9772949,12.3694153-11.3983917c-1.2961273-1.9451218-2.3169098-3.520874-3.0586853-4.7266235
	c-1.2033386-1.9451294-2.3144989-3.8902512-3.3358765-5.8377838c-2.5019073-5.0038147-4.7715149-10.817955-6.8088226-17.4423981
	c-0.092804-0.3244934-0.393631-0.5331268-0.9055481-0.6253281l-0.7623901-0.1395035h-1.599411
	c-0.2322998,0-0.3481445-0.1637573-0.3481445-0.4858017c0-0.2796097,0.0709686-0.417305,0.2080383-0.417305
	c5.1912384-1.3907547,9.1973267-2.9185715,12.0243225-4.5865097c0.2771759,1.4805069,0.6489868,3.0562668,1.111145,4.724205
	c0.6040955,2.3169022,1.2743225,4.541626,2.0160828,6.6717529c2.0846252,5.8377762,4.494339,10.4716034,7.2285614,13.9002762
	c1.3434296-2.2696075,2.4545898-5.2597656,3.3358765-8.9650192c0.3244629-1.3907471,0.6701965-3.1278305,1.0426025-5.2124557
	l0.4852142-2.779068l0.5567932-2.8500748l0.0691528-0.4172821V99.249115c0-1.2961578-0.5543823-1.945137-1.6679382-1.945137
	h-0.9031219c-0.1843872,0.0448837-0.4852295,0.0685577-0.9049377,0.0685577c-0.2298737,0-0.3457031-0.2086563-0.3457031-0.6253281
	c0-0.1376953,0.0236359-0.2535248,0.068512-0.3481445c0.0473175-0.0928116,0.1164551-0.1376953,0.2086487-0.1376953
	c7.505722-0.9734573,11.4669189-1.4592972,11.8842316-1.4592972c0.6016541,0,1.0419922,0.023674,1.3215942,0.0685577
	c0.3699799,0.1400833,0.5543671,0.393013,0.5543671,0.7654114c0,0.2771988-0.0921936,0.509491-0.2771759,0.6938705
	L167.6079254,98.0688095z"/>
<path style="fill-rule:evenodd;clip-rule:evenodd;fill:#D6222D;" d="M351.8131714,174.1261902v-0.5210114
	c0-0.3487396-0.0121155-0.9740753-0.0333862-1.8765717c-0.0236206-0.8788605-0.0357666-1.5375366-0.0357666-1.9784851
	l0.0357666-0.6586914v-0.6253204c-1.3907166-1.7601318-3.2315063-2.6395874-5.5229492-2.6395874
	c-1.2033691,0-2.1865234,0.3699799-2.9519653,1.1111603c-0.7175293,0.7181091-1.0990295,1.5854492-1.1438904,2.6037903v0.1728668
	c0,1.7134247,0.9024963,3.104187,2.7075195,4.1680298c1.5520935,0.9261627,3.2060852,1.3883209,4.9661865,1.3883209h0.241394
	c0.7418213,0,1.3082886-0.2298737,1.7037048-0.6944733L351.8131714,174.1261902z M351.6045532,179.4381104
	c0.0473022-1.111145,0.1043091-2.5231323,0.1752319-4.236557c-0.2086182,0.1400909-0.4524536,0.3008423-0.7296143,0.4858246
	c-0.3717651,0.2559509-0.7532959,0.497345-1.1469421,0.7296448c-1.0874939,0.6708221-2.1749573,1.2961426-3.2649231,1.8765717
	c-0.5779724,0.3008423-1.0874634,0.4500427-1.527832,0.4500427h-0.4148254
	c-1.3907776-0.0448761-2.7318115-0.6253204-4.0297546-1.7364655c-1.3883362-1.1796875-2.0828247-2.4758301-2.0828247-3.8878174
	v-0.2796173c0.1164856-1.504776,0.6944885-2.9167633,1.7365112-4.2365417
	c0.9479675-1.1797028,2.0827942-2.0821991,3.4025574-2.7075195c0.3008728-0.1401215,0.6374817-0.3008423,1.0068359-0.4858398
	l0.8697815-0.4524536c0.7623901-0.393631,1.3076477-0.6586914,1.6321106-0.7987976
	c1.1323853-0.5331268,2.1750488-0.798172,3.1248474-0.798172c0.4384766,0,1.0068054,0.0685272,1.7012939,0.2086334v-2.1871185
	c0-1.08992-0.0236816-2.928299-0.068573-5.5223999c-0.0952148-0.6471558-0.36026-0.9716492-0.8012085-0.9716492
	c-0.2080078,0-0.4615479,0.0570221-0.7623596,0.1728668c-0.0236816,0.0236511-0.1516418,0.0594482-0.3815308,0.1043243
	c-0.2559509,0.0685272-0.4409485,0.1043091-0.5567932,0.1043091c-0.0691223,0-0.1043091-0.0115204-0.1043091-0.0357819v-0.1728516
	c2.9398193-0.7866669,5.4750671-1.8523254,7.6051941-3.1933441v0.3457184
	c-0.3693542,0.2322845-0.5901489,0.6726379-0.6587219,1.3197937c-0.0921631,0.7411652-0.1873779,1.5636139-0.2795715,2.4661255
	c-0.1376953,1.203949-0.25354,2.4545898-0.3457336,3.7507324c-0.2559204,3.4256439-0.3815002,6.7827454-0.3815002,10.0688934
	c0,2.0142517,0.0449219,3.8665771,0.137085,5.5563507c0.0473022,0.8097076,0.4051819,1.3191833,1.0783691,1.527832
	c0.0922241,0.0236511,0.25354,0.0357819,0.48526,0.0357819c0.1613159,0,0.3936157-0.0236511,0.694458-0.0691376
	c0.2771912-0.0236511,0.4500122-0.0351868,0.5209961-0.0351868c0.0691528,0,0.1043396,0.0115356,0.1043396,0.0351868
	c0,0.0691376-0.0115356,0.1613312-0.0351868,0.2771759L351.6045532,179.4381104z M338.8960571,177.8053589
	c-1.0189514,0.0715637-2.0943298,0.197113-3.2290955,0.3839264c-0.8339844,0.1376801-1.6564331,0.300827-2.4667664,0.4858246
	l-0.3457031,0.0685272l-0.1401062,0.0357971l-0.1043396,0.0685272c-0.0685425,0.0236511-0.1158142,0.0357971-0.1394653,0.0357971
	c-0.0449219,0-0.0685425-0.0594482-0.0685425-0.175293v-0.2420044c0-0.3481445,0.0236206-0.7981873,0.0685425-1.3549652
	l0.0357666-0.7296448l0.0351562-0.7987976c0.0928345-1.3646698,0.1376953-2.4424591,0.1376953-3.229126
	c0-2.1064606-0.2893066-3.4947815-0.8673096-4.1674194c-0.7181396-0.8788452-1.527832-1.3197937-2.4309387-1.3197937
	c-0.7411804,0-1.6321716,0.3602753-2.6747742,1.0783997c0,0.4615631,0.0236511,0.8430634,0.0709534,1.1463165
	c0,0.1849976,0.012146,0.4263916,0.0333557,0.7272339v0.694458c0,0.5804596-0.012146,1.3907623-0.0333557,2.430954
	l-0.0709534,1.1821136v2.0136566c0,0.2086487,0.012146,0.4051514,0.0357666,0.5901337
	c0.0236511,0.25354,0.0563965,0.4736938,0.1043396,0.6586914c0.1158447,0.4882507,0.3244934,0.7296448,0.6253052,0.7296448
	h0.3815002l0.4167175,0.0357819c0.184967,0,0.3244629-0.0121307,0.4172668-0.0357819
	c0,0.1395111-0.012146,0.2771912-0.0357971,0.416687c-0.5331116,0.0242615-1.1560059,0.0357819-1.8741455,0.0357819h-1.7364807
	c-1.2749023,0.0236511-2.1416321,0.0806732-2.6038208,0.1728516l-0.0709229,0.0357971l-0.0685425,0.0327454
	c-0.0691528,0.0242615-0.1279602,0.0357819-0.1734619,0.0357819c-0.0473328,0-0.0825195-0.0236511-0.1037292-0.0685272
	c-0.0479126-0.0236511-0.0715637-0.0709686-0.0715637-0.1401062l0.0715637-0.9025116
	c0.0448914-0.4858246,0.0800781-0.8788605,0.1037292-1.1796875l0.1043091-1.3197937
	c0.0691528-1.0189514,0.1043396-1.921463,0.1043396-2.710556c0-2.1058502-0.2322998-3.6106262-0.6963196-4.5131226
	c-0.414856-0.7630157-1.3883057-1.1469421-2.9167786-1.1469421c-0.6016541,0-1.2366638,0.2680817-1.9093323,0.8006134
	c-0.0691223,1.0165253-0.1043091,2.2677765-0.1043091,3.7483063c-0.0236511,0.5567932-0.0333557,1.1821136-0.0333557,1.8765869
	v1.6679382c0,0.7866516,0.0570374,1.3883362,0.1728516,1.8050079c0.1613464,0.6022797,0.4500427,0.9358673,0.8673401,1.007431
	h0.2796021c0.0921936,0,0.2298889-0.0121307,0.414856-0.0357819h0.59198c0.0212402,0,0.0333557,0.0357819,0.0333557,0.1043243
	c0,0.0685272-0.0121155,0.1613312-0.0333557,0.2771759l-6.8421936,0.8339691
	c0.2559509-2.3144836,0.3815002-5.0013885,0.3815002-8.0552216v-1.6327667
	c-0.0212097-0.6253357-0.0448914-1.2033386-0.0691528-1.7364807c-0.0236511-0.6701965-0.2650452-1.0068207-0.7296143-1.0068207
	c-0.2080688,0-0.4500732,0.0570068-0.7272339,0.1728516c-0.163147,0.0473175-0.3366089,0.0921936-0.5209961,0.1395111
	l-0.2796326,0.0691376c-0.1140137,0.0473022-0.2183228,0.0806732-0.3105164,0.1043243v-0.312973
	c3.7956238-1.2961273,6.226532-2.3144836,7.2904053-3.0562744c0.0921631,0.0709686,0.1516113,0.1395111,0.1752625,0.2086487
	c-0.1401062,0.2559509-0.2559509,0.7532959-0.3487549,1.4950867c0,0.0685272-0.0115051,0.1728516-0.0351562,0.3099365
	l-0.0685425,0.3839264c-0.0454712,0.393631-0.080658,0.7393494-0.1043396,1.0401917l0.7648621-0.5191956l0.7630005-0.5919647
	c0.6707764-0.4858246,1.203949-0.8673248,1.5969543-1.1445007c1.2269897-0.810318,2.1774597-1.2391357,2.8476562-1.286438h0.6259155
	l0.6586914,0.0709534c0.4639893,0.0691528,0.8339844,0.2298737,1.111145,0.4858246
	c0.8812561,0.7866669,1.3786316,1.8741608,1.4944763,3.2649231c1.0638428-1.08992,2.5473938-2.117981,4.4452209-3.0920563
	c0.6938477-0.3693848,1.4356079-0.5543671,2.2222595-0.5543671c0.3008423,0,0.5543823,0.0333557,0.7624207,0.1043243
	c1.0189514,0.3457184,1.7249451,0.7981873,2.1185913,1.3525543c0.5331116,0.7181091,0.7981873,1.8414001,0.7981873,3.3692322
	v0.7296448c-0.0212708,0.4858246-0.0449219,0.9716492-0.068573,1.4574738v1.1463318
	c0,0.2771759,0.0236511,1.5520935,0.068573,3.8192749v0.5901489c0.0236511,0.2559509,0.0472717,0.4639893,0.0709229,0.6253204
	c0.0928345,0.4858246,0.2771912,0.7296448,0.5543823,0.7296448h0.2771606l0.3129883-0.0351715
	c0.2322693-0.0218353,0.4403381-0.0691528,0.6253052-0.1376953c0.0473328,0.0448914,0.0709839,0.1255646,0.0709839,0.2414093
	C338.9312439,177.7489471,338.9197083,177.7841187,338.8960571,177.8053589z M308.337616,176.4170227
	c-0.1613159,0.2086334-0.3815002,0.4524689-0.6611023,0.7296448l-0.7272034,0.7630005
	c-0.6490173,0.6732483-1.1020813,1.203949-1.355011,1.5969849c-0.7866211-0.4858246-1.4362183-0.9025116-1.9457092-1.2488251
	c-0.7174988-0.5088806-1.2033386-0.914032-1.4568787-1.2148743c0.2771912-0.3699799,0.6944885-0.8582306,1.2488403-1.4598999
	c0.6016846-0.6702118,1.0990295-1.1560364,1.4950867-1.4568634c0.4142456,0.300827,0.9831543,0.6823425,1.7006836,1.1445007
	C307.33078,175.7583466,307.8966675,176.1398468,308.337616,176.4170227z M226.4903717,173.7780457
	c-0.2086334,0.4639893-0.4645844,0.9025116-0.7654266,1.3191833l-0.2086334,0.2444153l-0.1728668,0.2771912
	c-0.1613312,0.2322998-0.3129578,0.4621735-0.4500427,0.6938629c-0.6968842,1.203949-1.5872803,2.0021362-2.6747742,2.3957672
	c-0.7866516,0.2796021-2.0943146,0.4288177-3.923584,0.4524689c-0.8339691,0-1.7249603-0.1164551-2.6747742-0.3487549
	c-0.810318-0.2080383-1.445343-0.4263763-1.9099579-0.6580811c0.3008423-0.1849823,0.5689392-0.5786133,0.7988129-1.1802826
	c0.1843719-0.4403381,0.3815002-1.0304871,0.5895386-1.7722626c0.4172821-1.5514984,0.673233-2.3266296,0.7654114-2.3266296
	c0.0448914,0,0.0921936,0.0121307,0.1401215,0.0357819c0.0448914,0.0236664,0.0685272,0.0448914,0.0685272,0.0685425
	c-0.1400909,0.3699799-0.2086487,0.6708069-0.2086487,0.9031219c0,0.300827,0.1401215,0.556778,0.4172974,0.7648163
	c0.717514,0.6016693,1.6085052,1.0638428,2.6723328,1.3883362c0.9025269,0.2771759,1.8171539,0.4172821,2.7433014,0.4172821
	c0.6732635,0,1.2512817-0.0806732,1.7370911-0.2438202c0.1607208-0.0454865,0.3008423-0.1376801,0.4166718-0.2777863
	c0.0685425-0.0921936,0.1401215-0.2080383,0.2086639-0.3481445v-0.1370697c0-0.6016693-0.4973602-1.182724-1.4926605-1.7370911
	c-0.3481445-0.2080383-0.776947-0.4166718-1.2864227-0.6253204c-0.1850128-0.0685425-0.3936462-0.1394958-0.6235199-0.2086487
	l-0.2789917-0.103714l-0.2420197-0.1043243l-0.1752625-0.0691376l-0.1728821-0.0709686l-0.7629852-0.2771759l-0.8339691-0.2771759
	c-0.6726379-0.2322998-1.2154694-0.4524689-1.6321564-0.6586914c-1.203949-0.6040955-1.8056335-1.3313141-1.8056335-2.1889496
	c0-0.694458,0.3366394-1.3531342,1.0068359-1.9784698c0.2086334-0.2086334,0.5331421-0.4645844,0.9716492-0.7654266
	l0.5210114-0.3815002l0.5216064-0.416687c1.3883362-1.1348114,3.2976685-1.9451294,5.7285919-2.4309387
	c0.1158752-0.0236664,0.2438354-0.0333557,0.3839417-0.0333557h0.3099518c0.1873932,0,0.7083893,0.0570068,1.564209,0.1734619
	c0.2080383,0,0.3123627,0.1158447,0.3123627,0.3457031v0.0709686l-0.0351868,0.0685425
	c-0.4858246,1.3883362-0.9031067,2.6844635-1.2488251,3.8902435c-0.4172974-0.4403381-0.6944733-0.7059937-0.8339691-0.8006134
	c-0.9716339-0.9237366-2.117981-1.3883362-3.4377899-1.3883362c-0.6016541,0-1.0874786,0.1401062-1.4592743,0.4172974
	c-0.3463287,0.2553406-0.5216217,0.5658722-0.5216217,0.9376831c0,0.5094757,0.3251038,0.9031067,0.9740906,1.1802979
	c1.1111298,0.4403229,2.1864929,0.8788452,3.229126,1.3197784c0.3008423,0.1394958,0.7296448,0.3244934,1.2839966,0.5567932
	l0.6253204,0.2414093l0.625946,0.2771606c1.111145,0.4645996,1.6655121,1.0541382,1.6655121,1.7722626
	c0,0.2322998-0.0448914,0.4973602-0.1376801,0.7981873l-0.1394958,0.4172974L226.4903717,173.7780457z M299.1354675,154.2267761
	c0,0.2796021-0.163147,0.4172821-0.4858398,0.4172821h-0.5209961c-0.2559814,0-0.4858398,0.0115204-0.6944885,0.0351868
	c-0.6016846,0.0454865-0.9734497,0.1400909-1.1111145,0.2771759c-0.3245239,0.393631-0.5446777,1.7722626-0.6605225,4.1322327
	c-0.0242615,0.9025116-0.0455017,2.0045624-0.0691528,3.3000946v6.9089203c0,1.3907471,0.012146,2.5704346,0.0357971,3.5420685
	c0.0448608,2.4546204,0.1965027,3.9254303,0.4500427,4.4112549c0.068512,0.0691376,0.184967,0.1492004,0.3481445,0.2420044
	c0.184967,0.0921936,0.3699646,0.163147,0.5543518,0.2080383l0.6611023,0.0715637l0.6228943,0.0685425h0.1043396
	l0.1401062,0.0685272c0.0921936,0.0473175,0.1516418,0.1279755,0.1728516,0.2444305
	c0,0.0448761-0.012146,0.0921936-0.0333557,0.1394958v0.1728668c0,0.0685425-0.0351868,0.1043243-0.1043091,0.1043243
	l-0.1036987,0.0333557h-0.2444763c-0.1607056,0-0.8339539-0.0097046-2.0136108-0.0333557
	c-1.2033691-0.0236511-2.1537781-0.0357819-2.8476562-0.0357819h-1.4926453
	c-0.8576355,0.0242615-1.5162964,0.0357819-1.980896,0.0357819c-1.1323853,0-1.7012939-0.0236511-1.7012939-0.0709534
	c-0.0236511,0-0.0327454-0.033371-0.0327454-0.1043243c-0.0236816-0.0685425-0.0358276-0.1376801-0.0358276-0.2062225
	c0-0.2322998,0.0806885-0.3602753,0.2438354-0.3839264h0.2771912c0.0691223,0,0.1613159-0.0115204,0.2771606-0.0327606h0.3487549
	c0.3457336-0.0473022,0.6350708-0.0830841,0.8667297-0.1043243c0.7417908-0.0927887,1.1705933-0.2680817,1.2846375-0.5216064
	c0.163147-0.3481445,0.3008423-1.8050232,0.4166565-4.3754578c0.1158447-2.4545898,0.175293-4.8976746,0.175293-7.3261871
	c0-3.5202637-0.0351868-5.9039001-0.1043091-7.154541c-0.1158447-1.9669647-0.3123779-3.065979-0.59198-3.2982788
	c-0.1613464-0.1394958-0.4506531-0.2322998-0.8673096-0.2771759c-0.1850281-0.0236664-0.3693848-0.0473175-0.5567932-0.0709686
	h-0.4500427c-0.4621887,0-0.6944885-0.1255493-0.6944885-0.3815002c0-0.1613312,0.0806885-0.3008423,0.2420044-0.4172821
	c0.0709839,0,0.3123779,0.0121155,0.7296448,0.0357819h0.5901489l0.6605225,0.0333557
	c1.2488098,0.0473022,1.9784851,0.0709534,2.1871033,0.0709534c0.4639893,0,1.4714355-0.0236511,3.0204773-0.0709534
	c1.5284424-0.021225,2.4667358-0.0454865,2.8148804-0.0691376c0.0448914,0.0479126,0.0806885,0.1043091,0.1019287,0.1734619
	C299.1118164,154.1133423,299.1354675,154.1818848,299.1354675,154.2267761z M288.1610413,178.4998322
	c0,0.0709534-0.0115662,0.1394958-0.0327454,0.2086334c-2.0852661-0.092804-3.3577271-0.1376801-3.8217163-0.1376801
	c-1.4811401,0-2.6486816,0.0121307-3.5063171,0.0333557c0-0.0927887,0.0115051-0.1965179,0.0351562-0.3105469v-0.3839264
	c0-0.1370697,0.012146-0.3930206,0.0334167-0.7630005l0.0351257-0.4852142v-0.5216064
	c0.0479431-0.9025116,0.0691528-1.7486115,0.0691528-2.534668v-0.6944733l-0.0333557-0.7296448
	c-0.0921936-2.9877319-0.1849976-5.4277649-0.2796021-7.3280029c-0.137085-2.731781-0.2886963-4.7454376-0.4500427-6.0415802
	l-2.9519348,7.3280029c-1.2512512,3.1011658-2.3623962,5.7759247-3.3334656,8.0200653
	c-1.1347961,2.6626282-1.8056335,4.121933-2.0142822,4.3754578h-0.3123474l-0.2771606,0.0357819
	c-0.3724365,0-0.6611328-0.1752777-0.8697815-0.5209961c-0.184967-0.2322998-0.6137695-1.2391357-1.2839966-3.0211029
	l-0.2438049-0.6611023c-0.7393494-1.8978119-1.620636-4.1765137-2.6371765-6.8397675
	c-1.3907471-3.6342926-2.6747742-6.655365-3.855072-9.0620575l-0.0351868,1.6297302l-0.068512,1.7364807
	c-0.0236511,1.5284424-0.0479126,2.7081146-0.0715637,3.5420837c-0.0685425,2.8027496-0.1037292,5.0135345-0.1037292,6.6341553
	v4.1316376l0.0709839,0.4172821l0.0327454,0.3457184c0.0479126,0.2322998,0.0715637,0.3602753,0.0715637,0.3815002
	c0.137085,0.2086487,0.3123474,0.3481445,0.5185852,0.416687c0.7417603,0.1874084,1.3786011,0.2796021,1.9117737,0.2796021
	c0.2086182,0.092804,0.3129578,0.1734619,0.3129578,0.2420044v0.3481445l-0.1395264,0.0685425l-1.1802979-0.0351868
	l-1.0777588-0.0333557c-0.8339844-0.0236511-1.4690247-0.0357819-1.9099731-0.0357819
	c-1.5726929,0-2.8809814,0.0242615-3.9229736,0.0691376v-0.0691376l-0.0357971-0.0351715
	c-0.0236511-0.0212402-0.0333557-0.0570221-0.0333557-0.1043243v-0.1728668c0-0.2086487,0.2771912-0.334198,0.8321533-0.3815002
	c0.5561829-0.0685425,0.9613342-0.312973,1.2148743-0.7296448c0.092804-0.25354,0.2796021-1.3531494,0.5567932-3.2982788
	c0.2535095-1.8523254,0.4743042-3.7386017,0.6586609-5.6600647c0.1401367-0.8339691,0.3487549-2.6747742,0.625946-5.5223999
	c0.3008423-2.9853058,0.4524536-4.8618927,0.4524536-5.6248932c-0.0715637-0.810318-0.2086182-1.3762054-0.4172668-1.7006836
	c-0.2323303-0.3487549-0.6253357-0.5567932-1.1821289-0.6259308c-0.25354-0.0473175-0.4736938-0.0921936-0.6586609-0.1395111
	h-0.2438354l-0.1728516-0.0333557c-0.1401062,0-0.2086487-0.0709686-0.2086487-0.2080383v-0.1758881
	c0.0236511-0.0921936,0.0473022-0.1607361,0.0685425-0.2080383l0.1043091-0.0691376
	c0.2796021,0,0.5567932,0.0121155,0.8339844,0.0357819l0.7296448,0.0333557
	c0.5780029,0.0473022,1.1232605,0.0709534,1.6321411,0.0709534c1.203949,0,2.395752-0.0357819,3.5778809-0.1043091
	l0.2062073-0.0357819h0.175293v0.5901337c0,0.1637726,0.4263916,1.4119873,1.2839966,3.7507477
	c0.7866516,2.1295013,1.7365112,4.6289825,2.8476257,7.5008698c0.509491,1.3434448,1.0759888,2.7081299,1.7012939,4.098877
	c0.1849976,0.437912,0.428833,0.9710388,0.7296448,1.5963745l0.3457336,0.7630005l0.3129883,0.694458
	c0.2086182-0.4621582,0.4524536-1.0280457,0.7296448-1.7012787l0.3814697-0.8673248l0.4172974-0.9376984
	c0.6938782-1.5733185,1.3076782-3.0089569,1.8407898-4.3050842c2.0609741-5.14151,3.2885742-8.8679962,3.6816101-11.183075
	l1.0402222,0.0357819l0.9734497,0.0333557c0.7866516,0.0473022,1.3883362,0.0709534,1.805603,0.0709534
	c0.6016846,0,1.2269897-0.0357819,1.8741455-0.1043091l0.1043396-0.0357819h1.527832
	c0.0473022,0.1400909,0.0709534,0.2444153,0.0709534,0.3129578c0,0.1849976-0.0236511,0.3008423-0.0709534,0.3481445
	c-0.0921936,0.021225-0.3008423,0.0333557-0.6253357,0.0333557h-0.4500427
	c-0.1849976,0.0236511-0.3481445,0.0473175-0.4858398,0.0709686c-0.3930054,0.0685425-0.6726074,0.2183533-0.8339539,0.4500427
	c-0.184967,0.3936157-0.2771606,2.2223053-0.2771606,5.4872131c0.0212097,4.0279083,0.1613464,7.7901764,0.416687,11.2849579
	c0.2298584,3.3334503,0.4506226,5.1057129,0.6586609,5.3137512c0.3936157,0.4385223,1.203949,0.7417755,2.4309387,0.9031219
	c0.1164551,0,0.1728821,0.0563965,0.1728821,0.1728516V178.4998322z M252.2554626,158.4657593
	c0.556778,0.4615631,0.8339691,0.8903809,0.8339691,1.2840118c0,0.5543671-0.5658875,1.1918182-1.7012939,1.9093323
	l-0.7296448,0.4172974l-0.6938629,0.4500427c-0.556778,0.3481293-0.9619446,0.6489716-1.2154846,0.9024963
	c-0.047287,0-0.0921783-0.0448761-0.1400757-0.1370697l-0.0685577-0.1043396l-0.0351715-0.0691223
	c0.0921783-0.2553558,0.2438049-0.7411804,0.4524689-1.4593048l0.241394-0.8339691l0.2795868-0.8339691
	c0.4621887-1.3197937,1.0280609-1.9778748,1.7013092-1.9778748
	C251.5045929,158.0132904,251.862442,158.1625061,252.2554626,158.4657593z M256.5271912,176.1398468
	c-0.9024811,0.3244934-1.7601013,0.7630005-2.5704193,1.3197784l-0.5191956,0.3457336
	c-0.1867981,0.1164551-0.3717804,0.2322845-0.5567932,0.3487396c-0.4852142,0.2771912-1.0304565,0.5446625-1.6321411,0.7981873
	c-0.3008575,0.1395111-0.5901489,0.2086487-0.8673248,0.2086487c-0.6726379,0-1.1918335-0.3699799-1.5636139-1.111145
	c-0.3457184-0.6259308-0.5210114-1.3768158-0.5210114-2.2581024v-0.3815002
	c0.1394958-0.6938477,0.2086487-1.9687653,0.2086487-3.8192749c0-1.2955322-0.0455017-2.7317657-0.1376801-4.3069153
	c-0.0236511-0.6471558-0.2674866-0.9716492-0.7296448-0.9716492c-0.092804,0-0.2086639,0.0121307-0.3481445,0.0357819
	l-0.3815002,0.1043243c-0.1849976,0.0448914-0.3578644,0.0921936-0.5216217,0.1370697l-0.241394,0.0685425
	c-0.1164551,0.0479126-0.2201691,0.0830994-0.3129578,0.1043243v-0.3099365
	c3.6106415-1.2749176,5.9730377-2.293869,7.0841827-3.0562744c0.0448914,0.0685425,0.0806732,0.1273804,0.1043243,0.1728668
	c-0.092804,0.3244781-0.1965179,0.810318-0.312973,1.4593048c-0.2322845,1.4805145-0.3481598,3.449295-0.3481598,5.9014587
	c0,1.5047913,0.0594635,2.6632385,0.1728821,3.4735565c0.0473175,0.5780182,0.3129578,0.9953003,0.8005981,1.2506561
	c0.3699951,0.1849823,0.890976,0.2771759,1.5618134,0.2771759c0.2080231,0,0.4736938-0.0115356,0.798172-0.0351868
	c0.3481445-0.0236511,0.5804443-0.0333557,0.6944885-0.0333557c0.0473022,0,0.0921936,0.0212402,0.1394653,0.0685425
	c0.0448914,0.0454865,0.0685425,0.0927887,0.0685425,0.1401062
	C256.5957336,176.1161804,256.5720825,176.1398468,256.5271912,176.1398468z M246.4225464,177.7368164
	c-1.0189819,0.0921936-2.1416473,0.2559509-3.3692474,0.4858246c-0.4166718,0.0709534-0.8788452,0.1631622-1.3883209,0.2771912
	l-0.5895538,0.1043091c-0.2322845,0.0473175-0.393631,0.082489-0.4858093,0.1043243h-0.0709686l-0.1043243,0.0351715
	l-0.1376953,0.0357971l-0.1043243,0.0685272c-0.0709381,0.0236511-0.1158295,0.0357971-0.1394806,0.0357971
	c-0.0691528,0-0.1043243-0.071579-0.1043243-0.2086487v-0.2086487c0-0.3930206,0.0236511-0.9025116,0.0685425-1.527832
	l0.1043243-0.8673248l0.0709381-0.869751c0.1376953-1.5727234,0.2086487-2.7766724,0.2086487-3.6106415
	c0-1.6915894-0.2559509-2.8360901-0.7654114-3.4377594c-0.7630157-0.8576355-1.6891937-1.286438-2.7766571-1.286438
	c-1.0426178,0-2.0609741,0.3602753-3.0562897,1.0783997l-0.3481598,0.3457031
	c-0.1613159,0.1395111-0.2771606,0.2438354-0.3457031,0.3123779c0,1.4125824,0.0448914,3.5778656,0.1370697,6.4940338
	c0.0473175,0.4621735,0.1516266,0.8794556,0.312973,1.2512665c0.2080383,0.4621582,0.4736786,0.7296295,0.7982025,0.798172
	h0.9382782c0.6016541,0,0.9024963,0.0121307,0.9024963,0.0333557v0.175293l-6.9440918,1.5611877
	c0.2535553-5.391983,0.3815155-10.8221893,0.3815155-16.2857513c0-2.452179-0.0357666-4.7690887-0.1043243-6.9440765
	c-0.0236359-0.6944733-0.2771912-1.0426178-0.7630005-1.0426178c-0.2080383,0-0.4639893,0.0588379-0.7648163,0.1752777
	c-0.2322998,0.0448914-0.5665131,0.1492157-1.0074463,0.3105469v-0.3105469
	c3.7980652-1.2749023,6.2053528-2.2932587,7.2243042-3.0562592c0.068512,0.0448761,0.1255493,0.1043243,0.1728516,0.1728668
	l-0.1043396,0.1043243c-0.0921783,0.0685272-0.1728363,0.1516266-0.2438049,0.2438049
	c-0.2086334,0.2771912-0.3463287,0.6235046-0.414856,1.0401917c-0.3481445,2.430954-0.5210114,6.8421936-0.5210114,13.2319031
	v1.144516c0.738739-0.6465607,1.6085052-1.2718811,2.6038055-1.8741608c0.3693848-0.2080383,0.8455048-0.47612,1.4235229-0.798172
	l0.7296295-0.3839417l0.7630005-0.4142609c0.7417908-0.3487396,1.539978-0.5216064,2.3951721-0.5216064
	c0.300827,0,0.6138153,0.0448914,0.9382782,0.1376801c1.4356689,0.4876556,2.3151093,1.3191986,2.6396027,2.5019073
	c0.1607361,0.5543671,0.2438049,1.2840118,0.2438049,2.1865234c0,1.203949-0.0473022,2.4667206-0.1394806,3.7859192
	c-0.092804,1.3410187-0.1401062,2.4642944-0.1401062,3.366806v0.5901489
	c0.0236359,0.2559509,0.0473022,0.4639893,0.0709534,0.6253204c0.092804,0.4858246,0.2771912,0.7296448,0.5543671,0.7296448
	h0.2796021l0.3105316-0.0351715c0.2323151-0.0218353,0.4409637-0.0691528,0.6253357-0.1376953
	C246.4104156,177.5518341,246.4225464,177.6446228,246.4225464,177.7368164z M214.6134338,176.3484955
	c-3.426239,1.2269897-5.6721954,2.2459412-6.7360229,3.0562592c-0.0709686-0.0946198-0.1516418-0.1752777-0.2438354-0.2438202
	c0-0.1613464-0.0121155-0.393631-0.033371-0.6944733l0.1376953-2.8834076
	c-1.9906158,1.7128296-3.8192749,2.8124542-5.4872131,3.300705c-0.8551941,0.2535248-1.6891632,0.3815002-2.4994812,0.3815002
	c-0.3463135,0-0.6495819-0.0357819-0.9031219-0.1043243c-0.9710541-0.3008423-1.6679382-0.7059937-2.0821838-1.2154694
	c-0.5331268-0.6944733-0.8006134-1.7607422-0.8006134-3.1939545v-0.4524689l0.0351715-0.4858246
	c0.1637726-2.8476105,0.2438202-5.1621094,0.2438202-6.9465027v-0.5895386
	c-0.0236359-0.2535248-0.0473175-0.4621735-0.0709534-0.6259308c-0.1134186-0.4615631-0.3099365-0.6938629-0.5895386-0.6938629
	h-0.4506531c-0.3244781,0-0.5804291,0.0236511-0.7648163,0.0709686v-0.1043396l-0.0333557-0.0709534v-0.0685425l0.0333557-0.1043243
	c1.1347961-0.0473022,2.3047791-0.1728516,3.5087128-0.3815002c0.9237366-0.1637573,1.736496-0.3366241,2.430954-0.5216064
	l0.3457031-0.0685425c0.1158752,0,0.1728821,0.0448914,0.1728821,0.1376801v0.1043243
	c-0.0212402,0.0709534-0.033371,0.1279755-0.033371,0.175293c0,0.3693695-0.0236359,0.8551941-0.0709381,1.4568634
	l-0.068573,0.8339691l-0.068512,0.8673248c-0.1164703,1.5751495-0.1728668,2.7906189-0.1728668,3.645813
	c0,1.9687805,0.2650604,3.2649078,0.7981873,3.8902435c0.7181244,0.8794556,1.561203,1.3197937,2.5352631,1.3197937
	c0.2298737,0,0.5543671-0.0473175,0.9710388-0.1395111c0.4409485-0.0927887,0.8673401-0.2207642,1.2840271-0.3815002
	c1.0662537-0.393631,1.6563873-0.8460999,1.7722626-1.3555756c0.0448608-1.942688,0.0691376-3.6579437,0.0691376-5.1384735
	v-1.4926453c0-0.810318-0.0570221-1.424118-0.1734619-1.8407898c-0.1843872-0.6016693-0.4973755-0.9146423-0.9376984-0.9382935
	h-0.2420044l-0.2086487-0.0333557h-0.2438202c-0.3930206,0-0.5901489-0.0115356-0.5901489-0.0351868v-0.2444305l6.9447021-0.9025116
	c-0.2771912,2.5704498-0.4172821,5.442337-0.4172821,8.61203c0,0.6944733,0.0236359,1.7843933,0.0709381,3.2649231
	c0.0212555,0.6489716,0.2772064,0.9716339,0.763031,0.9716339c0.1613312,0,0.3815002-0.0454865,0.6611023-0.1376648
	l0.2771759-0.0709686l0.2771912-0.0685425c0.2086334-0.0454865,0.4051514-0.1043243,0.5901337-0.1734619V176.3484955z
	 M193.4324493,171.1384583c0,2.6159363-1.2512665,4.6411133-3.7507324,6.0773621
	c-2.037323,1.1584473-4.4112549,1.7364655-7.1194,1.7364655c-1.8977814,0-3.5893707-0.0806732-5.0705109-0.2438202
	c-0.2529144-0.0218353-0.5088654-0.0454865-0.7623901-0.0691376l-0.312973-0.0351868l-0.2796173-0.0333557
	c-0.3693542-0.0473022-0.6113586-0.0709534-0.7272034-0.0709534h-0.72966
	c-0.3481445,0.0236511-0.6253204,0.0351715-0.8339691,0.0351715c0.0236664-0.6702118,0.0473175-1.8523254,0.0685425-3.5414886
	c0.0236511-1.3646851,0.0357819-2.4994812,0.0357819-3.4026031c0.1394958-0.0236511,0.3008423-0.0351715,0.4852295-0.0351715
	c0.2086487-0.0236511,0.4172821-0.0357819,0.6259308-0.0357819c0.6016541,0,1.0541382,0.0473022,1.3549652,0.1401062v1.4592896
	c0,0.4858246,0.0121307,0.9473877,0.033371,1.3883209c0.047287,0.5780182,0.1043243,1.0875092,0.1752777,1.5278473
	c0.1370697,0.092804,0.2650452,0.1734619,0.3815002,0.2420044c0.1607208,0.0946045,0.3244781,0.1752777,0.4852142,0.2438202
	c0.4172821,0.2086334,0.8582306,0.393631,1.319809,0.556778c1.2276001,0.4148712,2.5922699,0.6229095,4.0988617,0.6229095
	c3.8429413,0,5.764389-1.6655121,5.764389-4.9989624c0-1.527832-0.6137848-2.6984253-1.8407745-3.5087433
	c-0.8812866-0.5780029-2.2344513-1.0516968-4.0631104-1.4216766c-0.3699799-0.0709686-0.7302551-0.1395111-1.0759583-0.2080383
	c-0.488266-0.092804-0.9498291-0.1971283-1.3907623-0.312973c-4.3736267-1.1584625-6.5625763-3.4499054-6.5625763-6.8755493
	c0-2.5704498,1.1226654-4.4233704,3.3692322-5.5557556c1.7128143-0.8576202,4.0509644-1.2864227,7.0150299-1.2864227
	c1.4568634,0,2.8361206,0.0588379,4.1316376,0.175293c0.2298889,0,0.4621735,0.0090942,0.6944885,0.0333405
	c0.1613159,0.0236664,0.3341827,0.0473175,0.5209961,0.0685425c0.393631,0.0473022,0.6137848,0.0709686,0.6586761,0.0709686
	c0.1164551,0,0.4409485,0.0121307,0.9740753,0.0333557l0.6586914,0.0351715l0.6938629,0.0357819
	c-0.3930359,1.9663544-0.5895386,4.1437836-0.5895386,6.5274048c-0.7866669,0.0709686-1.2276001,0.1037292-1.3197937,0.1037292
	c-0.1164703,0-0.2322998-0.0115356-0.3481445-0.0327606l-0.2771912-0.0357819c0-1.8286743-0.092804-3.3334503-0.2771759-4.5131378
	c-0.2086487-0.1164551-0.4858246-0.2444305-0.8339691-0.3839264c-0.3936462-0.1376801-0.810318-0.2656555-1.2488251-0.3815155
	c-1.1821136-0.300827-2.3860779-0.4500427-3.6130676-0.4500427c-1.6206207,0-2.9046478,0.2887115-3.8550568,0.8673401
	c-1.2269897,0.717514-1.8383789,1.9093323-1.8383789,3.5772705c0,1.0874939,0.4148712,1.9784851,1.2488403,2.6723328
	c0.6253357,0.5331421,1.527832,0.9831848,2.7081299,1.3555908c0.2316742,0.0921936,0.5088654,0.1843719,0.8339691,0.2771759
	l0.3815002,0.1043243l0.3123627,0.0685272c0.2322693,0.0709686,0.6138,0.1631622,1.1469269,0.2796021l0.6938477,0.137085
	l0.72966,0.175293c1.3197784,0.2990112,2.3957672,0.6708069,3.2297363,1.111145
	C192.1338654,166.7174988,193.4324493,168.6153259,193.4324493,171.1384583z M160.615921,177.8053589
	c-1.0183563,0.0715637-2.0943298,0.197113-3.229126,0.3839264c-0.8339691,0.1376801-1.6558075,0.300827-2.4661407,0.4858246
	l-0.3463135,0.0685272l-0.1395111,0.0357971l-0.1043243,0.0685272c-0.068512,0.0236511-0.1158295,0.0357971-0.1394958,0.0357971
	c-0.0454865,0-0.0691376-0.0594482-0.0691376-0.175293v-0.2420044c0-0.3481445,0.0236511-0.7981873,0.0691376-1.3549652
	l0.0351868-0.7296448l0.0357971-0.7987976c0.0921783-1.3646698,0.1370697-2.4424591,0.1370697-3.229126
	c0-2.1064606-0.2887115-3.4947815-0.8667297-4.1674194c-0.7181244-0.8788452-1.5284424-1.3197937-2.4309387-1.3197937
	c-0.7417908,0-1.6327667,0.3602753-2.6747742,1.0783997c0,0.4615631,0.0236511,0.8430634,0.0709686,1.1463165
	c0,0.1849976,0.0115204,0.4263916,0.0327454,0.7272339v0.694458c0,0.5804596-0.0090942,1.3907623-0.0327454,2.430954
	l-0.0709686,1.1821136v2.0136566c0,0.2086487,0.0115356,0.4051514,0.0351868,0.5901337
	c0.0236511,0.25354,0.059433,0.4736938,0.1043243,0.6586914c0.1158295,0.4882507,0.3244781,0.7296448,0.6253204,0.7296448h0.3815002
	l0.4172821,0.0357819c0.1843872,0,0.3244934-0.0121307,0.416687-0.0357819c0,0.1395111-0.0115204,0.2771912-0.0351868,0.416687
	c-0.5331268,0.0242615-1.1566315,0.0357819-1.8741455,0.0357819h-1.7364807
	c-1.2749023,0.0236511-2.1422272,0.0806732-2.6038055,0.1728516l-0.0715637,0.0357971l-0.0685425,0.0327454
	c-0.0685272,0.0242615-0.1279755,0.0357819-0.1728516,0.0357819c-0.0473175,0-0.0830994-0.0236511-0.1043396-0.0685272
	c-0.047287-0.0236511-0.0709534-0.0709686-0.0709534-0.1401062l0.0709534-0.9025116
	c0.0449066-0.4858246,0.0806885-0.8788605,0.1043396-1.1796875l0.1043243-1.3197937
	c0.0685272-1.0189514,0.1043091-1.921463,0.1043091-2.710556c0-2.1058502-0.2322845-3.6106262-0.6968994-4.5131226
	c-0.4142456-0.7630157-1.3883209-1.1469421-2.916153-1.1469421c-0.6022797,0-1.2367096,0.2680817-1.9099274,0.8006134
	c-0.0685425,1.0165253-0.1043396,2.2677765-0.1043396,3.7483063c-0.0236359,0.5567932-0.0327454,1.1821136-0.0327454,1.8765869
	v1.6679382c0,0.7866516,0.0564117,1.3883362,0.1728516,1.8050079c0.1607361,0.6022797,0.4500427,0.9358673,0.8667297,1.007431
	h0.2796021c0.092804,0,0.2298737-0.0121307,0.4148712-0.0357819h0.5925598c0.0212402,0,0.0327606,0.0357819,0.0327606,0.1043243
	c0,0.0685272-0.0115204,0.1613312-0.0327606,0.2771759l-6.8427887,0.8339691
	c0.2559662-2.3144836,0.3815002-5.0013885,0.3815002-8.0552216v-1.6327667
	c-0.021225-0.6253357-0.0448761-1.2033386-0.0685272-1.7364807c-0.0236511-0.6701965-0.2656555-1.0068207-0.7296448-1.0068207
	c-0.2086487,0-0.4500427,0.0570068-0.7272339,0.1728516c-0.1637573,0.0473175-0.3366089,0.0921936-0.5216064,0.1395111
	l-0.2796021,0.0691376c-0.1134186,0.0473022-0.2177429,0.0806732-0.3099365,0.1043243v-0.312973
	c3.7950134-1.2961273,6.2259674-2.3144836,7.2897949-3.0562744c0.0946198,0.0709686,0.1516266,0.1395111,0.175293,0.2086487
	c-0.1395111,0.2559509-0.2559509,0.7532959-0.3481445,1.4950867c0,0.0685272-0.0121307,0.1728516-0.0333557,0.3099365
	l-0.0709686,0.3839264c-0.0448761,0.393631-0.080658,0.7393494-0.1043091,1.0401917l0.7654266-0.5191956l0.7630005-0.5919647
	c0.6702118-0.4858246,1.2033386-0.8673248,1.5969696-1.1445007c1.227005-0.810318,2.1768188-1.2391357,2.8476257-1.286438h0.6253204
	l0.6586914,0.0709534c0.4645996,0.0691528,0.8339691,0.2298737,1.1111603,0.4858246
	c0.8812714,0.7866669,1.3792267,1.8741608,1.4950714,3.2649231c1.0638428-1.08992,2.5467987-2.117981,4.4445953-3.0920563
	c0.6944733-0.3693848,1.4356384-0.5543671,2.2223053-0.5543671c0.300827,0,0.5543671,0.0333557,0.7630005,0.1043243
	c1.0189667,0.3457184,1.7249603,0.7981873,2.117981,1.3525543c0.5331421,0.7181091,0.7987823,1.8414001,0.7987823,3.3692322
	v0.7296448c-0.0218201,0.4858246-0.0454865,0.9716492-0.0691376,1.4574738v1.1463318
	c0,0.2771759,0.0236511,1.5520935,0.0691376,3.8192749v0.5901489c0.0236664,0.2559509,0.0473175,0.4639893,0.0709839,0.6253204
	c0.0921783,0.4858246,0.2771759,0.7296448,0.5543518,0.7296448h0.2771759l0.3123627-0.0351715
	c0.2322998-0.0218353,0.4409332-0.0691528,0.6259308-0.1376953c0.0473175,0.0448914,0.0709534,0.1255646,0.0709534,0.2414093
	C160.6516876,177.7489471,160.6395721,177.7841187,160.615921,177.8053589z M127.3141632,173.9175415
	c0.3481445-0.7654266,0.5210037-1.5514832,0.5210037-2.3618011c0-1.5047913-0.5210037-2.7675629-1.5636063-3.7840881
	c-1.1323853-1.1348114-2.6274719-1.703125-4.4779663-1.703125c-0.2080383,0-0.5446548,0.0236511-1.0068359,0.0709534
	c-0.4166794,0.0212402-0.8339691,0.2298889-1.2506485,0.6229095c-0.4172897,0.3487549-0.694458,0.7296448-0.8339691,1.1469421
	c-0.3244858,0.7866516-0.485817,1.5163116-0.485817,2.1889343c0,1.5260162,0.6253281,2.8458099,1.8741531,3.956955
	c1.2057724,1.0662689,2.5704498,1.5988007,4.098877,1.5988007h0.2080383
	C125.9021759,175.5594025,126.8732224,174.9813843,127.3141632,173.9175415z M132.0717316,168.5346527
	c0,0.6944733-0.1164551,1.4477692-0.3463287,2.2580719c-0.279007,0.947403-0.6489716,1.6321564-1.111145,2.0470123
	c-1.2979584,1.1584778-2.0609589,1.8644562-2.2932739,2.1204224l-0.485817,0.4500275
	c-1.3883362,1.3197937-2.4424744,2.1986542-3.1605911,2.6396027c-1.1111526,0.6489716-2.4188156,0.9710388-3.9229889,0.9710388
	h-0.3487549c-1.549057-0.0448914-2.9046402-0.5895386-4.0630875-1.6321564
	c-1.3173752-1.1796875-2.0233688-2.731781-2.117981-4.653244v-0.1728516c0-1.8056335,0.5331345-3.2982788,1.5993958-4.4803925
	c0.7393494-0.831543,2.0373077-1.7249451,3.8878174-2.672348c2.8239746-1.4592896,4.7812119-2.1871185,5.8687134-2.1871185
	h0.1395035l0.1376724,0.0333557C129.9300995,163.7892151,132.002594,165.5469208,132.0717316,168.5346527z"/>
<path style="fill-rule:evenodd;clip-rule:evenodd;fill:#FFFFFF;" d="M129.802124,64.0301361
	c-0.334198,1.0662613-0.7320862,3.6961441-1.1990967,7.8944931c-0.4670258,4.1298294-0.7011414,7.1927643-0.7011414,9.1924667
	v5.7953415h-1.2985611l-1.0990295,0.0994568c-0.5998459,0-1.6988678-0.0661163-3.2982635-0.1989441
	c0-0.5331345,0.0357819-1.4999237,0.1018829-2.8973465v-3.0993271c0-4.6623459-0.4997635-7.560318-1.4999237-8.6927032
	c-0.132225-0.1328278-0.3335876-0.2650604-0.5992508-0.4003067c-0.3341904-0.1989441-0.6653519-0.3978653-0.9995422-0.5992279
	c-1.0662689-0.5331345-2.2653656-1.0329132-3.5966873-1.4975052c-3.7980423-1.3337479-8.0267258-1.9997253-12.6896667-1.9997253
	c-7.4632645,0-13.2579803,1.7649841-17.3876801,5.2955704c-5.6626816,4.7975922-8.493927,12.8904266-8.493927,24.2821426
	c0,9.6588745,2.8646088,17.252533,8.5932159,22.782196c4.8643799,4.5962372,10.5268707,6.8943634,16.9875565,6.8943634
	c4.0630951,0,7.6622009-0.2650604,10.7918549-0.7981949c3.996994-0.6659622,7.3613739-1.7649689,10.0931549-3.2982635
	c0.5331268-0.2674866,0.9971313-0.5325317,1.3974304-0.7981949c0.334198-0.2013474,0.6659622-0.4336548,1.0001526-0.7011261
	c0.7981949-0.4670334,1.4332199-0.831543,1.8978119-1.0996399l0.099472-0.0994644h0.1018982
	c0.3317566,0,0.6987152,0.234726,1.0990143,0.6993256c0.3978882,0.4664154,0.5998535,0.8339691,0.5998535,1.0990143
	c0,0.5992508-0.234726,1.1323776-0.7017365,1.599411c-0.9310303,0.9334259-1.8978271,1.7983322-2.8973694,2.598938
	c-9.0602417,6.728775-18.0840988,10.0907288-27.0782242,10.0907288c-10.8579712,0-19.4177704-3.3292084-25.6796341-9.9912491
	c-6.1955109-6.595932-9.2949677-15.5209351-9.2949677-26.7791977c0-12.7254639,4.3972931-22.2830505,13.1895142-28.6776276
	c6.9302521-5.1311951,15.4899902-7.6949425,25.6826096-7.6949425c2.5965195,0,4.9279938,0.0660973,6.9938126,0.1989212
	c1.599411,0.0661163,3.1302643,0.1680145,4.5968323,0.3008575c3.198204,0.4002876,4.8279266,0.5992317,4.8970718,0.5992317
	h3.2952423c0.6683884,0,1.466568-0.0327682,2.4000092-0.099472H129.802124z"/>
<path style="fill-rule:evenodd;clip-rule:evenodd;fill:#FFFFFF;" d="M129.802124,64.0301361
	c-0.334198,1.0662613-0.7320862,3.6961441-1.1990967,7.8944931c-0.4670258,4.1298294-0.7011414,7.1927643-0.7011414,9.1924667
	v5.7953415h-1.2985611l-1.0990295,0.0994568c-0.5998459,0-1.6988678-0.0661163-3.2982635-0.1989441
	c0-0.5331345,0.0357819-1.4999237,0.1018829-2.8973465v-3.0993271c0-4.6623459-0.4997635-7.560318-1.4999237-8.6927032
	c-0.132225-0.1328278-0.3335876-0.2650604-0.5992508-0.4003067c-0.3341904-0.1989441-0.6653519-0.3978653-0.9995422-0.5992279
	c-1.0662689-0.5331345-2.2653656-1.0329132-3.5966873-1.4975052c-3.7980423-1.3337479-8.0267258-1.9997253-12.6896667-1.9997253
	c-7.4632645,0-13.2579803,1.7649841-17.3876801,5.2955704c-5.6626816,4.7975922-8.493927,12.8904266-8.493927,24.2821426
	c0,9.6588745,2.8646088,17.252533,8.5932159,22.782196c4.8643799,4.5962372,10.5268707,6.8943634,16.9875565,6.8943634
	c4.0630951,0,7.6622009-0.2650604,10.7918549-0.7981949c3.996994-0.6659622,7.3613739-1.7649689,10.0931549-3.2982635
	c0.5331268-0.2674866,0.9971313-0.5325317,1.3974304-0.7981949c0.334198-0.2013474,0.6659622-0.4336548,1.0001526-0.7011261
	c0.7981949-0.4670334,1.4332199-0.831543,1.8978119-1.0996399l0.099472-0.0994644h0.1018982
	c0.3317566,0,0.6987152,0.234726,1.0990143,0.6993256c0.3978882,0.4664154,0.5998535,0.8339691,0.5998535,1.0990143
	c0,0.5992508-0.234726,1.1323776-0.7017365,1.599411c-0.9310303,0.9334259-1.8978271,1.7983322-2.8973694,2.598938
	c-9.0602417,6.728775-18.0840988,10.0907288-27.0782242,10.0907288c-10.8579712,0-19.4177704-3.3292084-25.6796341-9.9912491
	c-6.1955109-6.595932-9.2949677-15.5209351-9.2949677-26.7791977c0-12.7254639,4.3972931-22.2830505,13.1895142-28.6776276
	c6.9302521-5.1311951,15.4899902-7.6949425,25.6826096-7.6949425c2.5965195,0,4.9279938,0.0660973,6.9938126,0.1989212
	c1.599411,0.0661163,3.1302643,0.1680145,4.5968323,0.3008575c3.198204,0.4002876,4.8279266,0.5992317,4.8970718,0.5992317
	h3.2952423c0.6683884,0,1.466568-0.0327682,2.4000092-0.099472H129.802124z"/>
</svg>
