<?xml version="1.0" encoding="utf-8"?>
<!-- Generator: Adobe Illustrator 24.0.3, SVG Export Plug-In . SVG Version: 6.00 Build 0)  -->
<svg version="1.1" id="Capa_1" xmlns="http://www.w3.org/2000/svg" xmlns:xlink="http://www.w3.org/1999/xlink" x="0px" y="0px"
	 viewBox="0 0 46.8 46.8" style="enable-background:new 0 0 46.8 46.8;" xml:space="preserve">
<style type="text/css">
	.st0{fill:#FFFFFF;}
</style>
<g>
	<g>
		<path class="st0" d="M46.6,33.7l-1.3-2.2c-0.2-0.4-0.7-0.7-1.1-0.7l-16.5,0c-0.4,0-1-0.2-1.3-0.6l-1-1.1c-0.3-0.3-0.8-0.6-1.3-0.6
			h-5.6l-0.2-2.8c-0.3-2.2-2.4-3.6-4.5-3.1L3.9,25C1.8,25.5,0,27.7,0,29.9l0,8.9c0,2.2,1.8,4.4,3.9,4.9l10,2.2
			c2.1,0.5,4.2-0.9,4.5-3.1l0.2-2.8l0,0l3.6,0c0.4,0,1-0.2,1.3-0.6l1-1.1c0.3-0.3,0.8-0.6,1.3-0.6h1.2c0.4,0,0.9-0.3,1.1-0.7
			l0.2-0.3c0.2-0.4,0.7-0.7,1.1-0.7h0.7c0.4,0,0.8,0.3,0.9,0.7l0.1,0.2c0.1,0.4,0.5,0.7,0.9,0.7s0.9-0.3,1-0.7l0.2-0.3
			c0.2-0.4,0.7-0.7,1.1-0.7h0.7c0.4,0,0.8,0.3,0.9,0.7l0.1,0.2c0.1,0.4,0.5,0.7,0.9,0.7h7.5c0.4,0,0.9-0.3,1.1-0.7l1.3-2.2
			C46.8,34.6,46.8,34.1,46.6,33.7z M6.9,40.4c-1.9,0-3.4-2.7-3.4-6c0-3.3,1.5-6,3.4-6c1.9,0,3.4,2.7,3.4,6
			C10.2,37.7,8.7,40.4,6.9,40.4z"/>
		<polygon class="st0" points="17.7,21.2 23.5,15.5 29.3,21.2 33.7,16.8 28,11 33.7,5.2 29.3,0.8 23.5,6.6 17.7,0.8 13.3,5.2 19,11 
			13.3,16.8 		"/>
	</g>
</g>
</svg>
